<?xml version="1.0" encoding="UTF-8" standalone="no"?>
<svg
   xmlns:dc="http://purl.org/dc/elements/1.1/"
   xmlns:cc="http://creativecommons.org/ns#"
   xmlns:rdf="http://www.w3.org/1999/02/22-rdf-syntax-ns#"
   xmlns:svg="http://www.w3.org/2000/svg"
   xmlns="http://www.w3.org/2000/svg"
   xmlns:sodipodi="http://sodipodi.sourceforge.net/DTD/sodipodi-0.dtd"
   xmlns:inkscape="http://www.inkscape.org/namespaces/inkscape"
   version="1.1"
   id="svg2"
   xml:space="preserve"
   width="561.22668"
   height="605.84003"
   viewBox="0 0 561.22668 605.84003"
   sodipodi:docname="3196450.eps"><metadata
     id="metadata8"><rdf:RDF><cc:Work
         rdf:about=""><dc:format>image/svg+xml</dc:format><dc:type
           rdf:resource="http://purl.org/dc/dcmitype/StillImage" /></cc:Work></rdf:RDF></metadata><defs
     id="defs6" /><sodipodi:namedview
     pagecolor="#ffffff"
     bordercolor="#666666"
     borderopacity="1"
     objecttolerance="10"
     gridtolerance="10"
     guidetolerance="10"
     inkscape:pageopacity="0"
     inkscape:pageshadow="2"
     inkscape:window-width="640"
     inkscape:window-height="480"
     id="namedview4" /><g
     id="g10"
     inkscape:groupmode="layer"
     inkscape:label="ink_ext_XXXXXX"
     transform="matrix(1.3333333,0,0,-1.3333333,0,605.84)"><g
       id="g12"
       transform="scale(0.1)"><path
         d="m 1231.92,44.5508 c 215.88,144.0902 268.59,416.7192 263.97,662.5582 -0.77,41.039 4.46,84.219 -14.75,120.493 -19.22,36.277 -64.94,61.57 -102.43,44.839 -31.08,-13.871 -45.09,-49.101 -62.82,-78.16 -23.57,-38.633 -58.29,-70.402 -98.88,-90.422 -26.68,-13.16 -59.55,-20.949 -85.46,-6.328 -35.54,20.047 -39.01,68.981 -38.11,109.789 1.66,76.02 3.32,152.032 4.98,228.06 0.9,40.79 1.68,82.43 -10.58,121.35 -12.25,38.9 -40.09,75.29 -79.25,86.75 -39.152,11.45 -88.129,-10.2 -97.051,-50 -3.711,-16.57 -0.547,-33.86 -1.953,-50.78 -1.41,-16.9 -9.707,-35.53 -26.078,-40.02 -16.567,-4.53 -32.922,7.3 -45.106,19.41 -42.015,41.83 -70.14,95.32 -96.371,148.49 -26.238,53.18 -51.66,107.58 -89.668,153.09 -38.008,45.5 -91.011,81.9 -150.14,86.09 -59.153,4.2 -122.782,-30.92 -138.633,-88.05 -15.895,-57.29 17.203,-116.15 53.469,-163.26 53.8,-69.89 117.781,-131.93 189.273,-183.58 12.895,-9.33 26.859,-19.4 31.617,-34.58 8.543,-27.32 -17.988,-53.95 -45.32,-62.501 -30.981,-9.648 -64.352,-6 -96.637,-9.269 -32.297,-3.258 -67.429,-16.758 -80.094,-46.641 -17.57,-41.449 17.086,-85.68 51.403,-114.82 68.722,-58.348 147.527,-104.84 231.847,-136.75 30.243,-11.457 62.079,-21.547 86.266,-43 24.195,-21.457 38.418,-58.34 23.172,-86.84 -15.277,-28.559 -53.445,-37.18 -85.199,-30.867 -31.754,6.296 -60,23.789 -90.18,35.539 C 576.734,567.16 503.324,564.379 466.188,516.48 441.777,485 438.984,440.672 450.488,402.531 461.988,364.379 486,331.328 511.578,300.781 600.977,194 716.207,107.398 847.27,60.3398 978.34,13.2813 1100.24,-0.75 1231.92,44.5508"
         style="fill:#e7e8e5;fill-opacity:1;fill-rule:nonzero;stroke:none"
         id="path14" /><path
         d="M 1214.99,39.8086 C 1180.24,164.309 1085.14,457.25 1028.5,595.039 c -14.29,34.371 -28.41,68.352 -42.34,101.84 -13.957,33.41 -27.801,66.512 -43.371,98.062 -30.859,63.258 -65.406,121.77 -99.961,176.309 -34.562,54.57 -69.363,105.1 -102.254,152.15 -32.992,46.98 -64.582,90.19 -95.07,128.37 -60.758,76.61 -117.043,132.57 -157.25,169.46 -20.086,18.52 -36.125,32.39 -47.113,41.67 -5.348,4.46 -9.516,7.93 -12.551,10.47 -2.852,2.32 -4.414,3.39 -4.414,3.39 0,0 1.285,-1.39 4,-3.88 2.933,-2.63 6.976,-6.26 12.16,-10.92 10.703,-9.58 26.484,-23.72 46.281,-42.48 39.656,-37.38 95.309,-93.65 155.469,-170.41 30.203,-38.26 61.523,-81.55 94.301,-128.59 32.679,-47.14 67.281,-97.74 101.629,-152.281 34.363,-54.488 68.707,-112.879 99.351,-175.898 15.453,-31.43 29.172,-64.301 43.141,-97.789 13.91,-33.492 28.012,-67.442 42.302,-101.821 56.6,-137.679 151.76,-430.3 186.71,-554.4293"
         style="fill:#dadbd8;fill-opacity:1;fill-rule:nonzero;stroke:none"
         id="path16" /><path
         d="m 941.254,795.57 c 0.422,-0.07 1.836,6.129 4.035,17.399 2.254,11.25 5.031,27.621 8.191,47.902 6.356,40.539 13.278,96.809 20.762,158.879 7.485,62.11 15.375,118.14 22.594,158.44 3.544,20.17 6.614,36.46 8.904,47.68 2.22,11.23 3.26,17.51 2.84,17.61 -0.41,0.1 -2.23,-5.98 -5.18,-17.08 -3.01,-11.08 -6.74,-27.28 -10.841,-47.4 -8.348,-40.21 -16.946,-96.34 -24.438,-158.49 -7.328,-61.549 -13.965,-117.24 -18.949,-159.041 -2.524,-19.457 -4.629,-35.641 -6.25,-48.129 -1.473,-11.371 -2.086,-17.692 -1.668,-17.77"
         style="fill:#dadbd8;fill-opacity:1;fill-rule:nonzero;stroke:none"
         id="path18" /><path
         d="m 411.367,901.52 c -0.012,-0.2 1.875,-0.54 5.453,-0.969 4.321,-0.442 9.493,-0.949 15.715,-1.582 13.637,-1.297 33.36,-3.149 57.656,-6.239 48.61,-5.769 115.489,-16.191 188.727,-30.941 73.238,-14.898 138.914,-31.23 186.059,-44.48 23.613,-6.45 42.582,-12.207 55.707,-16.129 5.996,-1.762 10.992,-3.231 15.144,-4.45 3.488,-0.96 5.348,-1.359 5.426,-1.16 0.07,0.211 -1.664,1 -5.024,2.34 -4.058,1.508 -8.933,3.352 -14.8,5.531 -12.907,4.637 -31.719,11.047 -55.235,18.059 -46.937,14.352 -112.644,31.398 -186.062,46.328 -73.41,14.781 -140.59,24.551 -189.469,29.231 -24.41,2.531 -44.246,3.742 -57.961,4.3 -6.262,0.18 -11.465,0.332 -15.801,0.442 -3.617,0.019 -5.531,-0.051 -5.535,-0.281"
         style="fill:#dadbd8;fill-opacity:1;fill-rule:nonzero;stroke:none"
         id="path20" /><path
         d="m 1163.68,209.301 c 0.19,-0.082 1.43,2.121 3.6,6.398 2.41,4.91 5.48,11.172 9.27,18.903 8,16.418 18.98,40.476 32.19,70.359 26.45,59.73 60.44,143.367 96.78,236.129 36.36,92.781 69.68,176.57 95.08,236.691 12.59,29.469 22.89,53.571 30.36,71.09 3.36,7.91 6.08,14.328 8.21,19.359 1.82,4.45 2.68,6.84 2.48,6.918 -0.19,0.09 -1.43,-2.117 -3.61,-6.398 -2.4,-4.898 -5.47,-11.16 -9.26,-18.891 -8,-16.418 -18.97,-40.48 -32.17,-70.347 -26.46,-59.75 -60.46,-143.371 -96.82,-236.172 -36.34,-92.762 -69.66,-176.539 -95.06,-236.66 -12.59,-29.469 -22.88,-53.578 -30.36,-71.102 -3.36,-7.906 -6.08,-14.316 -8.21,-19.359 -1.82,-4.449 -2.68,-6.828 -2.48,-6.918"
         style="fill:#dadbd8;fill-opacity:1;fill-rule:nonzero;stroke:none"
         id="path22" /><path
         d="m 461,444.461 c -0.055,-0.199 2.355,-1.172 7.004,-2.82 5.293,-1.809 12.074,-4.11 20.449,-6.961 18.524,-6.18 44.07,-14.692 75.32,-25.102 63.563,-21.258 151.008,-51.719 247.532,-85.598 96.562,-33.878 184.297,-63.718 248.255,-83.941 31.98,-10.129 57.92,-18.078 75.95,-23.25 8.52,-2.398 15.42,-4.34 20.79,-5.859 4.78,-1.262 7.31,-1.828 7.38,-1.629 0.06,0.211 -2.36,1.179 -7.02,2.828 -5.28,1.793 -12.05,4.109 -20.43,6.949 -18.52,6.172 -44.07,14.684 -75.32,25.102 -63.566,21.261 -151.012,51.738 -247.574,85.609 -96.523,33.883 -184.258,63.711 -248.203,83.941 -31.985,10.122 -57.938,18.071 -75.961,23.239 -8.524,2.402 -15.414,4.34 -20.793,5.859 -4.781,1.274 -7.309,1.84 -7.379,1.633"
         style="fill:#dadbd8;fill-opacity:1;fill-rule:nonzero;stroke:none"
         id="path24" /><path
         d="m 3379.36,1930.04 c 0,0 -102.62,52.74 -194.09,-188.92 -91.46,-241.65 -121.13,-378.48 -121.13,-378.48 0,0 -25.56,-51.33 -61.93,-23.62 -36.39,27.73 -91.27,111.66 -145.49,89.5 -56.23,-22.99 -68.22,-89.88 -46.69,-183.87 21.54,-94 61.17,-301.662 64.69,-320.451 3.44,-18.449 -4.19,-47.019 -32.01,-32.109 -27.8,14.91 -194.76,164.21 -260.86,80.738 -66.1,-83.469 36.93,-335.457 47.66,-363.219 10.73,-27.769 6.49,-40.589 -6.33,-49.16 -12.8,-8.578 -64.19,46.891 -113.41,87.41 -49.23,40.532 -113.41,78.879 -147.51,27.52 -34.11,-51.348 -25.21,-247.938 195.44,-544.609 L 2668.95,0 2839.05,28.3203 C 3199.38,111.09 3333.63,255 3340.97,316.199 c 7.33,61.199 -66.4,73.621 -130.14,74.699 -63.75,1.063 -138.84,-7.847 -143.04,6.993 -4.19,14.82 0.89,27.347 27.07,41.519 26.17,14.18 268,139.219 271.8,245.621 3.8,106.399 -220.12,100.989 -250.96,107.668 -30.84,6.68 -18.12,33.391 -3.53,45.211 14.85,12.02 179.68,144.418 257.02,202.01 77.34,57.59 111.59,116.3 83.68,170.25 -26.9,52.03 -123.11,23.71 -168.79,26.19 -45.66,2.49 -31.83,58.15 -31.83,58.15 0,0 66.13,123.41 153.19,366.68 87.05,243.28 -28.22,269.77 -28.22,269.77"
         style="fill:#e7e8e5;fill-opacity:1;fill-rule:nonzero;stroke:none"
         id="path26" /><path
         d="m 2672.72,37.2188 c 64.64,178.4222 156.01,424.1522 257.82,695.2812 101.76,271.03 193.68,516.51 259.22,694.58 32.61,88.91 59.04,160.93 77.39,210.96 9.1,24.74 16.19,44.03 21.08,57.35 2.41,6.37 4.28,11.32 5.62,14.87 1.29,3.34 2.08,5 2.08,5 0,0 -0.44,-1.79 -1.57,-5.18 -1.22,-3.6 -2.92,-8.6 -5.11,-15.05 -4.68,-13.4 -11.46,-32.81 -20.15,-57.69 -17.55,-50.08 -43.46,-122.36 -75.81,-211.56 -64.64,-178.41 -156,-424.12 -257.76,-695.159 C 2833.72,459.5 2741.8,214 2676.26,35.9297"
         style="fill:#dadbd8;fill-opacity:1;fill-rule:nonzero;stroke:none"
         id="path28" /><path
         d="m 2927.62,1309.5 c 0.34,0.14 2.3,-3.82 5.57,-11.1 3.3,-7.27 7.77,-17.91 13.16,-31.13 10.73,-26.43 24.62,-63.32 39.21,-104.29 14.23,-40.47 27.12,-77.06 36.96,-105.05 4.52,-12.59 8.33,-23.21 11.4,-31.75 2.72,-7.48 4.07,-11.69 3.73,-11.84 -0.34,-0.14 -2.34,3.8 -5.66,11.07 -3.28,7.27 -7.74,17.93 -13,31.2 -10.47,26.54 -23.87,63.6 -38.45,104.58 -14.52,40.33 -27.66,76.82 -37.71,104.74 -4.59,12.56 -8.46,23.17 -11.56,31.69 -2.68,7.51 -3.99,11.74 -3.65,11.88"
         style="fill:#dadbd8;fill-opacity:1;fill-rule:nonzero;stroke:none"
         id="path30" /><path
         d="m 3053.66,1013.03 c -0.55,1.36 74.23,33.34 167.02,71.43 92.83,38.1 168.5,67.86 169.07,66.49 0.55,-1.35 -74.22,-33.33 -167.05,-71.42 -92.79,-38.09 -168.48,-67.86 -169.04,-66.5"
         style="fill:#dadbd8;fill-opacity:1;fill-rule:nonzero;stroke:none"
         id="path32" /><path
         d="m 2878.57,603.801 c -0.02,0.359 4.45,1.039 12.53,1.961 9.18,0.976 20.66,2.199 34.26,3.636 28.92,3.133 68.83,7.602 112.7,14.153 43.88,6.461 83.39,13.679 111.96,19.14 13.45,2.559 24.77,4.719 33.84,6.45 8,1.468 12.48,2.121 12.56,1.769 0.08,-0.371 -4.23,-1.699 -12.1,-3.801 -7.87,-2.089 -19.32,-4.929 -33.54,-8.109 -28.42,-6.41 -67.94,-14.25 -111.94,-20.719 -44,-6.57 -84.08,-10.472 -113.14,-12.64 -14.53,-1.012 -26.3,-1.711 -34.44,-1.95 -8.15,-0.281 -12.66,-0.261 -12.69,0.11"
         style="fill:#dadbd8;fill-opacity:1;fill-rule:nonzero;stroke:none"
         id="path34" /><path
         d="m 2705.55,846.852 c 0.29,0.226 3.03,-2.93 7.73,-8.813 5.29,-6.848 11.81,-15.269 19.48,-25.199 16.26,-21.43 38.43,-51.231 62.65,-84.352 24.23,-33.117 45.92,-63.289 61.41,-85.277 7.13,-10.32 13.18,-19.07 18.11,-26.199 4.18,-6.262 6.35,-9.832 6.06,-10.043 -0.31,-0.207 -3.04,2.929 -7.74,8.812 -5.29,6.848 -11.8,15.27 -19.48,25.199 -16.26,21.418 -38.43,51.231 -62.66,84.372 -24.22,33.109 -45.91,63.269 -61.39,85.257 -7.14,10.321 -13.19,19.082 -18.12,26.211 -4.18,6.25 -6.35,9.821 -6.05,10.032"
         style="fill:#dadbd8;fill-opacity:1;fill-rule:nonzero;stroke:none"
         id="path36" /><path
         d="m 2505.08,505.211 c 0.3,0.219 3.77,-3.84 9.78,-11.371 6.54,-8.391 14.97,-19.219 25.09,-32.211 21,-27.34 49.71,-65.32 81.15,-107.469 31.46,-42.16 59.7,-80.5 79.92,-108.422 9.58,-13.398 17.54,-24.558 23.73,-33.207 5.5,-7.922 8.41,-12.41 8.11,-12.621 -0.29,-0.23 -3.76,3.84 -9.77,11.379 -6.54,8.391 -14.98,19.211 -25.09,32.199 -21,27.34 -49.71,65.332 -81.16,107.481 -31.45,42.152 -59.69,80.492 -79.91,108.402 -9.58,13.399 -17.55,24.559 -23.73,33.231 -5.5,7.91 -8.42,12.386 -8.12,12.609"
         style="fill:#dadbd8;fill-opacity:1;fill-rule:nonzero;stroke:none"
         id="path38" /><path
         d="m 2729.47,208.738 c -0.04,0.371 5.6,1.371 15.81,2.891 11.17,1.601 25.73,3.68 43.27,6.191 36.53,5.258 86.95,12.731 142.37,22.551 55.46,9.731 105.41,19.859 141.52,27.449 17.35,3.629 31.75,6.641 42.78,8.95 10.12,2.082 15.76,3.05 15.84,2.699 0.09,-0.36 -5.38,-2.02 -15.36,-4.719 -9.97,-2.691 -24.46,-6.371 -42.44,-10.609 -35.94,-8.539 -85.87,-19.282 -141.41,-29.032 -55.52,-9.828 -106.13,-16.711 -142.82,-21.031 -18.35,-2.109 -33.21,-3.656 -43.51,-4.508 -10.3,-0.879 -16.01,-1.191 -16.05,-0.832"
         style="fill:#dadbd8;fill-opacity:1;fill-rule:nonzero;stroke:none"
         id="path40" /><path
         d="m 241.395,3459.52 v 0 C 108.074,3459.52 0,3567.59 0,3700.91 c 0,133.32 108.074,241.4 241.395,241.4 133.32,0 241.398,-108.08 241.398,-241.4 0,-133.32 -108.078,-241.39 -241.398,-241.39"
         style="fill:#e7e8e5;fill-opacity:1;fill-rule:nonzero;stroke:none"
         id="path42" /><path
         d="m 131.934,3593.33 h 49.961 v 161.4 h -49.961 v -161.4"
         style="fill:#ffffff;fill-opacity:1;fill-rule:nonzero;stroke:none"
         id="path44" /><path
         d="m 156.676,3775.86 c 16.316,0 29.543,13.35 29.543,29.79 0,16.44 -13.227,29.78 -29.543,29.78 -16.321,0 -29.543,-13.34 -29.543,-29.78 0,-16.44 13.222,-29.79 29.543,-29.79"
         style="fill:#ffffff;fill-opacity:1;fill-rule:nonzero;stroke:none"
         id="path46" /><path
         d="m 261.758,3678.05 c 0,22.69 10.445,36.21 30.437,36.21 18.371,0 27.2,-12.97 27.2,-36.21 0,-23.24 0,-84.72 0,-84.72 h 49.726 c 0,0 0,58.96 0,102.19 0,43.23 -24.508,64.14 -58.726,64.14 -34.235,0 -48.637,-26.68 -48.637,-26.68 v 21.75 h -47.926 v -161.4 h 47.926 c 0,0 0,59.86 0,84.72"
         style="fill:#ffffff;fill-opacity:1;fill-rule:nonzero;stroke:none"
         id="path48" /><path
         d="m 3984.31,3389.97 v 0 c -124.22,0 -224.93,100.7 -224.93,224.92 0,124.22 100.71,224.92 224.93,224.92 124.22,0 224.92,-100.7 224.92,-224.92 0,-124.22 -100.7,-224.92 -224.92,-224.92"
         style="fill:#f3f2f1;fill-opacity:1;fill-rule:nonzero;stroke:none"
         id="path50" /><path
         d="m 4061.89,3629.36 c -42.08,24.98 -112.43,27.61 -152.53,15.12 -6.58,-1.97 -13.16,1.97 -15.13,7.89 -1.97,6.57 1.97,13.15 7.89,15.12 46.68,13.81 123.61,11.18 172.26,-17.75 5.92,-3.29 7.9,-11.18 4.61,-17.1 -3.29,-4.6 -11.18,-6.57 -17.1,-3.28 z m -1.31,-36.82 c -3.29,-4.61 -9.2,-6.58 -13.81,-3.29 -35.5,21.7 -89.42,28.27 -130.84,15.12 -5.27,-1.31 -11.17,1.32 -12.49,6.58 -1.32,5.26 1.32,11.18 6.57,12.49 48,14.46 107.17,7.23 147.94,-17.75 3.94,-1.98 5.92,-8.55 2.63,-13.15 z m -15.78,-36.16 c -2.63,-3.95 -7.23,-5.26 -11.18,-2.64 -30.91,19.07 -69.69,23.01 -115.72,12.49 -4.6,-1.3 -8.54,1.98 -9.86,5.92 -1.32,4.6 1.97,8.55 5.91,9.87 49.98,11.17 93.37,6.57 127.56,-14.47 4.6,-1.97 5.26,-7.23 3.29,-11.17 z m -60.49,190.01 c -72.63,0 -131.5,-58.87 -131.5,-131.5 0,-72.63 58.87,-131.5 131.5,-131.5 72.62,0 131.5,58.87 131.5,131.5 0,72.63 -58.88,131.5 -131.5,131.5"
         style="fill:#ffffff;fill-opacity:1;fill-rule:nonzero;stroke:none"
         id="path52" /><path
         d="m 3719.44,2375.48 v 0 c -122.86,0 -222.46,99.6 -222.46,222.46 0,122.86 99.6,222.46 222.46,222.46 122.87,0 222.46,-99.6 222.46,-222.46 0,-122.86 -99.59,-222.46 -222.46,-222.46"
         style="fill:#dadbd8;fill-opacity:1;fill-rule:nonzero;stroke:none"
         id="path54" /><path
         d="m 3625.1,2549.07 v 41.52 h 38.34 c 6.7,-0.07 11.87,-0.94 15.57,-2.63 6.61,-3.03 9.93,-8.6 9.93,-16.7 0,-9.58 -3.42,-16.06 -10.24,-19.45 -3.76,-1.83 -9.02,-2.74 -15.77,-2.74 z m 0,101.66 h 33.89 c 7.46,0 13.6,-0.81 18.41,-2.43 5.59,-2.33 8.37,-7.12 8.37,-14.37 0,-6.55 -2.11,-11.12 -6.34,-13.69 -4.21,-2.57 -9.7,-3.86 -16.47,-3.86 h -37.86 z m 61.14,-126.6 c 6.76,1.4 12.63,4.01 17.6,7.82 4.4,3.31 8.08,7.39 11.03,12.25 4.62,7.34 6.94,15.61 6.94,24.85 0,8.94 -2.03,16.55 -6.07,22.82 -4.05,6.27 -10.05,10.85 -18,13.74 5.24,2.67 9.19,5.63 11.89,8.87 4.8,5.78 7.22,13.43 7.22,22.94 0,9.23 -2.4,17.16 -7.16,23.78 -7.92,10.77 -21.38,16.3 -40.36,16.59 h -75.3 v -155.78 h 70.2 c 7.91,0 15.25,0.71 22.01,2.12"
         style="fill:#ffffff;fill-opacity:1;fill-rule:nonzero;stroke:none"
         id="path56" /><path
         d="m 3769.7,2608.85 c 4.26,4.38 10.25,6.58 17.98,6.58 7.1,0 13.06,-2.07 17.87,-6.2 4.8,-4.14 7.47,-10.22 8.01,-18.2 h -51.88 c 1.09,7.49 3.77,13.44 8.02,17.82 z m -21.52,-76.57 c 11.72,-9.46 25.25,-14.18 40.58,-14.18 18.57,0 33.02,5.6 43.33,16.8 6.64,7.06 10.36,14 11.17,20.83 h -30.75 c -1.79,-3.38 -3.86,-6.02 -6.2,-7.92 -4.29,-3.53 -9.86,-5.29 -16.72,-5.29 -6.48,0 -12,1.44 -16.6,4.33 -7.57,4.65 -11.58,12.75 -12.05,24.31 h 83.89 c 0.15,9.95 -0.18,17.57 -0.99,22.86 -1.4,9.03 -4.46,16.97 -9.18,23.81 -5.23,7.76 -11.87,13.45 -19.9,17.04 -8.03,3.6 -17.06,5.39 -27.09,5.39 -16.88,0 -30.61,-5.32 -41.2,-15.97 -10.57,-10.64 -15.86,-25.94 -15.86,-45.89 0,-21.3 5.85,-36.67 17.57,-46.12"
         style="fill:#ffffff;fill-opacity:1;fill-rule:nonzero;stroke:none"
         id="path58" /><path
         d="m 3819.55,2668.83 h -67.69 v -15.72 h 67.69 v 15.72"
         style="fill:#ffffff;fill-opacity:1;fill-rule:nonzero;stroke:none"
         id="path60" /><path
         d="m 783.863,2283.68 v 0 c -99.035,0 -179.316,80.29 -179.316,179.33 0,99.03 80.281,179.31 179.316,179.31 99.035,0 179.317,-80.28 179.317,-179.31 0,-99.04 -80.282,-179.33 -179.317,-179.33"
         style="fill:#e7e8e5;fill-opacity:1;fill-rule:nonzero;stroke:none"
         id="path62" /><path
         d="m 810.371,2469.02 c -2.324,5.37 -4.73,10.71 -7.308,16.01 21.996,9.52 39.675,22.46 52.855,38.87 12.848,-15.18 20.918,-34.46 22.109,-55.58 -24.531,4.02 -47.089,4.24 -67.656,0.7 z m 25.902,-84.51 c -4.168,22.41 -10.289,44.32 -18.281,65.7 17.863,2.52 37.535,1.87 59.043,-1.88 -4.16,-26.53 -19.312,-49.46 -40.762,-63.82 z m -52.41,-15.94 c -21.847,0 -41.929,7.52 -57.949,20.03 18.75,29.42 42.703,48.58 72.371,57.41 8.828,-23.05 15.332,-46.76 19.469,-71.06 -10.547,-4.07 -21.938,-6.38 -33.891,-6.38 z m -94.429,94.44 0.125,2.43 c 36.656,0.05 68.281,4.26 94.777,12.6 2.223,-4.52 4.344,-9.07 6.383,-13.65 -32.188,-10.06 -58.715,-30.68 -79.414,-61.72 -13.637,16.37 -21.871,37.4 -21.871,60.34 z m 51.832,84.16 c 12.679,-16.61 23.914,-33.72 33.691,-51.27 -23.16,-6.81 -50.785,-10.31 -82.734,-10.54 6.601,27.01 24.785,49.47 49.043,61.81 z m 42.597,10.26 c 21.672,0 41.61,-7.42 57.567,-19.74 -11.473,-14.8 -27.321,-26.5 -47.5,-35.05 -9.676,17.73 -20.739,35.01 -33.227,51.8 7.418,1.89 15.16,2.99 23.16,2.99 z m 0,19.89 c -63.133,0 -114.312,-51.18 -114.312,-114.32 0,-63.13 51.179,-114.31 114.312,-114.31 63.133,0 114.313,51.18 114.313,114.31 0,63.14 -51.18,114.32 -114.313,114.32"
         style="fill:#ffffff;fill-opacity:1;fill-rule:nonzero;stroke:none"
         id="path64" /><path
         d="m 424.176,3135.54 37.762,-69.04 69.046,-37.77 -69.046,-37.76 -37.762,-69.05 -37.766,69.05 -69.047,37.76 69.047,37.77 37.766,69.04"
         style="fill:#f3f2f1;fill-opacity:1;fill-rule:nonzero;stroke:none"
         id="path66" /><path
         d="m 3208.44,2701.19 28.33,-51.78 51.78,-28.32 -51.78,-28.32 -28.33,-51.79 -28.32,51.79 -51.79,28.32 51.79,28.32 28.32,51.78"
         style="fill:#e7e8e5;fill-opacity:1;fill-rule:nonzero;stroke:none"
         id="path68" /><path
         d="m 3413.42,4337.72 18.87,-34.52 34.54,-18.89 -34.54,-18.88 -18.87,-34.52 -18.89,34.52 -34.52,18.88 34.52,18.89 18.89,34.52"
         style="fill:#f3f2f1;fill-opacity:1;fill-rule:nonzero;stroke:none"
         id="path70" /><path
         d="m 1214.99,2424.47 12.77,-23.37 23.37,-12.78 -23.37,-12.78 -12.77,-23.36 -12.78,23.36 -23.37,12.78 23.37,12.78 12.78,23.37"
         style="fill:#dadbd8;fill-opacity:1;fill-rule:nonzero;stroke:none"
         id="path72" /><path
         d="m 3552.87,3130.52 12.77,-23.36 23.37,-12.78 -23.37,-12.78 -12.77,-23.37 -12.78,23.37 -23.36,12.78 23.36,12.78 12.78,23.36"
         style="fill:#dadbd8;fill-opacity:1;fill-rule:nonzero;stroke:none"
         id="path74" /><path
         d="m 839.453,3904.05 12.777,-23.37 23.364,-12.78 -23.364,-12.77 -12.777,-23.37 -12.781,23.37 -23.367,12.77 23.367,12.78 12.781,23.37"
         style="fill:#dadbd8;fill-opacity:1;fill-rule:nonzero;stroke:none"
         id="path76" /><path
         d="m 3610.38,4117.07 26.68,-48.78 48.78,-26.68 -48.78,-26.68 -26.68,-48.77 -26.67,48.77 -48.78,26.68 48.78,26.68 26.67,48.78"
         style="fill:#dadbd8;fill-opacity:1;fill-rule:nonzero;stroke:none"
         id="path78" /><path
         d="m 3967.89,31.5703 c 0,-1.4492 -855.3,-2.6094 -1910.12,-2.6094 -1055.18,0 -1910.301,1.1602 -1910.301,2.6094 0,1.4414 855.121,2.6016 1910.301,2.6016 1054.82,0 1910.12,-1.1602 1910.12,-2.6016"
         style="fill:#17282f;fill-opacity:1;fill-rule:nonzero;stroke:none"
         id="path80" /><path
         d="m 782.418,470.172 c 20.637,-28.871 60.109,-18.863 78.285,-0.942 18.176,17.93 25.68,43.719 32.504,68.321 15.582,56.199 31.273,115.148 18.734,172.109 -3.75,17.031 -10.293,33.981 -22.406,46.52 -12.113,12.55 -30.617,19.89 -47.437,15.281 -19.895,-5.473 -32.11,-25.121 -40.887,-43.801 -25.816,-54.89 -39.18,-115.59 -38.801,-176.25 0.18,-28.332 3.801,-58 20.008,-81.238"
         style="fill:#f03d5f;fill-opacity:1;fill-rule:nonzero;stroke:none"
         id="path82" /><path
         d="m 860.113,323.672 c 33.125,17.5 72.305,20.109 109.325,14.348 19.886,-3.079 40.652,-8.821 54.302,-23.61 13.66,-14.781 16.47,-41 1.08,-53.969 -9.16,-7.722 -22.03,-9.011 -34.011,-8.992 -28.938,0.071 -61.086,4.852 -84.036,-12.777 -13.093,-10.063 -21.71,-26.66 -37.433,-31.692 -15.379,-4.929 -32.875,4 -41.192,17.852 -8.312,13.84 -8.753,31.238 -5.093,46.969 0,0 3.687,34.238 37.058,51.871"
         style="fill:#f03d5f;fill-opacity:1;fill-rule:nonzero;stroke:none"
         id="path84" /><path
         d="m 726.914,427.922 c 21.856,26.437 25.676,64.738 15.524,97.519 -10.153,32.77 -32.641,60.5 -58.469,83.079 -30.281,26.48 -65.778,46.968 -103.848,59.929 -14.98,5.11 -30.769,9.11 -46.512,7.449 -15.742,-1.648 -31.535,-9.867 -38.746,-23.957 -10.668,-20.832 -0.004,-45.871 11.461,-66.273 20.199,-35.938 43.235,-70.277 68.817,-102.629 20.582,-26 44.117,-51.629 75.211,-63.168 31.093,-11.551 63.265,-9.84 79.484,11.801"
         style="fill:#f03d5f;fill-opacity:1;fill-rule:nonzero;stroke:none"
         id="path86" /><path
         d="m 785.27,31.5703 c 0.378,-0.0312 0.957,4.6914 1.71,13.2188 0.848,9.6328 1.903,21.7109 3.165,36.0898 1.535,15.1914 3.574,33.2691 7.597,52.9731 4.016,19.648 10.387,40.968 18.625,62.597 8.535,21.52 19.016,41.102 31.328,56.789 12.223,15.774 26.508,27.231 39.977,33.903 13.418,6.781 25.48,9.609 33.832,10.879 8.422,0.949 13.133,1.66 13.133,2.039 0,0.382 -4.727,0.39 -13.387,0.07 -8.57,-0.649 -21.148,-2.949 -35.297,-9.551 -14.195,-6.449 -29.351,-18.098 -42.183,-34.199 -12.93,-16.02 -23.793,-36.039 -32.481,-57.938 -8.383,-22.011 -14.652,-43.543 -18.476,-63.621 -3.809,-20.039 -5.465,-38.3083 -6.512,-53.6208 -1,-15.3203 -1.313,-27.7304 -1.438,-36.3008 -0.113,-8.5703 0.035,-13.3203 0.407,-13.3281"
         style="fill:#17282f;fill-opacity:1;fill-rule:nonzero;stroke:none"
         id="path88" /><path
         d="m 787.484,59.3281 c 0.192,0.0117 0.286,2.1211 0.297,6.1407 -0.058,4.6093 -0.125,10.4101 -0.215,17.5312 -0.187,15.2109 -0.394,37.23 0.157,64.422 0.824,54.387 4.781,129.488 13.031,212.078 8.312,82.621 19.668,156.969 30.16,210.328 2.469,13.383 4.973,25.422 7.34,35.961 2.25,10.57 4.168,19.68 6.031,27.051 1.602,6.941 2.903,12.601 3.938,17.082 0.84,3.93 1.191,6.008 1.015,6.058 -0.187,0.051 -0.894,-1.941 -2.082,-5.769 -1.293,-4.422 -2.922,-10 -4.926,-16.84 -2.187,-7.32 -4.414,-16.371 -6.953,-26.902 -2.648,-10.5 -5.425,-22.508 -8.144,-35.867 -11.488,-53.301 -23.477,-127.762 -31.813,-210.551 -8.261,-82.77 -11.613,-158.082 -11.453,-212.59 -0.058,-27.262 0.738,-49.3204 1.578,-64.5313 0.5,-7.1211 0.91,-12.9102 1.239,-17.5078 0.343,-4.0117 0.617,-6.1016 0.8,-6.0938"
         style="fill:#17282f;fill-opacity:1;fill-rule:nonzero;stroke:none"
         id="path90" /><path
         d="m 786.449,204.52 c 0.375,0.019 0.25,6.519 -0.301,18.32 -0.793,11.762 -2.574,28.75 -6.089,49.558 -3.711,20.75 -8.864,45.383 -16.832,72.133 -7.598,26.84 -17.957,55.809 -31.055,85.239 -25.649,59.242 -60.18,107.539 -90.106,137.378 -7.027,7.922 -14.824,13.614 -21.07,19.204 -3.234,2.679 -6.09,5.359 -8.992,7.468 -2.922,1.969 -5.641,3.801 -8.16,5.5 -9.817,6.59 -15.313,10.039 -15.508,9.731 -0.867,-1.199 21.98,-14.36 50.965,-44.602 28.867,-30.179 62.445,-78.148 87.887,-136.89 12.988,-29.18 23.414,-57.879 31.214,-84.457 8.184,-26.481 13.688,-50.872 17.864,-71.403 3.976,-20.59 6.332,-37.41 7.765,-49.058 1.199,-11.672 2.043,-18.129 2.418,-18.121"
         style="fill:#17282f;fill-opacity:1;fill-rule:nonzero;stroke:none"
         id="path92" /><path
         d="m 3347.76,606.52 c 24.1,-17.258 38.37,-46.032 42.32,-75.418 3.94,-29.383 -1.57,-59.364 -11.04,-87.461 -18.3,-54.36 -62.06,-103.789 -105.73,-140.981 -38.11,51.051 -33.53,124.801 -28.87,162.059 7.39,58.91 56.5,160.89 103.32,141.801"
         style="fill:#33535f;fill-opacity:1;fill-rule:nonzero;stroke:none"
         id="path94" /><path
         d="m 3310.77,192.391 c -3.12,32.968 15.07,66.089 42.62,84.461 27.56,18.378 63.06,22.808 95.41,15.707 14.95,-3.289 30.67,-9.989 37.58,-23.661 6.45,-12.769 3.27,-28.878 -5.07,-40.519 -8.33,-11.641 -21.02,-19.438 -34.08,-25.289 -44.81,-20.051 -91.86,-31.219 -136.46,-10.699"
         style="fill:#33535f;fill-opacity:1;fill-rule:nonzero;stroke:none"
         id="path96" /><path
         d="m 3213.49,41.2383 c -0.4,0.1836 1,4.2422 3.9,11.4023 2.91,7.168 7.32,17.461 13.16,30 11.74,24.9374 29.03,59.6914 56.75,92.2384 27.8,32.57 61.97,53.512 88.72,61.75 13.34,4.269 24.59,6.051 32.38,6.449 7.79,0.453 12.09,0.063 12.09,-0.308 0.14,-1.309 -17.33,-0.981 -42.98,-10.43 -25.62,-9.11 -58.24,-29.93 -85.33,-61.649 -27.08,-31.769 -44.82,-65.722 -57.56,-90.0621 -12.6,-24.5 -20.27,-39.8008 -21.13,-39.3906"
         style="fill:#17282f;fill-opacity:1;fill-rule:nonzero;stroke:none"
         id="path98" /><path
         d="m 3319.15,524.531 c 0.44,-0.082 -0.4,-7.109 -2.29,-19.75 -1.89,-12.64 -4.93,-30.89 -8.91,-53.39 -7.96,-45 -19.97,-106.981 -34.92,-175.09 -14.98,-68.129 -30.05,-129.461 -41.68,-173.653 -5.81,-22.0972 -10.71,-39.9292 -14.3,-52.1871 -3.57,-12.2812 -5.75,-19.0117 -6.18,-18.8906 -0.43,0.1094 0.93,7.0508 3.76,19.5117 3.16,13.5391 7.3,31.2696 12.3,52.668 10.5,44.441 24.86,105.871 39.82,173.922 14.93,68.047 27.64,129.828 36.74,174.566 4.43,21.532 8.1,39.371 10.9,52.992 2.65,12.5 4.33,19.379 4.76,19.301"
         style="fill:#17282f;fill-opacity:1;fill-rule:nonzero;stroke:none"
         id="path100" /><path
         d="m 3217.69,181.16 c 5.31,69.61 -25.49,141.008 -79.78,184.91 -13.83,11.168 -33.04,20.899 -48.62,12.348 -15.61,-8.578 -17.69,-30.129 -15.24,-47.77 10.19,-73.398 69.16,-137.507 141.45,-153.789"
         style="fill:#33535f;fill-opacity:1;fill-rule:nonzero;stroke:none"
         id="path102" /><path
         d="m 3131.13,312.711 c 0.28,0.348 3.66,-1.941 9.58,-6.441 3.01,-2.2 6.58,-5.032 10.35,-8.731 3.83,-3.648 8.45,-7.559 12.75,-12.66 9.19,-9.668 18.81,-22.399 28.08,-37.43 8.96,-15.211 17.38,-32.808 23.74,-52.199 6.12,-19.48 9.54,-38.699 11.11,-56.281 1.2,-17.617 0.8,-33.571 -1.05,-46.7893 -0.52,-6.6484 -2,-12.5117 -2.99,-17.6992 -0.9,-5.2188 -2.16,-9.5899 -3.33,-13.1289 -2.19,-7.1016 -3.61,-10.9414 -4.03,-10.8203 -1.22,0.3398 3.61,16.0468 5.83,42.1171 1.24,13.0236 1.16,28.6326 -0.33,45.7926 -1.87,17.149 -5.36,35.84 -11.33,54.848 -6.21,18.902 -14.25,36.133 -22.71,51.16 -8.79,14.821 -17.82,27.563 -26.4,37.422 -16.98,19.899 -30.06,29.867 -29.27,30.84"
         style="fill:#17282f;fill-opacity:1;fill-rule:nonzero;stroke:none"
         id="path104" /><path
         d="m 2698.52,2309.68 c -11.79,35.29 -63.65,48.73 -91.1,23.62 l -10.97,-13.78 c -18.31,-32.38 6.42,-79.9 43.46,-83.47 37.03,-3.57 70.39,38.34 58.61,73.63"
         style="fill:#f03d5f;fill-opacity:1;fill-rule:nonzero;stroke:none"
         id="path106" /><path
         d="m 2644.27,2232.08 c -1.57,0 -3.16,0.07 -4.75,0.23 -39.56,3.82 -65.98,54.56 -46.41,89.15 l 11.71,14.71 c 10.34,9.47 23.92,13.8 37.72,13.8 25.34,0 51.42,-14.62 59.58,-39.03 12.08,-36.17 -20.25,-78.86 -57.85,-78.86 m -1.53,114.13 c -12.93,0 -25.64,-4.06 -35.32,-12.91 l -10.97,-13.78 c -18.31,-32.38 6.42,-79.9 43.46,-83.47 1.49,-0.14 2.98,-0.21 4.45,-0.21 35.19,0 65.47,39.97 54.16,73.84 -7.63,22.84 -32.06,36.53 -55.78,36.53"
         style="fill:#ffffff;fill-opacity:1;fill-rule:nonzero;stroke:none"
         id="path108" /><path
         d="m 2644.36,2235.84 c -1.47,0 -2.96,0.07 -4.45,0.21 -37.04,3.57 -61.77,51.09 -43.46,83.47 l 10.97,13.78 c 9.68,8.85 22.39,12.91 35.32,12.91 23.72,0 48.15,-13.69 55.78,-36.53 11.31,-33.87 -18.97,-73.84 -54.16,-73.84"
         style="fill:#f9b2c4;fill-opacity:1;fill-rule:nonzero;stroke:none"
         id="path110" /><path
         d="m 2906.23,2585.49 c -20.26,60.67 -109.42,83.8 -156.62,40.61 l -18.86,-23.69 c -31.49,-55.68 11.03,-137.38 74.71,-143.52 63.68,-6.15 121.04,65.92 100.77,126.6"
         style="fill:#f03d5f;fill-opacity:1;fill-rule:nonzero;stroke:none"
         id="path112" /><path
         d="m 2813.05,2456.1 c -2.6,0 -5.22,0.12 -7.86,0.38 -65.42,6.3 -109.13,90.08 -76.76,147.18 l 19.37,24.3 c 17.11,15.61 39.56,22.77 62.39,22.77 41.91,0 85.07,-24.14 98.55,-64.42 19.98,-59.73 -33.5,-130.21 -95.69,-130.21 m -2.72,192.21 c -22.22,0 -44.08,-6.98 -60.72,-22.21 l -18.86,-23.69 c -31.49,-55.68 11.03,-137.38 74.71,-143.52 2.56,-0.25 5.11,-0.37 7.65,-0.37 60.52,0 112.58,68.73 93.12,126.97 -13.12,39.28 -55.11,62.82 -95.9,62.82"
         style="fill:#ffffff;fill-opacity:1;fill-rule:nonzero;stroke:none"
         id="path114" /><path
         d="m 2813.11,2458.52 c -2.54,0 -5.09,0.12 -7.65,0.37 -63.68,6.14 -106.2,87.84 -74.71,143.52 l 18.86,23.69 c 16.64,15.23 38.5,22.21 60.72,22.21 40.79,0 82.78,-23.54 95.9,-62.82 19.46,-58.24 -32.6,-126.97 -93.12,-126.97"
         style="fill:#f9b2c4;fill-opacity:1;fill-rule:nonzero;stroke:none"
         id="path116" /><path
         d="m 2408.38,4496.59 c -180.16,94.79 -443.74,2.17 -553.64,-192.33 -160.08,68.78 -355,49.05 -498.05,-50.4 -143.05,-99.44 -229.44,-275.28 -220.75,-449.28 -212.233,-80.11 -370.573,-287.39 -392.034,-513.22 -21.465,-225.83 94.989,-459.24 288.334,-577.9 193.34,-118.65 454.18,-116.79 645.81,4.6 67.12,-209.06 315.77,-326.72 530.92,-282.89 215.16,43.83 387,220.98 466.76,425.55 191.8,-105.29 456.7,-25.01 574.54,159.33 117.85,184.35 88.61,443.52 -52.02,611.14 -22.67,27.04 -48.69,53.47 -57.69,87.58 -10.86,41.16 5.32,83.88 16.61,124.91 54.71,198.83 -13.78,426.24 -169.21,561.77 -155.44,135.52 -390.06,172.41 -579.58,91.14"
         style="fill:#f03d5f;fill-opacity:1;fill-rule:nonzero;stroke:none"
         id="path118" /><path
         d="m 2113.31,2412.53 c -191.96,0 -386.48,113.15 -444.96,294.48 -98.38,-62.04 -214.74,-93.12 -331.11,-93.12 -113.26,0 -226.54,29.47 -323.15,88.49 -195.871,119.66 -313.852,355.05 -292.11,582.8 21.747,227.75 182.161,436.8 397.17,517.59 -8.81,175.48 78.72,352.81 223.64,453.1 90.41,62.58 203.04,96.73 314.37,96.73 67.11,0 133.75,-12.42 194.74,-38.51 80.35,141.54 239.37,225.73 390.26,225.73 58.23,0 115.26,-12.54 166.08,-39.16 68.03,29.04 141.78,43.12 215.68,43.12 134.67,0 269.81,-46.78 371.48,-135.04 157.46,-136.67 226.87,-366.02 171.44,-566.54 -11.45,-41.38 -27.85,-84.47 -16.84,-125.97 9.12,-34.4 35.48,-61.06 58.46,-88.32 142.46,-169.05 172.1,-430.42 52.7,-616.34 -83.1,-129.4 -238.36,-207.96 -390.6,-207.95 -66.48,0 -132.41,14.99 -191.47,47.26 -80.8,-206.31 -254.89,-384.96 -472.87,-429.16 -30.5,-6.19 -61.67,-9.19 -92.91,-9.19 m -435.26,305.53 c 57.72,-179.8 249.72,-291.99 439.21,-291.99 30.83,0 61.6,2.97 91.71,9.1 215.16,43.83 387,220.98 466.76,425.55 58.3,-32 123.38,-46.86 189,-46.87 150.27,-0.01 303.52,77.89 385.54,206.2 117.85,184.35 88.61,443.52 -52.02,611.14 -22.67,27.04 -48.69,53.47 -57.69,87.58 -10.86,41.16 5.32,83.88 16.61,124.91 54.71,198.83 -13.78,426.24 -169.21,561.77 -100.37,87.51 -233.76,133.89 -366.69,133.89 -72.95,0 -145.74,-13.96 -212.89,-42.75 -48.55,25.54 -103.16,37.48 -159.18,37.48 -151.88,0 -314.17,-87.72 -394.46,-229.81 -63.44,27.26 -132.38,40.62 -201.36,40.62 -105.09,0 -210.33,-30.98 -296.69,-91.02 -143.05,-99.44 -229.44,-275.28 -220.75,-449.28 -212.233,-80.11 -370.573,-287.39 -392.034,-513.22 -21.465,-225.83 94.989,-459.24 288.334,-577.9 95.36,-58.52 207.17,-87.73 318.97,-87.73 114.87,0 229.72,30.81 326.84,92.33"
         style="fill:#ffffff;fill-opacity:1;fill-rule:nonzero;stroke:none"
         id="path120" /><path
         d="m 2117.26,2426.07 c -189.49,0 -381.49,112.19 -439.21,291.99 -97.12,-61.52 -211.97,-92.33 -326.84,-92.33 -111.8,0 -223.61,29.21 -318.97,87.73 -193.345,118.66 -309.799,352.07 -288.334,577.9 21.461,225.83 179.801,433.11 392.034,513.22 -8.69,174 77.7,349.84 220.75,449.28 86.36,60.04 191.6,91.02 296.69,91.02 68.98,0 137.92,-13.36 201.36,-40.62 80.29,142.09 242.58,229.81 394.46,229.81 56.02,0 110.63,-11.94 159.18,-37.48 67.15,28.79 139.94,42.75 212.89,42.75 132.93,0 266.32,-46.38 366.69,-133.89 155.43,-135.53 223.92,-362.94 169.21,-561.77 -11.29,-41.03 -27.47,-83.75 -16.61,-124.91 9,-34.11 35.02,-60.54 57.69,-87.58 140.63,-167.62 169.87,-426.79 52.02,-611.14 -82.02,-128.31 -235.27,-206.21 -385.54,-206.2 -65.62,0.01 -130.7,14.87 -189,46.87 -79.76,-204.57 -251.6,-381.72 -466.76,-425.55 -30.11,-6.13 -60.88,-9.1 -91.71,-9.1 m -28.23,1480.07 c -234.1,0 -423.87,-189.78 -423.87,-423.89 0,-169.49 99.51,-315.69 243.26,-383.5 0,-50.23 0,-106.94 0,-106.94 h 371.52 c 0,0 2.25,60.01 3.08,113.59 136.5,70.41 229.9,212.68 229.9,376.85 0,234.11 -189.78,423.89 -423.89,423.89"
         style="fill:#f9b2c4;fill-opacity:1;fill-rule:nonzero;stroke:none"
         id="path122" /><path
         d="m 2512.92,3482.25 c 0,234.11 -189.78,423.89 -423.89,423.89 -234.1,0 -423.87,-189.78 -423.87,-423.89 0,-169.49 99.51,-315.69 243.26,-383.5 0,-50.23 0,-106.94 0,-106.94 h 371.52 c 0,0 2.25,60.01 3.08,113.59 136.5,70.41 229.9,212.68 229.9,376.85"
         style="fill:#f03d5f;fill-opacity:1;fill-rule:nonzero;stroke:none"
         id="path124" /><path
         d="m 2145.6,2993.57 c 0,0 0.04,1.78 0.41,5.23 0.42,3.65 0.99,8.73 1.73,15.29 1.64,13.43 4.03,33.23 7.78,58.66 3.76,25.41 8.76,56.5 16.85,92.14 8.25,35.54 19.5,75.9 38.47,117.96 9.49,21.01 20.48,42.53 34.85,63.43 7.4,10.23 16.63,20.19 28.99,26.03 12.32,5.9 27.75,5.9 40.24,-1.32 6.18,-3.57 11.43,-9.59 13.42,-16.77 2.25,-7.07 1.52,-15.12 -1.77,-21.75 -6.55,-13.41 -19.04,-22.75 -32.74,-28.21 -27.99,-9.8 -60.25,-7.34 -88.12,6.23 -27.97,13.55 -50.31,39.65 -59.85,70.72 -4.58,15.44 -7.07,32.36 -2.51,48.9 4,16.44 19.99,31.15 38.51,29.46 9.19,-0.68 17.52,-6.96 21.59,-14.95 4.24,-7.96 5.33,-17.38 3.4,-26.14 -4.09,-17.68 -16.85,-30.91 -29.8,-42.12 -26.71,-22.08 -63.1,-34.34 -98.81,-28.66 -35.46,5.67 -67.3,29.11 -81.96,61.1 -7.69,15.73 -9.53,34.82 -2.87,51.34 3.35,8.16 9.82,15.77 18.59,18.75 8.64,3.33 18.4,1.76 26.1,-2.4 7.79,-4.11 14.11,-10.88 17.89,-18.6 3.93,-7.7 5.75,-16.13 6.47,-24.42 1.2,-16.61 -1.17,-33.11 -6.44,-48.44 -10.34,-30.73 -32.28,-56.66 -59.75,-71.09 -27.35,-14.6 -59.12,-18.45 -87.72,-12.06 -14.12,3.12 -28.56,8.77 -38.15,20.24 -9.38,11.2 -12.03,28.93 -2.36,40.83 4.81,5.72 12.04,8.78 19.05,9.31 7.05,0.5 14.05,-0.92 20.22,-3.93 12.59,-6.21 20.27,-17.88 25.95,-29.08 10.65,-22.99 19.21,-45.33 27.86,-66.66 33.9,-85.43 57.95,-155.83 74.06,-204.61 8.05,-24.39 13.99,-43.44 17.98,-56.36 1.89,-6.31 3.36,-11.22 4.41,-14.74 0.97,-3.32 1.34,-5.07 1.34,-5.07 0,0 -0.71,1.63 -1.84,4.91 -1.18,3.49 -2.81,8.33 -4.91,14.58 -4.39,13.02 -10.75,31.87 -18.9,56.04 -16.69,48.55 -41.26,118.72 -75.56,203.88 -8.71,21.16 -17.5,43.76 -28.03,66.21 -5.51,10.85 -12.99,21.74 -24.16,27.14 -10.84,5.33 -26.03,5.3 -34.15,-4.39 -7.98,-9.62 -5.91,-25.41 2.46,-35.21 8.55,-10.24 22.07,-15.67 35.73,-18.62 27.52,-6.08 58.19,-2.28 84.46,11.83 26.34,13.9 47.39,38.85 57.3,68.45 5.05,14.72 7.28,30.66 6.12,46.41 -1.13,15.49 -7.62,31.7 -21.72,38.94 -6.76,3.62 -14.88,4.85 -21.96,2.09 -7.19,-2.45 -12.58,-8.67 -15.59,-15.92 -5.92,-14.83 -4.46,-32.4 2.83,-47.19 13.83,-30.26 44.35,-52.77 78.07,-58.12 33.98,-5.43 69.01,6.29 94.68,27.51 12.54,10.76 24.55,23.59 28.08,39.23 1.7,7.63 0.71,15.85 -2.89,22.62 -3.51,6.79 -10.1,11.71 -17.57,12.29 -7.43,0.74 -15.17,-2.06 -21.08,-6.8 -5.99,-4.69 -9.96,-11.57 -12.09,-18.98 -4.2,-14.96 -1.97,-31.26 2.42,-46.03 9.1,-29.79 30.49,-54.88 57.22,-67.89 26.58,-13.1 57.97,-15.45 84.34,-6.27 12.83,5.02 24.6,13.98 30.36,25.82 6.13,11.77 1.39,26.83 -9.83,32.95 -10.93,6.42 -25.16,6.57 -36.25,1.24 -11.41,-5.32 -20.27,-14.68 -27.5,-24.62 -14.14,-20.35 -25.27,-41.83 -34.76,-62.58 -19.03,-41.65 -30.49,-81.74 -38.99,-117.1 -8.33,-35.47 -13.61,-66.45 -17.68,-91.79 -3.77,-25.23 -6.71,-44.89 -8.73,-58.49 -0.97,-6.53 -1.72,-11.58 -2.26,-15.22 -0.52,-3.42 -0.93,-5.16 -0.93,-5.16"
         style="fill:#17282f;fill-opacity:1;fill-rule:nonzero;stroke:none"
         id="path126" /><path
         d="m 2255.54,2923.02 h -327.37 c -10.9,0 -19.75,8.85 -19.75,19.76 v 8.37 c 0,10.91 8.85,19.76 19.75,19.76 h 327.37 c 10.91,0 19.74,-8.85 19.74,-19.76 v -8.37 c 0,-10.91 -8.83,-19.76 -19.74,-19.76"
         style="fill:#17282f;fill-opacity:1;fill-rule:nonzero;stroke:none"
         id="path128" /><path
         d="m 2251.35,2902.12 h -318.99 c -13.22,0 -23.94,-10.72 -23.94,-23.94 0,-13.22 10.72,-23.94 23.94,-23.94 h 35.01 l 46.46,-88.41 c 5.32,-10.12 15.8,-16.45 27.22,-16.45 h 113.98 c 11.54,0 22.11,6.46 27.37,16.73 l 45.14,88.13 h 23.81 c 13.22,0 23.93,10.72 23.93,23.94 0,13.22 -10.71,23.94 -23.93,23.94"
         style="fill:#17282f;fill-opacity:1;fill-rule:nonzero;stroke:none"
         id="path130" /><path
         d="m 1770.12,3346.71 c -3.49,0 -10.01,6.04 -18.14,17.97 -9.11,13.28 -19.48,34.33 -27.66,62.14 -8.24,27.76 -13.4,62.5 -11.7,101.26 1.62,38.69 10.8,81.35 29.67,122.54 19.28,40.99 45.93,75.52 74.43,101.73 28.51,26.31 58.37,44.79 84.89,56.42 26.52,11.71 49.3,17.37 65.32,18.99 4.42,0.45 8.31,0.67 11.64,0.67 8.8,0 13.75,-1.49 14.31,-3.93 1.84,-7.7 -30.29,-19.11 -73.59,-48.03 -43.12,-28.3 -97.17,-77.81 -129.76,-147.77 -32.42,-70.09 -35.35,-143.34 -29.13,-194.54 5.86,-51.74 17.89,-83.63 10.82,-87.19 -0.32,-0.17 -0.69,-0.26 -1.1,-0.26"
         style="fill:#f2577a;fill-opacity:1;fill-rule:nonzero;stroke:none"
         id="path132" /><path
         d="m 2094.99,3806.21 c -0.06,0 -0.11,0 -0.17,0 -26.87,0.25 -50.57,7.59 -53.33,21.82 -1.18,7.05 3.79,14.58 13.5,20.44 9.55,5.82 23.78,9.82 39.66,9.82 0.15,0 0.29,0 0.44,-0.01 16.05,-0.09 30.41,-4.25 40,-10.22 9.64,-5.97 14.54,-13.54 13.28,-20.58 -2.9,-14.17 -26.58,-21.27 -53.38,-21.27"
         style="fill:#f2577a;fill-opacity:1;fill-rule:nonzero;stroke:none"
         id="path134" /><path
         d="m 2176.46,2758.56 c -0.38,-0.79 -8.39,2.87 -21.91,6.75 -13.49,3.9 -32.72,7.38 -54.11,6.81 -21.4,-0.66 -40.4,-5.26 -53.64,-9.94 -13.27,-4.64 -21.06,-8.76 -21.48,-8 -0.3,0.48 6.91,5.79 20.16,11.45 13.2,5.67 32.72,11.02 54.8,11.7 22.08,0.6 41.89,-3.61 55.38,-8.52 13.57,-4.88 21.07,-9.76 20.8,-10.25"
         style="fill:#33535f;fill-opacity:1;fill-rule:nonzero;stroke:none"
         id="path136" /><path
         d="m 2228.22,2853.16 c 0,-1.44 -57.66,-2.61 -128.79,-2.61 -71.14,0 -128.8,1.17 -128.8,2.61 0,1.44 57.66,2.6 128.8,2.6 71.13,0 128.79,-1.16 128.79,-2.6"
         style="fill:#33535f;fill-opacity:1;fill-rule:nonzero;stroke:none"
         id="path138" /><path
         d="m 2208.26,2815.32 c 0.04,-0.7 -11.96,-1.97 -31.4,-3.19 -19.46,-1.22 -46.35,-2.34 -76.08,-2.76 -29.74,-0.42 -56.66,-0.07 -76.13,0.61 -19.47,0.67 -31.5,1.6 -31.49,2.31 0.02,0.73 12.07,1.1 31.53,1.37 21.02,0.25 47.14,0.57 76.01,0.91 28.88,0.47 54.98,0.9 76.01,1.24 19.46,0.28 31.51,0.25 31.55,-0.49"
         style="fill:#33535f;fill-opacity:1;fill-rule:nonzero;stroke:none"
         id="path140" /><path
         d="m 2549.44,3804.28 v 0 c -77.84,0 -140.95,63.11 -140.95,140.96 0,77.85 63.11,140.96 140.95,140.96 77.85,0 140.97,-63.11 140.97,-140.96 0,-77.85 -63.12,-140.96 -140.97,-140.96"
         style="fill:#33535f;fill-opacity:1;fill-rule:nonzero;stroke:none"
         id="path142" /><path
         d="m 2550.85,3883.9 c -12.97,0 -25.02,3.84 -35.11,10.48 l -24.52,-7.81 7.96,23.52 c -7.65,10.45 -12.16,23.28 -12.16,37.14 0,2.06 0.11,4.12 0.32,6.15 3.13,32.05 30.42,57.18 63.51,57.18 33.51,0 61.05,-25.77 63.61,-58.39 0.15,-1.64 0.22,-3.27 0.22,-4.94 0,-34.94 -28.65,-63.33 -63.83,-63.33 z m 75.88,65.25 c -1.04,40.73 -34.58,73.42 -75.88,73.42 -40.8,0 -74.06,-31.95 -75.84,-72.04 -0.04,-1.1 -0.07,-2.2 -0.07,-3.3 0,-14.25 3.98,-27.55 10.87,-38.92 l -13.68,-40.41 42.04,13.37 c 10.88,-5.98 23.39,-9.39 36.68,-9.39 41.94,0 75.92,33.73 75.92,75.35 l -0.04,1.92"
         style="fill:#ffffff;fill-opacity:1;fill-rule:evenodd;stroke:none"
         id="path144" /><path
         d="m 2585.64,3932.02 c -1.88,0.92 -11.01,5.4 -12.72,6 -1.71,0.64 -2.95,0.93 -4.19,-0.92 -1.25,-1.85 -4.83,-6.01 -5.9,-7.21 -1.1,-1.25 -2.17,-1.39 -4.05,-0.47 -1.85,0.93 -7.85,2.85 -14.96,9.17 -5.51,4.87 -9.28,10.91 -10.34,12.76 -1.08,1.85 -0.11,2.84 0.81,3.77 0.86,0.85 1.85,2.17 2.81,3.23 l 0.67,0.89 1.18,2.2 c 0.64,1.25 0.32,2.31 -0.14,3.24 -0.47,0.92 -4.2,10.02 -5.76,13.71 -1.54,3.7 -3.1,3.06 -4.2,3.06 -1.07,0 -2.31,0.18 -3.55,0.18 -1.25,0 -3.27,-0.46 -4.98,-2.31 -1.7,-1.85 -6.5,-6.32 -6.5,-15.43 0,-2.12 0.39,-4.26 0.96,-6.28 1.88,-6.51 5.93,-11.88 6.65,-12.8 0.91,-1.21 12.86,-20.47 31.76,-27.9 18.95,-7.35 18.95,-4.9 22.37,-4.58 3.4,0.28 11.01,4.44 12.54,8.78 1.56,4.3 1.56,8 1.1,8.78 -0.46,0.74 -1.71,1.2 -3.56,2.13"
         style="fill:#ffffff;fill-opacity:1;fill-rule:evenodd;stroke:none"
         id="path146" /><path
         d="m 1671.55,3380.78 c 0,0 -2.73,-1.3 -8.14,-3.6 -5.54,-2.34 -13.55,-5.72 -24.03,-10.14 -21.11,-8.93 -52.17,-22.33 -91.73,-40.51 -39.52,-18.26 -87.58,-41.3 -142.04,-70.58 -54.23,-29.53 -115.85,-64.24 -177.59,-111.48 -15.31,-11.92 -30.59,-24.7 -44.68,-39.25 -6.9,-7.37 -13.87,-14.91 -19.6,-23.43 -5.75,-8.38 -11.15,-17.52 -13.02,-27.57 -2.37,-10.01 1.15,-20.29 7.19,-28.75 6.27,-8.34 14.86,-15.06 24.39,-20.22 19.13,-10.36 40.96,-16.37 63.25,-20.72 44.79,-8.48 92.24,-10.61 140.88,-10.5 48.7,0.21 98.8,3.14 150.02,7.76 204.91,19.13 427.64,63.43 657.08,124.55 229.31,61.84 444.37,134.97 631.31,221.12 46.64,21.68 91.43,44.34 133.65,68.62 42.08,24.4 82.01,50.15 116.16,80.34 16.82,15.19 32.6,31.55 42.99,50.64 5.18,9.47 8.59,19.85 8.62,30.26 -0.05,10.43 -4.31,20.28 -11.49,27.55 -14.67,14.6 -35.16,21.43 -54.51,26.49 -19.61,4.96 -39.33,7.75 -58.63,9.72 -38.64,3.82 -75.75,4.07 -110.77,3.56 -35.03,-0.63 -68.06,-2.43 -98.89,-4.65 -61.67,-4.49 -114.62,-10.48 -157.82,-15.85 -43.2,-5.4 -76.67,-10.24 -99.36,-13.51 -11.25,-1.65 -19.85,-2.91 -25.81,-3.78 -5.82,-0.83 -8.81,-1.12 -8.81,-1.12 0,0 2.94,0.65 8.74,1.65 5.92,0.98 14.51,2.42 25.72,4.29 22.65,3.61 56.07,8.77 99.27,14.48 43.18,5.68 96.14,11.97 157.86,16.74 30.86,2.37 63.92,4.31 99.04,5.06 35.1,0.65 72.31,0.52 111.19,-3.21 19.43,-1.92 39.31,-4.67 59.23,-9.65 19.65,-5.14 40.59,-11.82 56.45,-27.44 7.79,-7.77 12.67,-18.97 12.69,-30.3 -0.01,-11.37 -3.68,-22.39 -9.04,-32.25 -10.78,-19.88 -26.79,-36.46 -43.79,-51.89 -34.48,-30.61 -74.55,-56.53 -116.76,-81.09 -42.32,-24.44 -87.2,-47.23 -133.91,-69.02 -187.2,-86.55 -402.43,-159.88 -631.99,-221.79 -229.67,-61.19 -452.65,-105.39 -658,-124.3 -51.32,-4.56 -101.55,-7.43 -150.42,-7.55 -48.83,-0.03 -96.47,2.18 -141.73,10.83 -22.53,4.46 -44.67,10.55 -64.45,21.31 -9.84,5.37 -18.92,12.42 -25.68,21.46 -3.2,4.63 -5.85,9.68 -7.37,15.11 -0.58,2.76 -0.95,5.64 -1.23,8.44 0.26,2.79 0.3,5.63 0.79,8.36 2.1,11 7.79,20.42 13.73,29.07 5.94,8.76 13.03,16.4 20.06,23.87 14.33,14.7 29.76,27.52 45.19,39.47 62.21,47.3 124.03,81.8 178.47,111.14 54.67,29.07 102.9,51.87 142.58,69.86 39.72,17.91 70.91,31.01 92.17,39.63 10.56,4.21 18.65,7.43 24.23,9.66 5.48,2.14 8.34,3.11 8.34,3.11"
         style="fill:#17282f;fill-opacity:1;fill-rule:nonzero;stroke:none"
         id="path148" /><path
         d="m 1891.85,3865.17 c 0,0 -2.32,-0.12 -6.84,-0.12 -4.69,0.04 -11.36,0.09 -20.06,0.16 -17.81,0.25 -43.75,0.63 -77.12,1.11 -66.88,0.82 -164.12,5.15 -283.1,-8.31 -29.64,-3.65 -60.68,-8.31 -92.16,-16.61 -15.71,-4.15 -31.53,-9.34 -46.71,-16.51 -7.51,-3.69 -14.89,-7.87 -21.49,-13.12 -6.54,-5.22 -12.32,-11.7 -15.2,-19.46 -3.14,-7.72 -1.91,-16.5 1.36,-24.25 3.11,-8.01 9.16,-14.72 15.07,-21.29 12.72,-12.58 27.94,-23.07 44.02,-32.46 32.29,-18.68 67.8,-33.96 104.79,-47.74 74.08,-27.54 154.36,-49.46 238.25,-68.61 83.94,-19.07 171.74,-34.9 262.12,-47.84 180.8,-25.65 354.97,-38.26 513.13,-34.24 78.9,2.58 154.45,8.19 222.23,26.42 16.83,4.74 33.11,10.58 47.78,18.62 7.4,3.93 14,8.9 19.88,14.41 5.37,5.94 9.64,12.76 10.85,20.4 1.08,7.56 -1.68,15.18 -5.7,21.72 -4.19,6.52 -9.48,12.28 -15.08,17.59 -11.39,10.47 -24.1,19.03 -36.79,26.79 -51.41,30.35 -102.48,49.41 -147.06,65.58 -44.79,15.87 -84.05,27.63 -116.24,36.79 -32.2,9.12 -57.38,15.61 -74.46,19.96 -8.43,2.14 -14.89,3.78 -19.44,4.93 -4.38,1.13 -6.59,1.84 -6.59,1.84 0,0 2.29,-0.36 6.71,-1.32 4.57,-1.04 11.09,-2.51 19.56,-4.43 17.17,-4.02 42.45,-10.2 74.77,-19.03 32.29,-8.87 71.68,-20.36 116.66,-35.99 44.79,-15.96 96.01,-34.77 148,-65.18 12.85,-7.8 25.75,-16.39 37.51,-27.11 5.78,-5.44 11.3,-11.4 15.79,-18.35 4.32,-6.95 7.56,-15.48 6.35,-24.32 -1.34,-8.73 -6.12,-16.32 -11.9,-22.72 -6.24,-5.91 -13.17,-11.12 -20.78,-15.2 -15.11,-8.34 -31.63,-14.28 -48.64,-19.14 -68.45,-18.58 -144.14,-24.32 -223.26,-27.06 -158.55,-4.29 -332.96,8.19 -514.02,33.88 -90.51,12.96 -178.43,28.86 -262.51,48.03 -84.04,19.25 -164.46,41.31 -238.8,69.09 -37.13,13.9 -72.79,29.31 -105.44,48.28 -16.25,9.55 -31.71,20.21 -44.87,33.29 -6.16,6.88 -12.47,13.88 -15.93,22.69 -3.6,8.47 -4.97,18.67 -1.37,27.46 3.31,8.83 9.69,15.8 16.6,21.29 6.97,5.51 14.61,9.79 22.34,13.57 15.57,7.29 31.6,12.48 47.48,16.63 31.81,8.27 63,12.83 92.77,16.38 119.4,13.03 216.7,8.11 283.55,6.67 33.36,-0.9 59.3,-1.6 77.11,-2.08 8.69,-0.3 15.36,-0.52 20.05,-0.68 4.52,-0.18 6.83,-0.41 6.83,-0.41"
         style="fill:#17282f;fill-opacity:1;fill-rule:nonzero;stroke:none"
         id="path150" /><path
         d="m 1122.29,2821.58 v 0 c -97.87,39.99 -144.79,151.76 -104.8,249.64 40,97.87 151.77,144.79 249.64,104.79 97.87,-39.99 144.79,-151.75 104.8,-249.63 -40,-97.88 -151.76,-144.8 -249.64,-104.8"
         style="fill:#f03d5f;fill-opacity:1;fill-rule:nonzero;stroke:none"
         id="path152" /><path
         d="m 1091.97,2996.07 16.38,35.26 32.57,-15.13 c 5.66,-2.7 9.71,-5.48 12.18,-8.38 4.42,-5.18 5.03,-11.21 1.84,-18.09 -3.78,-8.14 -9.24,-12.3 -16.37,-12.48 -3.91,-0.08 -8.75,1.23 -14.47,3.89 z m 40.11,86.33 28.78,-13.37 c 6.34,-2.94 11.23,-6.05 14.68,-9.33 3.82,-4.18 4.3,-9.35 1.44,-15.51 -2.59,-5.56 -6.18,-8.6 -10.78,-9.12 -4.59,-0.52 -9.76,0.55 -15.52,3.22 l -32.15,14.94 z m 1.97,-131.64 c 6.3,-1.48 12.31,-1.58 18.03,-0.3 5.05,1.07 9.79,3.09 14.21,6.05 6.82,4.41 12.04,10.52 15.69,18.37 3.53,7.59 4.81,14.85 3.85,21.77 -0.96,6.92 -4.25,13.18 -9.86,18.77 5.5,0.21 10.03,1.15 13.6,2.85 6.35,3 11.42,8.55 15.18,16.63 3.63,7.84 4.74,15.51 3.3,23.02 -2.47,12.27 -11.72,22.28 -27.73,30.01 l -63.95,29.71 -61.46,-132.29 59.61,-27.7 c 6.72,-3.12 13.24,-5.42 19.53,-6.89"
         style="fill:#ffffff;fill-opacity:1;fill-rule:nonzero;stroke:none"
         id="path154" /><path
         d="m 1238.36,2989.78 c 5.35,2.04 11.3,1.55 17.86,-1.51 6.04,-2.8 10.28,-6.91 12.73,-12.32 2.45,-5.41 2.32,-11.62 -0.37,-18.62 l -44.07,20.48 c 3.89,5.93 8.51,9.92 13.85,11.97 z m -48.48,-56.54 c 6.21,-12.65 15.84,-22 28.86,-28.05 15.78,-7.33 30.25,-8.27 43.43,-2.82 8.42,3.36 14.32,7.79 17.7,13.27 l -26.12,12.13 c -2.85,-2.16 -5.64,-3.59 -8.38,-4.28 -5.04,-1.3 -10.47,-0.6 -16.3,2.11 -5.49,2.55 -9.62,5.96 -12.38,10.23 -4.59,6.94 -4.81,15.4 -0.64,25.4 l 71.24,-33.1 c 4.05,8.39 6.78,14.99 8.18,19.8 2.38,8.22 2.91,16.17 1.6,23.84 -1.37,8.65 -4.77,16.1 -10.18,22.33 -5.4,6.22 -12.36,11.31 -20.88,15.27 -14.33,6.66 -28.09,7.56 -41.28,2.69 -13.18,-4.87 -23.71,-15.77 -31.59,-32.72 -8.4,-18.08 -9.48,-33.45 -3.26,-46.1"
         style="fill:#ffffff;fill-opacity:1;fill-rule:nonzero;stroke:none"
         id="path156" /><path
         d="m 1304.36,3021.05 -57.49,26.71 -6.2,-13.35 57.49,-26.71 6.2,13.35"
         style="fill:#ffffff;fill-opacity:1;fill-rule:nonzero;stroke:none"
         id="path158" /><path
         d="m 3155.63,3436.1 v 0 c -90.59,0 -164.05,73.45 -164.05,164.05 0,90.6 73.46,164.05 164.05,164.05 90.61,0 164.06,-73.45 164.06,-164.05 0,-90.6 -73.45,-164.05 -164.06,-164.05"
         style="fill:#f03d5f;fill-opacity:1;fill-rule:nonzero;stroke:none"
         id="path160" /><path
         d="m 3068.23,3545.23 c 15.87,-10.17 34.73,-16.12 54.97,-16.12 66.59,0 104.21,56.25 101.95,106.69 7,5.06 13.08,11.38 17.9,18.57 -6.44,-2.85 -13.35,-4.78 -20.61,-5.64 7.4,4.43 13.1,11.45 15.77,19.84 -6.93,-4.11 -14.61,-7.1 -22.77,-8.71 -6.54,6.97 -15.86,11.32 -26.18,11.32 -23.15,0 -40.16,-21.6 -34.93,-44.04 -29.82,1.5 -56.24,15.78 -73.93,37.48 -9.39,-16.12 -4.87,-37.21 11.1,-47.89 -5.88,0.19 -11.41,1.81 -16.25,4.49 -0.39,-16.61 11.52,-32.15 28.76,-35.62 -5.05,-1.37 -10.57,-1.68 -16.18,-0.61 4.55,-14.26 17.8,-24.62 33.5,-24.91 -15.08,-11.82 -34.07,-17.1 -53.1,-14.85"
         style="fill:#ffffff;fill-opacity:1;fill-rule:nonzero;stroke:none"
         id="path162" /><path
         d="m 1651,3786.11 v 0 c -99.63,0 -180.39,80.76 -180.39,180.38 0,99.63 80.76,180.39 180.39,180.39 99.62,0 180.38,-80.76 180.38,-180.39 0,-99.62 -80.76,-180.38 -180.38,-180.38"
         style="fill:#f03d5f;fill-opacity:1;fill-rule:nonzero;stroke:none"
         id="path164" /><path
         d="m 1593.27,3949.73 c 2.81,-1.15 5.34,-0.05 6.16,3.07 0.56,2.16 1.91,7.62 2.51,9.89 0.83,3.09 0.51,4.16 -1.77,6.85 -4.95,5.85 -8.11,13.42 -8.11,24.14 0,31.1 23.26,58.93 60.58,58.93 33.05,0 51.2,-20.18 51.2,-47.16 0,-35.48 -15.7,-65.42 -39.01,-65.42 -12.88,0 -22.51,10.65 -19.43,23.7 3.71,15.59 10.87,32.41 10.87,43.67 0,10.07 -5.41,18.48 -16.6,18.48 -13.16,0 -23.73,-13.62 -23.73,-31.86 0,-11.61 3.93,-19.47 3.93,-19.47 0,0 -13.47,-57.07 -15.83,-67.06 -4.71,-19.9 -0.71,-44.29 -0.37,-46.76 0.2,-1.46 2.08,-1.81 2.92,-0.71 1.22,1.59 16.89,20.94 22.21,40.27 1.52,5.48 8.67,33.82 8.67,33.82 4.27,-8.15 16.77,-15.33 30.05,-15.33 39.57,0 66.4,36.07 66.4,84.34 0,36.5 -30.91,70.5 -77.9,70.5 -58.47,0 -87.95,-41.92 -87.95,-76.88 0,-21.17 8.01,-39.99 25.2,-47.01"
         style="fill:#ffffff;fill-opacity:1;fill-rule:nonzero;stroke:none"
         id="path166" /><path
         d="m 2636.86,3084.68 v 0 c -64.05,0 -115.97,51.92 -115.97,115.97 0,64.05 51.92,115.98 115.97,115.98 64.05,0 115.97,-51.93 115.97,-115.98 0,-64.05 -51.92,-115.97 -115.97,-115.97"
         style="fill:#33535f;fill-opacity:1;fill-rule:nonzero;stroke:none"
         id="path168" /><path
         d="m 2636.86,3264.24 c -17.27,0 -19.44,-0.07 -26.22,-0.38 -6.76,-0.31 -11.39,-1.39 -15.44,-2.96 -4.17,-1.62 -7.72,-3.8 -11.25,-7.33 -3.54,-3.54 -5.72,-7.08 -7.34,-11.26 -1.57,-4.05 -2.65,-8.67 -2.96,-15.44 -0.31,-6.78 -0.38,-8.95 -0.38,-26.22 0,-17.27 0.07,-19.43 0.38,-26.21 0.31,-6.77 1.39,-11.4 2.96,-15.44 1.62,-4.18 3.8,-7.73 7.34,-11.26 3.53,-3.54 7.08,-5.71 11.25,-7.34 4.05,-1.57 8.68,-2.64 15.44,-2.95 6.78,-0.31 8.95,-0.39 26.22,-0.39 17.27,0 19.43,0.08 26.22,0.39 6.76,0.31 11.38,1.38 15.44,2.95 4.18,1.63 7.72,3.8 11.26,7.34 3.53,3.53 5.71,7.08 7.33,11.26 1.57,4.04 2.65,8.67 2.96,15.44 0.3,6.78 0.38,8.94 0.38,26.21 0,17.27 -0.08,19.44 -0.38,26.22 -0.31,6.77 -1.39,11.39 -2.96,15.44 -1.62,4.18 -3.8,7.72 -7.33,11.26 -3.54,3.53 -7.08,5.71 -11.26,7.33 -4.06,1.57 -8.68,2.65 -15.44,2.96 -6.79,0.31 -8.95,0.38 -26.22,0.38 m 0,-11.45 c 16.98,0 18.99,-0.07 25.69,-0.38 6.2,-0.28 9.57,-1.31 11.81,-2.19 2.97,-1.15 5.08,-2.53 7.31,-4.75 2.23,-2.23 3.6,-4.34 4.76,-7.31 0.87,-2.24 1.91,-5.61 2.19,-11.81 0.31,-6.71 0.37,-8.72 0.37,-25.7 0,-16.98 -0.06,-18.99 -0.37,-25.69 -0.28,-6.2 -1.32,-9.57 -2.19,-11.81 -1.16,-2.97 -2.53,-5.09 -4.76,-7.31 -2.23,-2.22 -4.34,-3.61 -7.31,-4.76 -2.24,-0.87 -5.61,-1.9 -11.81,-2.19 -6.7,-0.3 -8.71,-0.37 -25.69,-0.37 -16.98,0 -18.99,0.07 -25.7,0.37 -6.2,0.29 -9.56,1.32 -11.8,2.19 -2.97,1.15 -5.09,2.54 -7.32,4.76 -2.22,2.22 -3.6,4.34 -4.76,7.31 -0.86,2.24 -1.9,5.61 -2.18,11.81 -0.31,6.7 -0.37,8.71 -0.37,25.69 0,16.98 0.06,18.99 0.37,25.7 0.28,6.2 1.32,9.57 2.18,11.81 1.16,2.97 2.54,5.08 4.76,7.31 2.23,2.22 4.35,3.6 7.32,4.75 2.24,0.88 5.6,1.91 11.8,2.19 6.71,0.31 8.72,0.38 25.7,0.38"
         style="fill:#ffffff;fill-opacity:1;fill-rule:nonzero;stroke:none"
         id="path170" /><path
         d="m 2636.86,3179.46 c -11.7,0 -21.2,9.49 -21.2,21.19 0,11.71 9.5,21.2 21.2,21.2 11.7,0 21.2,-9.49 21.2,-21.2 0,-11.7 -9.5,-21.19 -21.2,-21.19 m 0,53.85 c -18.03,0 -32.65,-14.62 -32.65,-32.66 0,-18.03 14.62,-32.65 32.65,-32.65 18.03,0 32.65,14.62 32.65,32.65 0,18.04 -14.62,32.66 -32.65,32.66"
         style="fill:#ffffff;fill-opacity:1;fill-rule:nonzero;stroke:none"
         id="path172" /><path
         d="m 2678.44,3234.6 c 0,-4.22 -3.42,-7.63 -7.64,-7.63 -4.21,0 -7.63,3.41 -7.63,7.63 0,4.21 3.42,7.63 7.63,7.63 4.22,0 7.64,-3.42 7.64,-7.63"
         style="fill:#ffffff;fill-opacity:1;fill-rule:nonzero;stroke:none"
         id="path174" /><path
         d="m 1361.94,3387.07 v 0 c -53.69,0 -97.22,43.53 -97.22,97.22 0,53.7 43.53,97.22 97.22,97.22 53.69,0 97.22,-43.52 97.22,-97.22 0,-53.69 -43.53,-97.22 -97.22,-97.22"
         style="fill:#33535f;fill-opacity:1;fill-rule:nonzero;stroke:none"
         id="path176" /><path
         d="m 1347.12,3425.52 h 23.67 v 59.27 h 16.51 l 1.76,19.84 h -18.27 c 0,0 0,7.41 0,11.3 0,4.68 0.94,6.53 5.46,6.53 3.65,0 12.81,0 12.81,0 v 20.59 c 0,0 -13.5,0 -16.38,0 -17.61,0 -25.56,-7.75 -25.56,-22.59 0,-12.94 0,-15.83 0,-15.83 h -12.31 v -20.09 h 12.31 v -59.02"
         style="fill:#ffffff;fill-opacity:1;fill-rule:nonzero;stroke:none"
         id="path178" /><path
         d="m 2836.62,3885.07 9.09,-16.61 16.61,-9.08 -16.61,-9.09 -9.09,-16.61 -9.08,16.61 -16.62,9.09 16.62,9.08 9.08,16.61"
         style="fill:#f03d5f;fill-opacity:1;fill-rule:nonzero;stroke:none"
         id="path180" /><path
         d="m 2425.36,2963.58 9.09,-16.61 16.61,-9.09 -16.61,-9.09 -9.09,-16.61 -9.09,16.61 -16.61,9.09 16.61,9.09 9.09,16.61"
         style="fill:#f03d5f;fill-opacity:1;fill-rule:nonzero;stroke:none"
         id="path182" /><path
         d="m 1054.62,3450.61 13.43,-24.55 24.55,-13.42 -24.55,-13.43 -13.43,-24.55 -13.42,24.55 -24.55,13.43 24.55,13.42 13.42,24.55"
         style="fill:#f03d5f;fill-opacity:1;fill-rule:nonzero;stroke:none"
         id="path184" /><path
         d="m 2208.26,4259.45 13.43,-24.55 24.55,-13.43 -24.55,-13.42 -13.43,-24.55 -13.43,24.55 -24.55,13.42 24.55,13.43 13.43,24.55"
         style="fill:#f03d5f;fill-opacity:1;fill-rule:nonzero;stroke:none"
         id="path186" /><path
         d="m 2935.8,3212.82 20.94,-38.28 38.28,-20.94 -38.28,-20.94 -20.94,-38.28 -20.94,38.28 -38.28,20.94 38.28,20.94 20.94,38.28"
         style="fill:#f03d5f;fill-opacity:1;fill-rule:nonzero;stroke:none"
         id="path188" /><path
         d="m 1854.68,2441.95 c 149.51,196.89 307.13,169.07 416.51,121.49 109.38,-47.57 182.82,-167.44 175.56,-286.49 -1.93,-31.44 -8.64,-64.56 4.15,-93.34 20.56,-46.32 80.42,-59.35 115.08,-96.32 47.38,-50.53 36.88,-130.55 20.88,-197.97 -16.01,-67.4 -32.86,-144.35 6.77,-201.17 36.31,-52.05 105.54,-66 162.62,-93.71 75.43,-36.62 136.08,-104.95 157.98,-185.89 21.89,-80.94 2.62,-173.12 -54.09,-234.89 -55.5,-60.46 -138.84,-87.28 -220.03,-99.23 -236.26,-34.8 -486.51,41.44 -663.24,202.04 -176.74,160.61 -276.49,402.44 -264.39,640.95"
         style="fill:#17282f;fill-opacity:1;fill-rule:nonzero;stroke:none"
         id="path190" /><path
         d="m 2774.77,1153.46 c -0.45,0.48 5.14,4.87 13.54,15.18 8.36,10.19 19.74,26.66 26.59,50.9 6.85,24.1 8.37,55.58 0.79,90.52 -6.99,34.92 -24.95,72.78 -55.55,105.66 -15.26,16.39 -33.32,31.7 -54.1,44.6 -20.62,13.13 -44.22,23.18 -68.87,33.32 -24.62,10.2 -50.66,20.43 -75.35,35.67 -24.7,15.24 -46.96,35.94 -65.15,60.47 -36.9,49.03 -56.29,113.21 -57.79,179.2 -0.87,33.05 2.26,66.74 8.5,100.14 6.1,33.42 14.56,66.65 21.03,100.49 4.41,23.91 8.55,48.15 8.27,71.45 -0.58,23.48 -7.01,46.13 -15.73,67.77 -8.67,21.72 -18.88,42.8 -27.05,64.75 -7.94,22.48 -11.45,45.32 -14.1,67.77 -2.72,22.56 -2.71,44.83 -5.26,65.96 -2.2,21.36 -6.55,42.08 -12.02,62.02 -11.07,39.69 -27.87,76.9 -50.1,106.88 l -0.26,0.35 -0.05,0.09 c -37.38,59.13 -99,91.86 -154.46,99.61 -56.32,8.36 -106.03,-8.46 -140.37,-29.35 -35,-21.05 -56.21,-46.12 -68.73,-63.8 -12.45,-17.96 -17.05,-28.83 -17.72,-28.49 0,0 3.69,11.28 15.61,29.92 12,18.35 32.94,44.38 68.3,66.51 34.64,21.92 85.56,39.99 143.85,31.97 57.33,-7.45 121.23,-40.55 160.62,-101.92 l -0.32,0.44 c 23.72,-31.59 40.66,-69.03 52.31,-109.77 5.69,-20.38 10.23,-41.56 12.56,-63.39 2.69,-21.98 2.74,-44.01 5.49,-65.96 2.62,-21.99 6.22,-44.46 13.73,-65.51 7.96,-21.26 18.17,-42.29 27.07,-64.46 8.94,-22.08 15.88,-46.15 16.49,-71.11 0.29,-25.07 -3.95,-49.23 -8.41,-73.6 -6.55,-34.24 -15.02,-67.41 -21.07,-100.4 -6.18,-32.92 -9.27,-65.8 -8.49,-98.1 1.36,-64.47 20,-126.56 55.43,-174.03 17.46,-23.77 38.75,-43.74 62.42,-58.5 23.73,-14.85 49.3,-25.13 73.89,-35.49 24.62,-10.32 48.65,-20.73 69.81,-34.45 21.25,-13.43 39.66,-29.33 55.17,-46.32 31.12,-34.05 49.2,-73.44 55.82,-109.27 7.23,-35.8 5.1,-68.16 -2.52,-92.73 -7.61,-24.72 -19.8,-41.21 -28.78,-51.11 -9.01,-10.04 -15.04,-13.88 -15.04,-13.88"
         style="fill:#33535f;fill-opacity:1;fill-rule:nonzero;stroke:none"
         id="path192" /><path
         d="m 2765.59,968.949 c -47.24,271.931 -132.28,405.271 -161.59,437.371 -102.17,111.92 -425.05,95.15 -425.05,95.15 l -450.74,-54.9 c 0,0 -328.74,-34.1 -419.18,-297.31 l -69.92,-313.158 361.77,-14.422 7.13,-59.711 c 8.74,-32.098 19.84,-70.258 31.95,-101.25 20.25,-51.84 68.25,-161.149 39.74,-211.848 C 1607.77,320.969 1537.52,17.3594 1537.52,17.3594 l 1036.87,13.4687 -123.63,754.6599 314.83,183.461"
         style="fill:#f03d5f;fill-opacity:1;fill-rule:nonzero;stroke:none"
         id="path194" /><path
         d="m 1764.44,2363.83 c -34.02,-5.83 -57.91,-36.73 -55.01,-71.12 l 71.06,-910.73 c 8.25,-105.72 105.72,-182.83 218.86,-173.14 l 0.01,0.01 c 114.26,9.79 201.48,104.35 194.91,211.29 -6.9,112.25 -12.1,230.54 -12.1,230.54 0,0 143.02,33.34 160.8,223.9 8.84,94.73 -5.79,248.19 -21.83,373.39 -14.43,112.72 -119.68,190.8 -231.69,171.59 l -325.01,-55.73"
         style="fill:#c0776a;fill-opacity:1;fill-rule:nonzero;stroke:none"
         id="path196" /><path
         d="m 2258.33,2141.25 c 1.28,-12.75 -8.47,-24.34 -21.75,-25.92 -13.26,-1.57 -25.07,7.46 -26.34,20.2 -1.28,12.75 8.46,24.35 21.72,25.93 13.28,1.57 25.1,-7.47 26.37,-20.21"
         style="fill:#17282f;fill-opacity:1;fill-rule:nonzero;stroke:none"
         id="path198" /><path
         d="m 2292.93,2165.89 c -2.79,-3.35 -22,9.03 -48.03,7.28 -26.01,-1.38 -44.26,-16 -47.28,-13 -1.49,1.32 1.2,7.22 9.13,13.81 7.8,6.56 21.38,13.32 37.61,14.31 16.22,0.96 30.24,-4.13 38.47,-9.74 8.41,-5.62 11.49,-11.16 10.1,-12.66"
         style="fill:#17282f;fill-opacity:1;fill-rule:nonzero;stroke:none"
         id="path200" /><path
         d="m 2002.57,2118.01 c 1.27,-12.75 -8.47,-24.34 -21.75,-25.91 -13.27,-1.58 -25.07,7.45 -26.35,20.19 -1.28,12.75 8.46,24.35 21.73,25.93 13.28,1.57 25.09,-7.47 26.37,-20.21"
         style="fill:#17282f;fill-opacity:1;fill-rule:nonzero;stroke:none"
         id="path202" /><path
         d="m 2037.37,2144.51 c -2.8,-3.34 -22.02,9.03 -48.03,7.28 -26.02,-1.37 -44.26,-15.99 -47.3,-12.98 -1.47,1.31 1.19,7.2 9.15,13.79 7.79,6.57 21.38,13.33 37.6,14.31 16.22,0.96 30.24,-4.13 38.49,-9.73 8.37,-5.63 11.46,-11.16 10.09,-12.67"
         style="fill:#17282f;fill-opacity:1;fill-rule:nonzero;stroke:none"
         id="path204" /><path
         d="m 2144.3,1957.57 c -0.22,1.46 15.79,5.3 41.79,10.35 6.6,1.11 12.81,2.84 13.64,7.45 1.25,4.9 -2,11.89 -5.72,19.41 -7.28,15.69 -14.91,32.12 -22.92,49.35 -31.95,70.3 -55.53,128.29 -52.69,129.55 2.84,1.26 31.04,-54.7 63,-125 7.71,-17.34 15.08,-33.88 22.11,-49.71 3,-7.39 7.89,-15.67 5.13,-25.86 -1.46,-5.09 -6.11,-9 -10.3,-10.43 -4.18,-1.57 -7.91,-1.88 -11.19,-2.29 -26.29,-3.13 -42.66,-4.3 -42.85,-2.82"
         style="fill:#17282f;fill-opacity:1;fill-rule:nonzero;stroke:none"
         id="path206" /><path
         d="m 2182.17,1650.68 c 0,0 -126.37,-16.37 -256.97,51.08 0,0 69.65,-125.61 257.29,-95.78 l -0.32,44.7"
         style="fill:#b85549;fill-opacity:1;fill-rule:nonzero;stroke:none"
         id="path208" /><path
         d="m 2037.51,2246.96 c -2.11,-7.24 -28.32,-5.56 -58.62,-11.22 -30.42,-5.04 -54.47,-15.57 -58.93,-9.48 -2.01,2.92 1.86,9.85 11.37,17.35 9.43,7.48 24.76,14.99 42.96,18.22 18.2,3.19 35.18,1.36 46.59,-2.45 11.51,-3.79 17.51,-8.99 16.63,-12.42"
         style="fill:#17282f;fill-opacity:1;fill-rule:nonzero;stroke:none"
         id="path210" /><path
         d="m 2278.5,2240.6 c -4.2,-6.2 -22.52,-1.22 -44.11,-2.33 -21.62,-0.34 -39.57,-6.54 -44.18,-0.63 -2.03,2.88 0.46,9 8.09,15.11 7.5,6.09 20.35,11.49 35.21,12 14.84,0.48 28.02,-4.04 35.91,-9.62 8.02,-5.58 10.91,-11.51 9.08,-14.53"
         style="fill:#17282f;fill-opacity:1;fill-rule:nonzero;stroke:none"
         id="path212" /><path
         d="m 2108.95,1932.87 c 20.34,-0.19 30.56,-5.95 47.82,-16.73 4.96,-3.11 9.88,-6.85 12.31,-12.18 3.26,-7.18 1.27,-15.76 -2.57,-22.65 -8.4,-15.08 -25.97,-24.76 -43.15,-23.04 -17.18,1.72 -32.75,15.16 -36.23,32.06 -3.49,16.9 5.93,35.8 21.82,42.54"
         style="fill:#b85549;fill-opacity:1;fill-rule:nonzero;stroke:none"
         id="path214" /><path
         d="m 2173.02,1881.81 c 0.31,-1.97 -6.5,-5 -17.85,-4.32 -11.3,0.51 -26.25,5.09 -40.81,13.33 -14.53,8.32 -25.92,18.59 -32.62,27.36 -6.8,8.76 -8.86,15.62 -7.14,16.73 3.49,2.23 20.6,-15.7 47.49,-30.51 13.24,-7.48 25.74,-13.02 35.09,-16.04 9.28,-3.21 15.57,-4.26 15.84,-6.55"
         style="fill:#17282f;fill-opacity:1;fill-rule:nonzero;stroke:none"
         id="path216" /><path
         d="m 1789.21,1457.46 c 129.79,45.81 143.15,331.59 54.53,468.29 59.33,64.96 71.77,168.36 29.55,245.54 51.26,14.32 95.34,52.43 116.92,101.08 21.58,48.64 20.26,106.9 -3.52,154.51 0,0 -75.67,43.18 -147.49,23.55 -71.82,-19.63 -123.16,-75.38 -156.38,-210.16 -33.22,-134.77 -2.37,-252.23 -58.46,-336.52 -56.08,-84.29 -126.19,-147.16 -117.78,-236.31 8.41,-89.15 68.37,-272.23 68.37,-272.23 l 214.26,62.25"
         style="fill:#17282f;fill-opacity:1;fill-rule:nonzero;stroke:none"
         id="path218" /><path
         d="m 1522.78,1580.69 c 0,0 -4.61,13.17 -7.15,38.15 -1.27,12.47 -1.47,27.86 -0.04,45.63 1.8,17.72 5.54,37.82 12.76,59.11 7.2,21.25 17.89,43.71 33.06,65.41 14.93,21.86 35.5,42.05 59.17,59.75 23.22,18.02 49.31,35.66 67.23,61.83 8.37,13.32 15.3,27.92 19.31,43.81 3.91,15.86 6.31,32.39 7.18,49.3 2.02,33.81 0.2,67.15 2.89,99.4 1.06,16.13 3.71,31.93 7.77,47.02 2.28,7.5 4.49,14.95 7.86,21.88 2.91,7.1 6.46,13.85 10.55,20.12 16.2,25.37 37.87,44.25 58.16,60.82 20.43,16.55 40.14,31.04 56.38,46.12 32.71,30.07 50.8,62.74 55.52,87.04 4.78,24.48 -0.25,38.28 0.67,38.29 0.09,0.02 0.32,-0.81 0.69,-2.46 0.4,-1.96 0.88,-4.38 1.48,-7.36 0.64,-6.54 1.47,-16.42 -0.85,-28.86 -4.2,-24.93 -22.17,-58.54 -54.98,-89.33 -16.33,-15.47 -35.96,-30.17 -56.17,-46.79 -20.09,-16.61 -41.27,-35.36 -56.84,-60.03 -3.94,-6.11 -7.34,-12.64 -10.13,-19.52 -3.24,-6.71 -5.36,-13.95 -7.55,-21.24 -3.89,-14.72 -6.46,-30.18 -7.47,-46.1 -2.6,-31.81 -0.75,-65.11 -2.78,-99.31 -0.89,-17.1 -3.32,-34.01 -7.37,-50.31 -4.15,-16.35 -11.35,-31.54 -20.1,-45.35 -18.77,-27.21 -45.38,-44.93 -68.53,-62.78 -23.62,-17.51 -43.68,-37.01 -58.56,-58.43 -15.07,-21.22 -25.79,-43.24 -33.11,-64.12 -7.34,-20.92 -11.29,-40.7 -13.34,-58.2 -1.69,-17.55 -1.79,-32.79 -0.83,-45.18 0.94,-12.38 2.23,-21.99 3.56,-28.41 0.52,-2.98 0.95,-5.39 1.29,-7.35 0.26,-1.66 0.36,-2.53 0.27,-2.55"
         style="fill:#33535f;fill-opacity:1;fill-rule:nonzero;stroke:none"
         id="path220" /><path
         d="m 2348.77,282.379 c -32.84,0 -65.96,12.891 -91.63,33.871 -35.06,28.66 -57.35,70.641 -69.3,114.309 -11.96,43.679 -14.38,89.351 -15.5,134.613 -3.35,136.719 4.67,273.437 13.74,409.887 l 198.23,-687.27 c -11.56,-3.68 -23.53,-5.41 -35.54,-5.41"
         style="fill:#da314b;fill-opacity:1;fill-rule:nonzero;stroke:none"
         id="path222" /><path
         d="m 1701.01,499.969 c -0.33,-0.141 -3.04,5.429 -7.63,15.621 -4.6,10.191 -11.09,25.012 -18.81,43.449 -15.35,36.891 -36.06,88.34 -51.76,147.512 -15.76,59.187 -21.45,114.871 -20.27,154.98 0.47,20.059 2.1,36.231 3.8,47.309 0.72,5.551 1.68,9.808 2.21,12.699 0.59,2.891 0.99,4.402 1.16,4.371 0.41,-0.07 -0.31,-6.219 -1.36,-17.308 -1.08,-11.102 -2.13,-27.211 -2.12,-47.114 -0.23,-39.789 5.97,-94.828 21.61,-153.609 15.59,-58.777 35.69,-110.258 50.14,-147.449 7.05,-17.989 12.87,-32.852 17.27,-44.059 4.02,-10.43 6.09,-16.269 5.76,-16.402"
         style="fill:#17282f;fill-opacity:1;fill-rule:nonzero;stroke:none"
         id="path224" /><path
         d="m 2152.85,943.102 c 0.2,-0.243 -3.3,-3.84 -10.4,-9.602 -3.6,-2.801 -8.16,-6.148 -14.15,-8.988 -5.91,-2.84 -13.59,-4.981 -22.11,-4.071 -8.32,0.68 -18.23,5.411 -22.82,14.918 -4.47,9.289 -5.6,19.403 -8.3,29.762 -4.76,21.02 -9.95,43.939 -15.4,68.009 -10.78,48.28 -20.26,92.06 -26.86,123.81 -3.04,15.14 -5.58,27.77 -7.57,37.65 -1.67,8.91 -2.42,13.87 -2.07,13.95 0.35,0.08 1.78,-4.73 4.06,-13.51 2.4,-9.78 5.48,-22.3 9.17,-37.29 7.53,-31.54 17.57,-75.18 28.36,-123.47 5.3,-24.11 10.36,-47.071 15,-68.098 2.52,-10.352 3.71,-20.844 7.47,-28.871 3.75,-8.141 11.82,-12.27 19.4,-13.211 15.67,-1.922 27.35,6.359 34.62,11.039 7.37,5.18 11.35,8.301 11.6,7.973"
         style="fill:#17282f;fill-opacity:1;fill-rule:nonzero;stroke:none"
         id="path226" /><path
         d="m 2081.33,1181.09 c -0.11,0.19 1.67,1.66 5.63,2.45 3.93,0.82 10.11,0.39 16.56,-3.08 6.19,-3.48 13.16,-10.29 14.47,-20.5 1.55,-10.33 -5.8,-21.27 -16.14,-25.79 -10.19,-4.85 -23.28,-3.22 -30.05,4.72 -6.86,7.69 -7.43,17.44 -5.99,24.38 1.61,7.15 5.34,12.1 8.53,14.51 3.19,2.48 5.47,2.85 5.54,2.65 0.24,-0.44 -1.68,-1.44 -4.17,-4.13 -2.5,-2.64 -5.29,-7.32 -6.28,-13.69 -0.87,-6.22 0.22,-14.55 5.85,-20.42 5.45,-6.05 15.73,-7.3 24.41,-3.29 8.72,3.93 14.51,12.5 13.52,20.58 -0.73,8.11 -6.32,14.39 -11.58,17.81 -5.46,3.43 -10.82,4.4 -14.44,4.23 -3.68,-0.11 -5.69,-0.9 -5.86,-0.43"
         style="fill:#17282f;fill-opacity:1;fill-rule:nonzero;stroke:none"
         id="path228" /><path
         d="m 2118.12,1058.35 c -0.1,0.18 1.67,1.67 5.64,2.45 3.93,0.83 10.11,0.39 16.55,-3.08 6.19,-3.47 13.17,-10.29 14.48,-20.5 1.55,-10.34 -5.81,-21.28 -16.14,-25.8 -10.19,-4.83 -23.28,-3.21 -30.06,4.74 -6.85,7.69 -7.42,17.42 -5.98,24.38 1.6,7.13 5.33,12.09 8.52,14.51 3.2,2.48 5.48,2.84 5.55,2.64 0.23,-0.44 -1.68,-1.44 -4.17,-4.14 -2.5,-2.62 -5.29,-7.3 -6.28,-13.67 -0.87,-6.23 0.21,-14.56 5.85,-20.43 5.45,-6.04 15.72,-7.29 24.4,-3.29 8.72,3.94 14.52,12.5 13.53,20.58 -0.73,8.1 -6.31,14.39 -11.58,17.82 -5.45,3.43 -10.82,4.38 -14.45,4.23 -3.67,-0.11 -5.68,-0.9 -5.86,-0.44"
         style="fill:#17282f;fill-opacity:1;fill-rule:nonzero;stroke:none"
         id="path230" /><path
         d="m 2713.47,1183.24 c 0.12,-1.44 -316.77,-31.16 -707.72,-66.39 -391.08,-35.24 -708.12,-62.63 -708.25,-61.21 -0.13,1.44 316.7,31.16 707.78,66.4 390.95,35.22 708.05,62.63 708.19,61.2"
         style="fill:#fafaf9;fill-opacity:1;fill-rule:nonzero;stroke:none"
         id="path232" /><path
         d="m 2725.14,1133.96 c 0.12,-1.43 -324.05,-31.81 -723.97,-67.85 -400.07,-36.05 -724.38,-64.1 -724.51,-62.67 -0.13,1.43 323.97,31.8 724.04,67.86 399.92,36.03 724.31,64.09 724.44,62.66"
         style="fill:#fafaf9;fill-opacity:1;fill-rule:nonzero;stroke:none"
         id="path234" /><path
         d="m 1573.9,1385.9 c 0.35,0.08 2.07,-5.38 4.87,-15.35 2.87,-9.95 6.5,-24.49 10.54,-42.56 8.1,-36.15 16.93,-86.67 21.86,-143.03 4.86,-56.39 4.87,-107.69 3.13,-144.68 -0.86,-18.51 -1.93,-33.46 -3.04,-43.749 -1.05,-10.301 -1.79,-15.98 -2.15,-15.953 -0.36,0.031 -0.29,5.774 0.13,16.094 0.49,10.318 0.99,25.268 1.38,43.728 0.8,36.91 0.2,87.97 -4.64,144.11 -4.91,56.1 -13.12,106.49 -20.28,142.72 -3.56,18.12 -6.64,32.76 -8.89,42.84 -2.2,10.1 -3.26,15.74 -2.91,15.83"
         style="fill:#17282f;fill-opacity:1;fill-rule:nonzero;stroke:none"
         id="path236" /><path
         d="m 1953.05,1518.24 c 0,0 173.39,125.49 180.41,121.98 7.01,-3.5 92.95,-22.8 92.95,-22.8 l 14.03,75.41 c 0,0 -24.56,140.31 0,152.59 24.55,12.27 29.81,0 29.81,-12.28 0,-12.27 28.06,-112.24 28.06,-112.24 l 10.53,-136.8 36.82,-33.32 v -270.09 l -169.31,-46.1 -41.15,82.93 -7.01,50.86 c 0,0 -31.57,-12.28 -36.83,-5.27 -5.26,7.02 -10.52,40.34 -10.52,40.34 l -7.01,-47.35 c 0,0 -47.36,-14.03 -52.62,-5.26 -5.26,8.77 15.78,124.52 15.78,124.52 l 56.12,77.17 c 0,0 -68.94,-42.05 -82.21,-46.94 -29.31,-10.8 -57.85,12.65 -57.85,12.65"
         style="fill:#c0776a;fill-opacity:1;fill-rule:nonzero;stroke:none"
         id="path238" /><path
         d="m 2171.03,1240.55 c 0,-9.86 26.29,-560.288 32.21,-599.749 5.92,-39.461 9.42,-412.352 223.72,-440.981 0,0 107.28,1.328 117.42,9.789 l 0.36,0.27 c 116.65,87.551 190.3,220.84 198.56,366.449 l 22.29,392.621 c 0,0 -122.99,-15.929 -282.48,-29.738 v -103.07 c 0,0 -37.17,103.828 -43.09,132.808 -5.92,28.992 -94.36,311.741 -94.36,311.741 l -174.63,-40.14"
         style="fill:#c0776a;fill-opacity:1;fill-rule:nonzero;stroke:none"
         id="path240" /><path
         d="m 2308.84,1584.1 c -0.26,-0.02 -0.79,3.54 -1.59,10.22 -0.8,7.39 -1.82,17.04 -3.1,28.96 -2.41,25.69 -5.72,61 -9.66,102.89 l 0.04,-0.24 c -7.1,36.16 -15.29,77.92 -23.98,122.26 l -0.35,1.82 2.18,-2.09 c -5.76,0.82 -11.41,1.61 -16.73,2.36 l 1.59,0.28 c -14.72,-7.85 -23.14,-23.44 -26.73,-38.67 -3.73,-15.48 -2.53,-31.08 -0.25,-45.65 2.32,-14.61 5.6,-28.41 7.59,-41.57 2.05,-13.18 2.66,-25.66 2.17,-36.94 -0.87,-22.62 -5.66,-40.38 -9.65,-52.19 -2.08,-5.89 -3.93,-10.38 -5.32,-13.35 -1.41,-2.95 -2.22,-4.48 -2.37,-4.4 -0.4,0.17 2.3,6.47 5.84,18.34 3.37,11.87 7.55,29.49 7.94,51.71 0.25,11.09 -0.55,23.25 -2.75,36.15 -2.14,12.94 -5.58,26.66 -8.08,41.5 -2.46,14.74 -3.89,31.11 -0.02,47.55 3.71,16.09 12.65,33.22 29.17,42.1 l 0.75,0.4 0.85,-0.11 c 5.31,-0.75 10.96,-1.55 16.73,-2.35 l 1.84,-0.26 0.35,-1.83 0.35,-1.8 c 8.49,-44.39 16.48,-86.19 23.39,-122.39 l 0.03,-0.13 0.01,-0.11 c 3.17,-41.95 5.84,-77.32 7.78,-103.05 0.75,-11.96 1.35,-21.66 1.82,-29.06 0.34,-6.73 0.4,-10.33 0.16,-10.35"
         style="fill:#b85549;fill-opacity:1;fill-rule:nonzero;stroke:none"
         id="path242" /><path
         d="m 2093.11,1552.53 c 0.14,-0.23 -3.17,-2.48 -9.45,-6.42 -6.28,-3.93 -15.54,-9.56 -27.33,-16.48 -11.82,-6.91 -26.08,-15.25 -42.83,-23.98 -4.14,-2.09 -8.52,-4.61 -13.89,-5.72 -5.23,-1.12 -10.92,-0.78 -16.18,0.9 -10.61,3.39 -19.9,10.23 -27.92,18.96 l -1.8,1.97 2.3,1.57 c 25.56,17.32 53.63,36.36 83.15,56.37 33.77,22.68 65.69,44.12 93.73,62.93 l 0.87,0.59 0.99,-0.25 c 40.53,-10.19 74.87,-18.82 99.93,-25.12 11.56,-3.08 20.96,-5.57 28.17,-7.48 6.51,-1.82 9.96,-2.9 9.9,-3.16 -0.06,-0.24 -3.63,0.37 -10.24,1.72 -7.3,1.59 -16.8,3.67 -28.49,6.21 -25.16,5.84 -59.65,13.84 -100.37,23.29 l 1.85,0.34 c -27.94,-18.96 -59.76,-40.55 -93.43,-63.39 -29.59,-19.88 -57.75,-38.8 -83.39,-56.03 l 0.49,3.53 c 7.25,-8.06 16.19,-14.75 25.57,-17.8 4.69,-1.57 9.56,-1.89 14.05,-1 4.42,0.81 8.67,3.09 12.9,5.16 16.75,8.36 31.21,16.38 43.21,22.91 11.5,6.28 20.85,11.39 27.99,15.3 6.52,3.5 10.09,5.31 10.22,5.08"
         style="fill:#b85549;fill-opacity:1;fill-rule:nonzero;stroke:none"
         id="path244" /><path
         d="m 2086.41,1443.94 c 0.19,-0.02 0.11,-1.88 -0.21,-5.41 -0.45,-4.15 -1,-9.21 -1.66,-15.33 -1.8,-14.12 -4.2,-33.08 -7.12,-56.03 l -0.06,-0.5 -0.35,-0.46 c -5.64,-7.26 -14.38,-13.91 -25.29,-15.72 -10.93,-1.75 -22.51,1.3 -32.67,7.76 l -1.24,0.79 0.27,1.56 c 4.69,27.87 9.87,58.64 15.32,90.97 1.75,10.14 3.46,20.12 5.13,29.83 l 0.09,0.53 0.2,0.31 c 7.42,11 15.77,19.48 23.7,28.31 8,8.65 15.83,16.88 23.39,24.7 15.12,15.63 29.08,29.64 41.32,41.71 l 0.37,0.36 0.52,0.14 c 10.44,2.75 20,6.57 29.04,7.7 4.6,0.77 9.16,-0.32 12.66,-1.62 3.66,-1.28 6.79,-2.78 9.6,-4.1 5.6,-2.7 9.93,-4.7 12.98,-5.76 3.04,-1.09 4.72,-1.46 4.69,-1.67 -0.01,-0.46 -7.16,0.39 -18.51,5.53 -2.86,1.17 -6.02,2.5 -9.55,3.58 -3.61,1.11 -7.29,1.91 -11.46,1.08 -8.5,-1.33 -17.65,-5.25 -28.56,-8.4 l 0.89,0.5 c -12.01,-12.51 -25.66,-26.73 -40.6,-42.29 -7.41,-7.96 -15.12,-16.25 -23.1,-24.83 -7.72,-8.65 -16.36,-17.76 -22.88,-27.48 l 0.3,0.83 c -1.66,-9.71 -3.36,-19.7 -5.08,-29.84 -5.6,-32.3 -10.93,-63.05 -15.76,-90.89 l -0.97,2.35 c 8.89,-5.79 19.72,-8.81 29.24,-7.34 9.58,1.48 17.5,7.15 22.94,13.85 l -0.41,-0.95 c 3.62,22.86 6.61,41.74 8.82,55.79 1.08,6.07 1.96,11.08 2.69,15.19 0.68,3.48 1.13,5.28 1.32,5.25"
         style="fill:#b85549;fill-opacity:1;fill-rule:nonzero;stroke:none"
         id="path246" /><path
         d="m 2213.69,1444.65 c 0.02,-0.37 -6.08,-0.91 -17.17,-1.61 -11.97,-0.61 -27.83,-1.42 -47.1,-2.41 l 1.53,0.89 c -5.6,-9.28 -13.93,-18.18 -24.73,-25.75 l 1.01,1.84 c -0.19,-12.43 -1.14,-25.79 -5.1,-39.69 -1.08,-3.45 -2.24,-6.91 -4.49,-10.42 -2.25,-3.43 -5.78,-6 -9.53,-7.54 -7.67,-3.01 -15.76,-2.78 -23.74,-1.07 l -1.92,0.42 v 2.08 c -0.01,10.09 -0.02,20.68 -0.03,31.45 0.03,19.43 0.06,38.26 0.09,56.13 v 0.86 l 0.52,0.67 c 16.86,21.81 32.35,41.84 45.77,59.18 l 0.59,0.78 0.94,0.04 c 24.8,0.91 45.38,1.68 60.76,2.26 6.66,0.12 12.19,0.23 16.72,0.31 3.84,0 5.87,-0.09 5.88,-0.3 0.01,-0.21 -2,-0.52 -5.82,-0.92 -4.51,-0.38 -10.02,-0.85 -16.66,-1.41 -15.35,-1.03 -35.91,-2.41 -60.66,-4.06 l 1.52,0.81 c -13.2,-17.51 -28.45,-37.73 -45.05,-59.74 l 0.52,1.52 c 0.03,-17.87 0.06,-36.7 0.09,-56.13 -0.01,-10.77 -0.02,-21.36 -0.03,-31.45 l -1.93,2.49 c 6.84,-1.53 14.47,-1.69 20.53,0.74 3.01,1.24 5.64,3.12 7.36,5.71 1.66,2.52 2.9,5.81 3.91,9.02 3.86,13.01 5.01,26.3 5.36,38.26 l 0.04,1.2 0.98,0.65 c 10.18,6.89 18.52,15.45 23.92,23.98 l 0.56,0.88 0.97,0.01 c 19.28,0.32 35.16,0.57 47.15,0.77 11.11,0.05 17.23,-0.09 17.24,-0.45"
         style="fill:#b85549;fill-opacity:1;fill-rule:nonzero;stroke:none"
         id="path248" /><path
         d="m 2176.35,1240.55 c -0.47,-0.38 -6.8,6.12 -15.08,18.18 -8.28,12.02 -18.11,29.9 -25.36,51.08 -7.2,21.21 -10.33,41.38 -11.12,55.96 -0.81,14.61 0.24,23.61 0.84,23.59 1.72,0.13 0.78,-36.25 15.21,-77.87 13.98,-41.75 36.95,-69.98 35.51,-70.94"
         style="fill:#b85549;fill-opacity:1;fill-rule:nonzero;stroke:none"
         id="path250" /><path
         d="m 2204.08,1369.24 c -1.16,-1.02 -10.52,14.22 -29.84,20.61 -19.31,6.5 -35.93,-0.1 -36.25,1.41 -0.27,0.58 3.42,3.09 10.34,4.8 6.84,1.72 17.08,2.22 27.55,-1.27 10.48,-3.49 18.38,-10.04 22.81,-15.52 4.5,-5.51 5.95,-9.72 5.39,-10.03"
         style="fill:#b85549;fill-opacity:1;fill-rule:nonzero;stroke:none"
         id="path252" /><path
         d="m 2207.96,1438.76 c 1.41,-0.24 1.14,-15.1 -0.63,-33.2 -1.76,-18.1 -4.36,-32.68 -5.8,-32.55 -1.42,0.12 -1.15,14.99 0.64,33.19 1.78,18.2 4.37,32.78 5.79,32.56"
         style="fill:#b85549;fill-opacity:1;fill-rule:nonzero;stroke:none"
         id="path254" /><path
         d="m 2586.75,391.512 c -0.73,0.379 9.31,9.949 16.12,32.609 3.35,11.238 5.41,25.649 4.56,42.301 -0.86,16.648 -5,35.379 -11.86,55.289 -6.78,19.961 -16.35,41.098 -25.39,64.359 -9.48,23.078 -18.67,48.078 -28.57,74.301 -19.21,52.649 -39.35,110.891 -59.72,172.25 -40.51,122.867 -74.72,234.859 -98.83,316.099 -12.05,40.62 -21.58,73.56 -27.99,96.39 -3.05,11.09 -5.47,19.87 -7.24,26.3 -0.7,2.77 -1.28,5.03 -1.75,6.88 -0.36,1.56 -0.5,2.37 -0.42,2.4 0.09,0.02 0.4,-0.74 0.94,-2.25 0.6,-1.81 1.34,-4.02 2.24,-6.73 2,-6.37 4.72,-15.05 8.17,-26.04 7.12,-23.07 17.19,-55.72 29.57,-95.88 25.01,-80.95 59.76,-192.739 100.26,-315.528 20.35,-61.332 40.35,-119.571 59.28,-172.25 9.77,-26.223 18.79,-51.262 28.06,-74.352 8.85,-23.242 18.24,-44.519 24.88,-64.769 6.71,-20.211 10.69,-39.321 11.27,-56.332 0.6,-17 -1.8,-31.668 -5.53,-43.028 -3.57,-11.441 -8.44,-19.5 -11.98,-24.652 -3.58,-5.16 -6.07,-7.367 -6.07,-7.367"
         style="fill:#b85549;fill-opacity:1;fill-rule:nonzero;stroke:none"
         id="path256" /><path
         d="m 2185.15,264.668 -667.36,99.543 83.09,457.469 -352.8,14.422 -89.22,-503.852 C 1126.33,163.07 1254.96,5.73047 1427.24,3.98828 l 778.36,8.63282 -20.45,252.0469"
         style="fill:#c0776a;fill-opacity:1;fill-rule:nonzero;stroke:none"
         id="path258" /><path
         d="m 2136.99,253.191 c 6.56,-2.191 153.05,67.778 153.05,67.778 l 257.99,-13.117 c 0,0 -6.57,-43.832 -26.24,-54.711 -19.68,-10.879 -139.93,0 -139.93,0 l 61.23,-43.672 104.94,8.742 26.24,21.867 c 0,0 2.72,-72.308 -16.96,-85.418 -19.67,-13.121 -76.22,-17.851 -76.22,-17.851 0,0 -1.14,-21.661 -4.56,-33.047 -3.42,-11.3909 -34.19,-22.7932 -34.19,-22.7932 0,0 -19.37,-39.8868 -27.35,-49 -3.57,-4.0899 -31.44,-12.7579 -61.08,-21.0782 C 2306.04,-2.53906 2255.35,-2.21875 2207.7,12 l -70.71,21.1016 V 248.488"
         style="fill:#c0776a;fill-opacity:1;fill-rule:nonzero;stroke:none"
         id="path260" /><path
         d="m 2578.69,238.871 c 0.08,-0.101 -1.01,-0.961 -3.19,-2.512 -2.2,-1.527 -5.38,-3.929 -9.93,-6.379 -8.9,-5.179 -22.72,-11.769 -41.37,-16.011 -18.54,-4.278 -42.12,-6.16 -67.96,-0.957 -12.88,2.597 -26.27,6.949 -39.34,13.617 -13.22,6.422 -25.22,16 -39.53,21.262 l -11.48,4.218 12.23,0.481 c 19.36,0.762 39.34,-2.129 59.8,-4.11 20.35,-1.91 41.92,-2.671 62.32,3.75 24.29,7.192 44.59,28.149 45.57,51.622 l 2.44,-2.633 c -74.49,4.34 -139.54,8.133 -186.67,10.89 -22.8,1.532 -41.23,2.77 -54.61,3.672 -5.97,0.489 -10.81,0.891 -14.63,1.207 -3.33,0.321 -5.06,0.571 -5.05,0.723 0.01,0.148 1.76,0.211 5.11,0.18 3.83,-0.102 8.69,-0.219 14.69,-0.36 13.39,-0.531 31.86,-1.261 54.69,-2.172 47.13,-2.289 112.17,-5.449 186.67,-9.07 l 2.53,-0.129 -0.1,-2.512 c -0.48,-12.91 -6.4,-25.476 -15.29,-35.23 -8.91,-9.777 -20.81,-17.207 -33.76,-21.148 -21.6,-6.782 -43.83,-5.86 -64.4,-3.872 -20.65,2.063 -40.36,4.981 -59.13,4.34 l 0.75,4.703 c 15.27,-5.769 27.22,-15.55 39.91,-21.812 12.61,-6.57 25.58,-10.938 38.1,-13.629 25.12,-5.371 48.23,-3.941 66.5,-0.141 18.41,3.762 32.21,9.821 41.24,14.5 9.11,4.661 13.65,7.891 13.89,7.512"
         style="fill:#b85549;fill-opacity:1;fill-rule:nonzero;stroke:none"
         id="path262" /><path
         d="m 2523.21,142.48 c 0.25,-1.378 -26.13,-7.199 -59.21,-10.789 -33.07,-3.66 -60.08,-3.679 -60.13,-2.293 -0.07,1.481 26.68,3.832 59.57,7.461 32.89,3.582 59.52,7.071 59.77,5.621"
         style="fill:#b85549;fill-opacity:1;fill-rule:nonzero;stroke:none"
         id="path264" /><path
         d="m 2466.4,92.6914 c 0.51,-1.332 -13.76,-8.1133 -31.9,-15.1211 -18.13,-7.0195 -33.25,-11.6211 -33.77,-10.2812 -0.52,1.3398 13.76,8.1211 31.9,15.1328 18.12,7.0195 33.25,11.6172 33.77,10.2695"
         style="fill:#b85549;fill-opacity:1;fill-rule:nonzero;stroke:none"
         id="path266" /><path
         d="m 2133.29,994.98 c -11.09,0 -21.59,9.12 -23.58,19.98 4.24,-4.16 10.38,-6.26 16.71,-6.26 4.16,0 8.4,0.91 12.23,2.72 3.52,1.54 6.7,3.83 9.29,6.58 2.74,2.66 4.93,5.88 6.29,9.45 5.54,-13.02 -3.87,-30.009 -17.83,-32.231 -1.04,-0.16 -2.08,-0.239 -3.11,-0.239"
         style="fill:#da314b;fill-opacity:1;fill-rule:nonzero;stroke:none"
         id="path268" /><path
         d="m 2126.42,1008.7 c -6.33,0 -12.47,2.1 -16.71,6.26 -0.25,1.36 -0.36,2.74 -0.33,4.13 5.07,-5.48 12.45,-8.88 19.93,-8.88 0.39,0 0.77,0.01 1.16,0.03 6.52,0.31 12.8,3.23 17.47,7.76 -2.59,-2.75 -5.77,-5.04 -9.29,-6.58 -3.83,-1.81 -8.07,-2.72 -12.23,-2.72 m -17.04,10.39 c -1.67,1.81 -3.09,3.84 -4.17,6.05 l 4.24,-4.79 c -0.03,-0.42 -0.06,-0.84 -0.07,-1.26"
         style="fill:#111d23;fill-opacity:1;fill-rule:nonzero;stroke:none"
         id="path270" /><path
         d="m 2098.35,1116.79 c -6.05,0 -11.93,2.71 -16.34,6.95 11.51,1.04 22.96,2.08 34.29,3.11 -3.49,-5.06 -8.73,-8.86 -14.84,-9.82 -1.04,-0.17 -2.08,-0.24 -3.11,-0.24 m -20.31,11.79 c -1.44,2.28 -2.52,4.78 -3.1,7.38 4.06,-3 9.3,-4.52 14.68,-4.52 1.97,0 3.95,0.2 5.89,0.61 0.01,0 0.02,0 0.03,0 10.34,0.49 20.07,7.54 23.76,17.21 2.3,-5.43 2.02,-11.54 -0.11,-16.99 -13.61,-1.22 -27.3,-2.45 -41.15,-3.69"
         style="fill:#da314b;fill-opacity:1;fill-rule:nonzero;stroke:none"
         id="path272" /><path
         d="m 2089.62,1131.44 c -5.38,0 -10.62,1.52 -14.68,4.52 -0.36,1.62 -0.53,3.27 -0.49,4.94 5.07,-5.49 12.45,-8.88 19.93,-8.88 0.38,0 0.76,0.01 1.13,0.03 -1.94,-0.41 -3.92,-0.61 -5.89,-0.61"
         style="fill:#111d23;fill-opacity:1;fill-rule:nonzero;stroke:none"
         id="path274" /><path
         d="m 2082.01,1123.74 c -1.51,1.45 -2.85,3.08 -3.97,4.84 13.85,1.24 27.54,2.47 41.15,3.69 -0.75,-1.91 -1.72,-3.74 -2.89,-5.42 -11.33,-1.03 -22.78,-2.07 -34.29,-3.11"
         style="fill:#bfc0be;fill-opacity:1;fill-rule:nonzero;stroke:none"
         id="path276" /><path
         d="m 2074.45,1140.9 c -1.67,1.8 -3.09,3.84 -4.18,6.05 l 4.25,-4.79 c -0.04,-0.42 -0.06,-0.84 -0.07,-1.26"
         style="fill:#111d23;fill-opacity:1;fill-rule:nonzero;stroke:none"
         id="path278" /><path
         d="m 1667.33,625.031 c -8.1,0 -15.08,8.36 -19.42,16.707 -6.98,20.602 -13.88,42.801 -20.07,66.141 -15.64,58.781 -21.84,113.82 -21.61,153.609 -0.01,18.274 0.88,33.34 1.86,44.282 0.47,3.8 0.99,7.601 1.56,11.398 l 6.76,1.242 c 12.26,-91.89 66.1,-176.41 65.75,-269.101 -0.03,-9.18 -1.97,-20.329 -10.57,-23.5 -1.45,-0.539 -2.87,-0.778 -4.26,-0.778"
         style="fill:#da314b;fill-opacity:1;fill-rule:nonzero;stroke:none"
         id="path280" /><path
         d="m 1647.91,641.738 c -0.56,1.09 -1.08,2.172 -1.55,3.242 -35.97,81.348 -49.3,172.54 -38.27,260.79 -0.98,-10.942 -1.87,-26.008 -1.86,-44.282 -0.23,-39.789 5.97,-94.828 21.61,-153.609 6.19,-23.34 13.09,-45.539 20.07,-66.141"
         style="fill:#111d23;fill-opacity:1;fill-rule:nonzero;stroke:none"
         id="path282" /><path
         d="m 2467.29,1260.88 c 0.37,0.04 1.26,-5.48 2.58,-15.51 1.35,-10.03 2.97,-24.58 4.72,-42.58 3.5,-36 7.09,-85.86 8.79,-141.03 1.66,-55.2 1.11,-105.201 -0.2,-141.338 -0.63,-18.082 -1.37,-32.692 -2.11,-42.781 -0.7,-10.082 -1.26,-15.661 -1.62,-15.641 -0.36,0.02 -0.49,5.609 -0.4,15.719 0.12,11.031 0.28,25.429 0.46,42.781 0.35,36.121 0.32,86.01 -1.34,141.1 -1.7,55.06 -4.69,104.86 -7.25,140.89 -1.24,17.3 -2.28,31.67 -3.06,42.67 -0.7,10.09 -0.92,15.69 -0.57,15.72"
         style="fill:#17282f;fill-opacity:1;fill-rule:nonzero;stroke:none"
         id="path284" /></g></g></svg>
