<?xml version="1.0" standalone="no"?><svg xmlns="http://www.w3.org/2000/svg" viewBox="0 0 1440 320"><path fill="#ef7197" fill-opacity="1" d="M0,256L30,250.7C60,245,120,235,180,202.7C240,171,300,117,360,117.3C420,117,480,171,540,176C600,181,660,139,720,128C780,117,840,139,900,138.7C960,139,1020,117,1080,112C1140,107,1200,117,1260,128C1320,139,1380,149,1410,154.7L1440,160L1440,0L1410,0C1380,0,1320,0,1260,0C1200,0,1140,0,1080,0C1020,0,960,0,900,0C840,0,780,0,720,0C660,0,600,0,540,0C480,0,420,0,360,0C300,0,240,0,180,0C120,0,60,0,30,0L0,0Z"></path></svg>