<?xml version="1.0" encoding="UTF-8" standalone="no"?>
<svg
   xmlns:dc="http://purl.org/dc/elements/1.1/"
   xmlns:cc="http://creativecommons.org/ns#"
   xmlns:rdf="http://www.w3.org/1999/02/22-rdf-syntax-ns#"
   xmlns:svg="http://www.w3.org/2000/svg"
   xmlns="http://www.w3.org/2000/svg"
   xmlns:sodipodi="http://sodipodi.sourceforge.net/DTD/sodipodi-0.dtd"
   xmlns:inkscape="http://www.inkscape.org/namespaces/inkscape"
   version="1.1"
   id="svg2"
   xml:space="preserve"
   width="3866.6667"
   height="2666.6667"
   viewBox="0 0 3866.6667 2666.6667"
   sodipodi:docname="5834.eps"><metadata
     id="metadata8"><rdf:RDF><cc:Work
         rdf:about=""><dc:format>image/svg+xml</dc:format><dc:type
           rdf:resource="http://purl.org/dc/dcmitype/StillImage" /></cc:Work></rdf:RDF></metadata><defs
     id="defs6" /><sodipodi:namedview
     pagecolor="#ffffff"
     bordercolor="#666666"
     borderopacity="1"
     objecttolerance="10"
     gridtolerance="10"
     guidetolerance="10"
     inkscape:pageopacity="0"
     inkscape:pageshadow="2"
     inkscape:window-width="640"
     inkscape:window-height="480"
     id="namedview4" /><g
     id="g10"
     inkscape:groupmode="layer"
     inkscape:label="ink_ext_XXXXXX"
     transform="matrix(1.3333333,0,0,-1.3333333,0,2666.6667)"><g
       id="g12"
       transform="scale(0.1)"><path
         d="M 0,0 H 29000 V 20000 H 0 Z"
         style="fill:#ffffff;fill-opacity:1;fill-rule:nonzero;stroke:none"
         id="path14" /><path
         d="m 13710,4651.6 -3034.4,-1218.7 -3756.2,9353 2564.94,1030 c 259.28,104.2 553.86,-21.6 658.06,-280.9 L 13710,4651.6"
         style="fill:#f4a640;fill-opacity:1;fill-rule:nonzero;stroke:none"
         id="path16" /><path
         d="m 14067,4999.6 -5810.03,-1030 -1448.18,8169 5810.11,1030 1448.1,-8169"
         style="fill:#adcfd8;fill-opacity:1;fill-rule:nonzero;stroke:none"
         id="path18" /><path
         d="m 11161.7,12014 -2594.6,-460 -10.33,58.3 2594.53,459.9 10.4,-58.2"
         style="fill:#55769f;fill-opacity:1;fill-rule:nonzero;stroke:none"
         id="path20" /><path
         d="m 11680.5,12258.3 -3684.63,-653.2 -10.33,58.2 3684.66,653.2 10.3,-58.2"
         style="fill:#55769f;fill-opacity:1;fill-rule:nonzero;stroke:none"
         id="path22" /><path
         d="m 12208,11568.6 -4470.36,-792.5 -10.33,58.3 4470.39,792.5 10.3,-58.3"
         style="fill:#55769f;fill-opacity:1;fill-rule:nonzero;stroke:none"
         id="path24" /><path
         d="m 12257.6,11288.4 -4470.29,-792.4 -10.33,58.2 4470.32,792.5 10.3,-58.3"
         style="fill:#55769f;fill-opacity:1;fill-rule:nonzero;stroke:none"
         id="path26" /><path
         d="m 12357,10728.1 -4470.37,-792.4 -10.32,58.2 4470.39,792.5 10.3,-58.3"
         style="fill:#55769f;fill-opacity:1;fill-rule:nonzero;stroke:none"
         id="path28" /><path
         d="m 12406.6,10448 -4470.3,-792.5 -10.32,58.2 4470.32,792.5 10.3,-58.2"
         style="fill:#55769f;fill-opacity:1;fill-rule:nonzero;stroke:none"
         id="path30" /><path
         d="m 12456.3,10167.8 -4470.34,-792.5 -10.32,58.3 4470.36,792.5 10.3,-58.3"
         style="fill:#55769f;fill-opacity:1;fill-rule:nonzero;stroke:none"
         id="path32" /><path
         d="m 12674.8,8935.6 -4470.39,-792.5 -10.33,58.3 4470.32,792.5 10.4,-58.3"
         style="fill:#55769f;fill-opacity:1;fill-rule:nonzero;stroke:none"
         id="path34" /><path
         d="m 12726.3,8645.1 -4470.39,-792.5 -10.33,58.3 4470.32,792.5 10.4,-58.3"
         style="fill:#55769f;fill-opacity:1;fill-rule:nonzero;stroke:none"
         id="path36" /><path
         d="m 12777.8,8354.6 -4470.39,-792.5 -10.33,58.2 4470.32,792.5 10.4,-58.2"
         style="fill:#55769f;fill-opacity:1;fill-rule:nonzero;stroke:none"
         id="path38" /><path
         d="m 12829.2,8064.1 -4470.28,-792.5 -10.34,58.2 4470.32,792.5 10.3,-58.2"
         style="fill:#55769f;fill-opacity:1;fill-rule:nonzero;stroke:none"
         id="path40" /><path
         d="m 12880.8,7773.6 -4470.38,-792.5 -10.33,58.2 4470.31,792.5 10.4,-58.2"
         style="fill:#55769f;fill-opacity:1;fill-rule:nonzero;stroke:none"
         id="path42" /><path
         d="m 12932.3,7483.1 -4470.39,-792.5 -10.32,58.2 4470.31,792.5 10.4,-58.2"
         style="fill:#55769f;fill-opacity:1;fill-rule:nonzero;stroke:none"
         id="path44" /><path
         d="m 12983.8,7192.6 -4470.39,-792.5 -10.32,58.2 4470.31,792.5 10.4,-58.2"
         style="fill:#55769f;fill-opacity:1;fill-rule:nonzero;stroke:none"
         id="path46" /><path
         d="M 13893,5349.4 8186.65,3847.7 6075.16,11870.8 11781.5,13372.6 13893,5349.4"
         style="fill:#daeef7;fill-opacity:1;fill-rule:nonzero;stroke:none"
         id="path48" /><path
         d="m 10423.6,12102.6 -2548.2,-670.6 -15.05,57.2 2548.25,670.6 15,-57.2"
         style="fill:#55769f;fill-opacity:1;fill-rule:nonzero;stroke:none"
         id="path50" /><path
         d="m 10920.8,12388.6 -3618.9,-952.4 -15.05,57.2 3618.85,952.4 15.1,-57.2"
         style="fill:#55769f;fill-opacity:1;fill-rule:nonzero;stroke:none"
         id="path52" /><path
         d="m 11502.9,11744.4 -4390.55,-1155.5 -15.06,57.2 4390.51,1155.5 15.1,-57.2"
         style="fill:#55769f;fill-opacity:1;fill-rule:nonzero;stroke:none"
         id="path54" /><path
         d="m 11575.3,11469.2 -4390.54,-1155.5 -15.06,57.2 4390.5,1155.5 15.1,-57.2"
         style="fill:#55769f;fill-opacity:1;fill-rule:nonzero;stroke:none"
         id="path56" /><path
         d="m 11720.1,10918.9 -4390.52,-1155.5 -15.05,57.2 4390.57,1155.5 15,-57.2"
         style="fill:#55769f;fill-opacity:1;fill-rule:nonzero;stroke:none"
         id="path58" /><path
         d="M 11792.5,10643.7 7402,9488.3 l -15.06,57.2 4390.56,1155.4 15,-57.2"
         style="fill:#55769f;fill-opacity:1;fill-rule:nonzero;stroke:none"
         id="path60" /><path
         d="m 11865,10368.6 -4390.59,-1155.5 -15.05,57.2 4390.54,1155.5 15.1,-57.2"
         style="fill:#55769f;fill-opacity:1;fill-rule:nonzero;stroke:none"
         id="path62" /><path
         d="m 12183.5,9158.4 -4390.58,-1155.5 -15.06,57.2 4390.54,1155.5 15.1,-57.2"
         style="fill:#55769f;fill-opacity:1;fill-rule:nonzero;stroke:none"
         id="path64" /><path
         d="M 12258.5,8873 7868,7717.6 l -15.05,57.2 4390.55,1155.4 15,-57.2"
         style="fill:#55769f;fill-opacity:1;fill-rule:nonzero;stroke:none"
         id="path66" /><path
         d="m 12333.6,8587.7 -4390.51,-1155.5 -15.06,57.2 4390.57,1155.5 15,-57.2"
         style="fill:#55769f;fill-opacity:1;fill-rule:nonzero;stroke:none"
         id="path68" /><path
         d="m 12408.7,8302.4 -4390.52,-1155.5 -15.06,57.2 4390.58,1155.5 15,-57.2"
         style="fill:#55769f;fill-opacity:1;fill-rule:nonzero;stroke:none"
         id="path70" /><path
         d="m 12483.8,8017.1 -4390.53,-1155.5 -15.06,57.2 4390.59,1155.5 15,-57.2"
         style="fill:#55769f;fill-opacity:1;fill-rule:nonzero;stroke:none"
         id="path72" /><path
         d="m 12558.9,7731.8 -4390.54,-1155.5 -15.06,57.2 4390.5,1155.4 15.1,-57.1"
         style="fill:#55769f;fill-opacity:1;fill-rule:nonzero;stroke:none"
         id="path74" /><path
         d="m 12634,7446.4 -4390.56,-1155.5 -15.05,57.3 4390.51,1155.4 15.1,-57.2"
         style="fill:#55769f;fill-opacity:1;fill-rule:nonzero;stroke:none"
         id="path76" /><path
         d="M 12558.6,4189.2 6449.66,1735.8 2886.62,10607.7 8020.06,13774.4 c 288.5,178 667.76,53.1 794.08,-261.4 L 12558.6,4189.2"
         style="fill:#feb546;fill-opacity:1;fill-rule:nonzero;stroke:none"
         id="path78" /><path
         d="m 4478.27,3171.5 -871.49,15.8 c -302.54,548.3 -524.55,1025.1 -524.55,1025.1 984.27,226.9 1814.95,133.8 2507.02,-132.3 l 381.37,-926.4 81.64,713.4 C 7767.43,2941.5 8474.11,982.102 8474.11,982.102 c 0,0 -3031.21,322.898 -3673.82,621.798 -248.12,115.4 -560.77,530.6 -851.12,996.8 232.31,221.2 529.1,570.8 529.1,570.8"
         style="fill:#ff5b7e;fill-opacity:1;fill-rule:nonzero;stroke:none"
         id="path80" /><path
         d="m 3082.23,4212.4 c 0,0 3891.69,-1637.7 5391.88,-3230.298 0,0 -3031.21,322.898 -3673.82,621.798 -248.12,115.4 -560.77,530.6 -851.12,996.8 232.31,221.2 529.1,570.8 529.1,570.8 l -871.49,15.8 c -302.54,548.3 -524.55,1025.1 -524.55,1025.1"
         style="fill:#e03268;fill-opacity:1;fill-rule:nonzero;stroke:none"
         id="path82" /><path
         d="m 3206.4,1594.9 c 524.03,319.1 1052.67,489.9 1564.29,558 149.94,-186.5 334.03,-405.7 334.03,-405.7 l 19.42,437 C 7087.09,2273.6 8713.63,958.402 8713.63,958.402 7576.71,241.801 6606.89,44.3008 5812.48,108.301 c -47.06,152.898 -113.69,381 -113.69,381 L 5558.45,138.199 c -380.83,59.5 -716.89,178.301 -1007.1,323.504 74.34,182.098 152.62,390.399 152.62,390.399 L 4280.89,611.703 C 3571.94,1045.2 3206.4,1594.9 3206.4,1594.9"
         style="fill:#ff5b7e;fill-opacity:1;fill-rule:nonzero;stroke:none"
         id="path84" /><path
         d="m 5812.48,108.301 c -47.06,152.898 -113.69,381 -113.69,381 L 5558.45,138.199 c -380.83,59.5 -716.89,178.301 -1007.1,323.504 74.34,182.098 152.62,390.399 152.62,390.399 L 4280.89,611.703 C 3571.94,1045.2 3206.4,1594.9 3206.4,1594.9 5493.51,1859.1 8713.63,958.402 8713.63,958.402 7576.71,241.801 6606.89,44.3008 5812.48,108.301"
         style="fill:#e03268;fill-opacity:1;fill-rule:nonzero;stroke:none"
         id="path86" /><path
         d="m 14660.1,13386.4 702.5,515.9 c -69.5,622.4 -163.4,1139.9 -163.4,1139.9 -934.7,-382.8 -1559.2,-938.4 -1970.8,-1555.1 l 223.3,-976.7 -478.4,535.4 c -866.4,-1745.8 -312.5,-3753.7 -312.5,-3753.7 0,0 2288.9,2013.3 2641.2,2628.3 136,237.4 151.6,756.9 119.6,1305.3 -317.4,46.5 -761.5,160.7 -761.5,160.7"
         style="fill:#02ccc0;fill-opacity:1;fill-rule:nonzero;stroke:none"
         id="path88" /><path
         d="m 15199.2,15042.2 c 0,0 -2232.6,-3583.7 -2538.4,-5750.1 0,0 2288.9,2013.3 2641.2,2628.3 136,237.4 151.6,756.9 119.6,1305.3 -317.4,46.5 -761.5,160.7 -761.5,160.7 l 702.5,515.9 c -69.5,622.4 -163.4,1139.9 -163.4,1139.9"
         style="fill:#06bfad;fill-opacity:1;fill-rule:nonzero;stroke:none"
         id="path90" /><path
         d="m 16608.7,12833.1 c -612.1,-41.9 -1142.4,-207.6 -1599.5,-447.3 -14.8,-238.8 -38.6,-524.1 -38.6,-524.1 l -268.1,345.7 c -1654.5,-1060 -2223.6,-3072.9 -2223.6,-3072.9 1342,71.1 2248,469.5 2859.8,980.4 -49.9,152 -127.1,376.7 -127.1,376.7 l 317.3,-205.7 c 276.6,268.4 482.4,559.4 635.6,845.5 -165.8,105.8 -349.9,230.7 -349.9,230.7 l 484.2,47.9 c 328.7,763.2 309.9,1423.1 309.9,1423.1"
         style="fill:#02ccc0;fill-opacity:1;fill-rule:nonzero;stroke:none"
         id="path92" /><path
         d="m 15338.7,10114.9 c -49.9,152 -127.1,376.7 -127.1,376.7 l 317.3,-205.7 c 276.6,268.4 482.4,559.4 635.6,845.5 -165.8,105.8 -349.9,230.7 -349.9,230.7 l 484.2,47.9 c 328.7,763.2 309.9,1423.1 309.9,1423.1 -2020.2,-1104.4 -4129.8,-3698.6 -4129.8,-3698.6 1342,71.1 2248,469.5 2859.8,980.4"
         style="fill:#06bfad;fill-opacity:1;fill-rule:nonzero;stroke:none"
         id="path94" /><path
         d="m 22224.5,10280.2 h 417.8 c -68.3,46.7 -153.8,74.7 -246.8,74.7 H 11929.9 c -547.5,0 -991.4,-393.5 -991.4,-878.9 v -558.2 c 0,-485.4 443.9,-878.8 991.4,-878.8 l 10348.5,3.1 -53.9,2238.1"
         style="fill:#e03268;fill-opacity:1;fill-rule:nonzero;stroke:none"
         id="path96" /><path
         d="M 11816.4,8917.8 V 9476 c 0,485.4 443.9,878.9 991.4,878.9 h -224.7 c -547.6,0 -991.4,-393.5 -991.4,-878.9 v -558.2 c 0,-485.3 443.8,-878.8 991.4,-878.8 h 221.7 c -546.1,1.5 -988.4,394.3 -988.4,878.8"
         style="fill:#feb546;fill-opacity:1;fill-rule:nonzero;stroke:none"
         id="path98" /><path
         d="M 14267.4,8917.8 V 9476 c 0,485.4 443.9,878.9 991.5,878.9 h -224.8 c -547.5,0 -991.4,-393.5 -991.4,-878.9 v -558.2 c 0,-485.3 443.9,-878.8 991.4,-878.8 h 221.8 c -546.2,1.5 -988.5,394.3 -988.5,878.8"
         style="fill:#feb546;fill-opacity:1;fill-rule:nonzero;stroke:none"
         id="path100" /><path
         d="m 16283.1,10352.8 c -523.7,0 -948.1,-376.3 -948.1,-840.5 v -630.8 c 0,-464.2 424.4,-840.5 948.1,-840.5 h 6515 v 141.2 h -26.9 l -1656.3,139 -334.7,1164.2 c 0,0 646.1,643.3 688.2,659.9 42.1,16.6 1302.8,66.9 1302.8,66.9 l 26.9,0.2 v 140.4 h -6515"
         style="fill:#ff5b7e;fill-opacity:1;fill-rule:nonzero;stroke:none"
         id="path102" /><path
         d="m 22375.6,9201.1 c 0,680.6 396.8,1010.6 396.8,1010.6 h -6355.9 c -481,0 -870.9,-345.6 -870.9,-772 v -485.6 c 0,-426.3 389.9,-771.9 870.9,-771.9 h 6355.9 c 0,0 -396.8,161.8 -396.8,1018.9"
         style="fill:#daeef7;fill-opacity:1;fill-rule:nonzero;stroke:none"
         id="path104" /><path
         d="m 15545.6,8951 c 0,0.1 0,0.2 0,0.2 0,0 0,-0.1 0,-0.2 m 0,1.4 c 0,0.1 0,0.2 0,0.3 0,-0.1 0,-0.2 0,-0.3"
         style="fill:#da557a;fill-opacity:1;fill-rule:nonzero;stroke:none"
         id="path106" /><path
         d="m 15571,8769 c -16.2,58.3 -25.1,119.3 -25.4,182 0,0.1 0,0.2 0,0.2 0,0.4 0,0.8 0,1.2 0,0.1 0,0.2 0,0.3 0,0.5 0,1 0,1.4 v 0 485.6 c 0,426.4 389.9,772 870.9,772 h 6355.9 v 0 c 0,0 -3968.1,-49.8 -5794.1,-386 -782.1,-144 -1192.9,-591.8 -1407.3,-1056.7"
         style="fill:#badeef;fill-opacity:1;fill-rule:nonzero;stroke:none"
         id="path108" /><path
         d="m 22052.2,5651.2 h 472.9 c -77.4,58.5 -174.2,93.5 -279.4,93.5 h -11845 c -619.7,0 -1122.08,-492.5 -1122.08,-1100 V 3946 c 0,-607.6 502.38,-1100.1 1122.08,-1100.1 l 11712.5,3.9 -61,2801.4"
         style="fill:#07085b;fill-opacity:1;fill-rule:nonzero;stroke:none"
         id="path110" /><path
         d="m 15327.6,5742.1 c -592.6,0 -1073.1,-471 -1073.1,-1052 v -789.6 c 0,-581 480.5,-1052 1073.1,-1052 h 7373.8 v 176.6 h -30.5 l -1874.6,174.1 -378.9,1457.2 c 0,0 731.3,805.2 779,826 47.7,20.8 1474.5,83.8 1474.5,83.8 l 30.5,0.3 v 175.6 h -7373.8"
         style="fill:#55769f;fill-opacity:1;fill-rule:nonzero;stroke:none"
         id="path112" /><path
         d="m 22223.1,4300.5 c 0,852 449.1,1265 449.1,1265 h -7193.6 c -544.3,0 -985.6,-432.6 -985.6,-966.3 v -607.8 c 0,-533.6 441.3,-966.3 985.6,-966.3 h 7193.6 c 0,0 -449.1,202.7 -449.1,1275.4"
         style="fill:#daeef7;fill-opacity:1;fill-rule:nonzero;stroke:none"
         id="path114" /><path
         d="m 14493,3985.8 v 0 0 m 0,1.7 c 0,0.1 0,0.2 0,0.3 0,-0.1 0,-0.2 0,-0.3 m 0,1.7 c 0,0.2 0,0.3 0,0.4 0,-0.1 0,-0.2 0,-0.4"
         style="fill:#496e9a;fill-opacity:1;fill-rule:nonzero;stroke:none"
         id="path116" /><path
         d="m 14521.7,3759.7 c -18.2,72.5 -28.2,148.2 -28.7,226.1 v 0 c 0,0.6 0,1.1 0,1.7 0,0.1 0,0.2 0,0.3 0,0.5 0,1 0,1.4 0,0.2 0,0.3 0,0.4 0,0.6 0,1.2 0,1.8 v 0 607.8 c 0,533.7 441.3,966.3 985.6,966.3 h 7193.6 v 0 c 0,0 -4491,-62.3 -6557.7,-483.1 -885.1,-180.3 -1350.2,-740.8 -1592.8,-1322.7"
         style="fill:#badeef;fill-opacity:1;fill-rule:nonzero;stroke:none"
         id="path118" /><path
         d="m 8888.22,7970.7 h -473 c 77.38,46.4 174.2,74.2 279.51,74.2 H 20544.3 c 620,0 1122.5,-390.8 1122.5,-872.9 v -554.4 c 0,-482.1 -502.5,-872.9 -1122.5,-872.9 l -11717.04,3.1 60.96,2222.9"
         style="fill:#02ccc0;fill-opacity:1;fill-rule:nonzero;stroke:none"
         id="path120" /><path
         d="m 15615.5,8042.8 c 592.9,0 1073.5,-373.7 1073.5,-834.7 v -626.6 c 0,-461 -480.6,-834.7 -1073.5,-834.7 H 8238.82 v 140.1 h 30.49 l 1875.29,138.1 379,1156.3 c 0,0 -731.52,638.9 -779.22,655.4 -47.71,16.5 -1475.07,66.5 -1475.07,66.5 l -30.49,0.2 v 139.4 h 7376.68"
         style="fill:#06bfad;fill-opacity:1;fill-rule:nonzero;stroke:none"
         id="path122" /><path
         d="m 8717.26,6898.9 c 0,676.1 -449.28,1003.8 -449.28,1003.8 h 7196.42 c 544.6,0 986,-343.3 986,-766.8 v -482.3 c 0,-423.4 -441.4,-766.7 -986,-766.7 H 8267.98 c 0,0 449.28,160.8 449.28,1012"
         style="fill:#daeef7;fill-opacity:1;fill-rule:nonzero;stroke:none"
         id="path124" /><path
         d="m 16450.4,6650.5 c 0,0.1 0,0.2 0,0.3 0,-0.1 0,-0.2 0,-0.3 m 0,1.4 c 0,0.1 0,0.2 0,0.4 0,-0.2 0,-0.3 0,-0.4"
         style="fill:#05b2a8;fill-opacity:1;fill-rule:nonzero;stroke:none"
         id="path126" /><path
         d="m 16421.7,6469.8 c -242.7,461.7 -707.9,906.5 -1593.4,1049.5 -2067.5,333.9 -6560.32,383.4 -6560.32,383.4 h 7196.42 c 544.6,0 986,-343.3 986,-766.8 v -482.3 0 c 0,-0.4 0,-0.9 0,-1.3 0,-0.2 0,-0.3 0,-0.4 0,-0.3 0,-0.7 0,-1.1 0,-0.1 0,-0.2 0,-0.3 -0.3,-62.3 -10.4,-122.8 -28.7,-180.7"
         style="fill:#badeef;fill-opacity:1;fill-rule:nonzero;stroke:none"
         id="path128" /><path
         d="m 19506.7,5744.7 h -85.4 l -1032.9,0.3 c 5.7,0.1 11.3,0.2 17,0.3 l 1122.5,-0.3 c -7.1,-0.1 -14.1,-0.2 -21.2,-0.3"
         style="fill:#aabacf;fill-opacity:1;fill-rule:nonzero;stroke:none"
         id="path130" /><path
         d="m 19498.8,5744.7 h -77.5 85.4 c -2.6,0 -5.3,0 -7.9,0"
         style="fill:#2e3f7d;fill-opacity:1;fill-rule:nonzero;stroke:none"
         id="path132" /><path
         d="m 19527.9,5745 -1122.5,0.3 c 605.2,13.1 1090.7,398.5 1090.7,872.3 V 7172 c 0,482.1 -502.6,872.9 -1122.6,872.9 h 1125.3 c 619.9,0 1122.5,-390.8 1122.5,-872.9 v -554.4 c 0,-474.5 -486.9,-860.6 -1093.4,-872.6"
         style="fill:#2ca1af;fill-opacity:1;fill-rule:nonzero;stroke:none"
         id="path134" /><path
         d="m 7993.62,2757.1 h -509.9 c 83.42,51.9 187.79,82.9 301.31,82.9 H 20559.1 c 668.4,0 1210.2,-436.6 1210.2,-975.2 v -619.5 c 0,-538.597 -541.8,-975.198 -1210.2,-975.198 l -12631.19,3.398 65.71,2483.6"
         style="fill:#feb546;fill-opacity:1;fill-rule:nonzero;stroke:none"
         id="path136" /><path
         d="m 15245.8,2837.7 c 639.1,0 1157.2,-417.5 1157.2,-932.6 V 1205 c 0,-515.098 -518.1,-932.598 -1157.2,-932.598 H 7293.55 V 429 h 32.86 L 9348.04,583.301 9756.65,1875.1 c 0,0 -788.64,713.9 -840.08,732.3 -51.43,18.4 -1590.16,74.3 -1590.16,74.3 l -32.86,0.3 v 155.7 h 7952.25"
         style="fill:#f4a640;fill-opacity:1;fill-rule:nonzero;stroke:none"
         id="path138" /><path
         d="m 7809.32,1559.6 c 0,755.4 -484.33,1121.5 -484.33,1121.5 h 7757.91 c 587,0 1062.9,-383.5 1062.9,-856.6 V 1285.6 C 16145.8,812.5 15669.9,429 15082.9,429 H 7324.99 c 0,0 484.33,179.602 484.33,1130.6"
         style="fill:#daeef7;fill-opacity:1;fill-rule:nonzero;stroke:none"
         id="path140" /><path
         d="m 8250.26,1000.4 108.57,-242.099 c 8.97,-20.102 0.02,-43.5 -19.98,-52.5 L 7771.77,451.602 c -41.04,-18.403 -80.68,28.199 -55.96,65.699 l 219.45,341.902 c 0,0 173.49,-31.703 315,141.197"
         style="fill:#07085b;fill-opacity:1;fill-rule:nonzero;stroke:none"
         id="path142" /><path
         d="m 8970.72,1000.4 108.57,-242.099 c 8.97,-20.102 0.02,-43.5 -19.98,-52.5 L 8492.24,451.602 c -41.04,-18.403 -80.69,28.199 -55.97,65.699 l 219.45,341.902 c 0,0 173.48,-31.703 315,141.197"
         style="fill:#07085b;fill-opacity:1;fill-rule:nonzero;stroke:none"
         id="path144" /><path
         d="m 21134.3,8262.7 -108.5,-242.2 c -9,-20 -0.1,-43.5 20,-52.5 l 567,-254.2 c 41.1,-18.4 80.7,28.2 56,65.8 l -219.5,341.9 c 0,0 -173.4,-31.8 -315,141.2"
         style="fill:#07085b;fill-opacity:1;fill-rule:nonzero;stroke:none"
         id="path146" /><path
         d="m 20399.5,8291.5 -108.6,-242.2 c -9,-20 0,-43.5 20,-52.4 l 567,-254.2 c 41.1,-18.4 80.7,28.1 56,65.7 l -219.4,341.9 c 0,0 -173.5,-31.8 -315,141.2"
         style="fill:#07085b;fill-opacity:1;fill-rule:nonzero;stroke:none"
         id="path148" /><path
         d="m 16145.8,1282.1 c 0,0.1 0,0.2 0,0.3 0,-0.1 0,-0.2 0,-0.3 m 0,1.6 c 0,0.1 0,0.2 0,0.3 0,-0.1 0,-0.2 0,-0.3"
         style="fill:#d19b3e;fill-opacity:1;fill-rule:nonzero;stroke:none"
         id="path150" /><path
         d="m 16114.8,1080.2 c -261.6,515.9 -763.1,1012.8 -1717.7,1172.6 -2228.8,373 -7072.11,428.3 -7072.11,428.3 h 7757.91 c 587,0 1062.9,-383.5 1062.9,-856.6 v -538.9 0 c 0,-0.5 0,-1 0,-1.6 0,-0.1 0,-0.2 0,-0.3 0,-0.5 0,-0.9 0,-1.3 0,-0.1 0,-0.2 0,-0.3 -0.3,-69.6 -11.2,-137.2 -31,-201.9"
         style="fill:#badeef;fill-opacity:1;fill-rule:nonzero;stroke:none"
         id="path152" /><path
         d="m 10195.6,7677.3 60.3,-378.2 127.4,504.2 c 0,0 -178.6,86.7 -186.4,55.1 -7.9,-31.5 -1.3,-181.1 -1.3,-181.1"
         style="fill:#07085b;fill-opacity:1;fill-rule:nonzero;stroke:none"
         id="path154" /><path
         d="m 11209.1,6863.3 55.1,-653.8 -576.9,27.6 66.5,578.9 455.3,47.3"
         style="fill:#ffc0bb;fill-opacity:1;fill-rule:nonzero;stroke:none"
         id="path156" /><path
         d="m 10722.2,6540.7 31.6,275.3 455.3,47.3 19.1,-226.4 c -90.5,-90.2 -253.3,-183.7 -506,-96.2"
         style="fill:#f99893;fill-opacity:1;fill-rule:nonzero;stroke:none"
         id="path158" /><path
         d="m 10368.4,7303.8 c 34.7,-71.7 16.3,-152.4 -41.1,-180.1 -57.4,-27.8 -132,7.9 -166.7,79.6 -34.7,71.8 -16.3,152.4 41.1,180.2 57.4,27.7 132,-7.9 166.7,-79.7"
         style="fill:#f99893;fill-opacity:1;fill-rule:nonzero;stroke:none"
         id="path160" /><path
         d="m 10284.7,7251.3 c -3,18.7 -7.1,37.2 -11.6,55.6 -17.9,74.4 -22.7,154.2 -10.2,237.3 40.1,267.5 255.3,480.8 523.3,517.9 361,49.9 679,-217.4 701.4,-571.4 37.2,23.8 80.1,31.5 119.2,16.9 75.1,-28 107.6,-126.7 72.6,-220.6 -35,-93.8 -124.2,-147.2 -199.3,-119.3 -10.4,3.9 -19.9,9.3 -28.6,15.7 -11.6,-303.1 -243.7,-551.3 -540,-565.2 -144.9,-6.8 -279.7,43.7 -384.4,132.2 -142.3,104.6 -214.2,326.6 -242.4,500.9"
         style="fill:#ffc0bb;fill-opacity:1;fill-rule:nonzero;stroke:none"
         id="path162" /><path
         d="m 10734.1,7448.9 c -1.2,-35.3 -1.5,-69.7 -3.3,-103.5 -2.2,-33 -5.8,-68.3 -19,-91.6 -13.5,-18.8 -24.1,-30.9 -24.5,-54 -0.8,-23.4 11.6,-44.3 26.9,-57.1 31.5,-26.5 72.3,-29 106.1,-20.7 -34.4,6.1 -67.5,18 -86.7,40.5 -8.9,11.2 -14.8,23.7 -12.8,35.4 1.5,12.9 5.5,15.6 21.1,37.2 11.1,18.9 14.6,38 16.7,56.4 1.7,18.5 1.5,36.5 -0.2,54.4 -3.5,35.5 -11,70.1 -24.3,103"
         style="fill:#f99893;fill-opacity:1;fill-rule:nonzero;stroke:none"
         id="path164" /><path
         d="m 10938.6,7402.3 c 1.4,-29.7 26.6,-52.7 56.3,-51.3 29.7,1.4 52.6,26.6 51.2,56.3 -1.4,29.7 -26.6,52.6 -56.3,51.2 -29.7,-1.4 -52.6,-26.5 -51.2,-56.2"
         style="fill:#333333;fill-opacity:1;fill-rule:nonzero;stroke:none"
         id="path166" /><path
         d="m 10478.4,7350.4 c 1.4,-29.7 26.6,-52.6 56.3,-51.3 29.7,1.4 52.6,26.6 51.2,56.3 -1.4,29.7 -26.6,52.6 -56.3,51.3 -29.6,-1.4 -52.6,-26.6 -51.2,-56.3"
         style="fill:#333333;fill-opacity:1;fill-rule:nonzero;stroke:none"
         id="path168" /><path
         d="m 11028.9,7037.9 c -14.2,-12.3 -28.9,-23.7 -44.5,-33.7 -15.4,-10.4 -31.3,-19.8 -47.9,-27.8 -33.1,-16 -68.3,-27.7 -104.5,-32.1 -36.1,-4.5 -72.9,-1.4 -108.4,8 -35.3,9.9 -68.9,26.2 -100.8,45.8 34.6,-29.1 63.1,-43.5 97.7,-56.2 36.2,-12.1 72.5,-16.2 113.3,-11.6 38,5 74.8,17.7 107.7,36.5 32.9,18.8 63.2,42.4 87.4,71.1"
         style="fill:#f99893;fill-opacity:1;fill-rule:nonzero;stroke:none"
         id="path170" /><path
         d="m 10871,7523.8 c 27.4,8.5 53.2,14.9 78.7,18.9 25.5,3.9 50.4,4.6 74.8,1.6 24.1,-3.2 48.5,-8.4 71.9,-19 17.9,-5.6 61.3,-31.2 72.7,-36.1 -13.3,24.4 -32.6,50.6 -56.5,65.1 -23.6,18 -53.4,28.4 -83.4,32.1 -30.2,3.6 -61,-0.8 -88.4,-11.8 -27.2,-11.1 -52.2,-27.8 -69.8,-50.8"
         style="fill:#07085b;fill-opacity:1;fill-rule:nonzero;stroke:none"
         id="path172" /><path
         d="m 10634,7497.1 c -21.7,19.2 -49.4,30.7 -78.3,36.3 -29,5.5 -60.1,3.8 -89,-5.6 -28.7,-9.5 -55.9,-25.4 -75.6,-47.6 -20.6,-18.9 -34.5,-48.4 -42.7,-75 10.3,7.2 47.8,40.7 64.3,49.6 20.9,14.9 43.7,24.8 66.8,32.7 23.3,7.6 47.9,11.7 73.6,12.8 25.8,1.1 52.4,-0.2 80.9,-3.2"
         style="fill:#07085b;fill-opacity:1;fill-rule:nonzero;stroke:none"
         id="path174" /><path
         d="m 10891.4,3796.4 c 0,0 120.3,-816.2 -668.3,-958.4 -788.54,-142.2 -1769.73,-99.7 -1769.73,-99.7 l -136.53,-1874.8 -411.68,-21 c 0,0 -1060.05,2604.9 407.21,3012.1 l 1318.6,-6.5 542.93,38.8 c 0,0 549.4,135.7 555.9,109.9 6.5,-25.9 148.7,-213.3 161.6,-200.4"
         style="fill:#06bfad;fill-opacity:1;fill-rule:nonzero;stroke:none"
         id="path176" /><path
         d="m 11616.1,3792.1 c 0,0 120.3,-816.2 -668.3,-958.4 C 10159.3,2691.5 9178.08,2734 9178.08,2734 L 9041.54,859.203 8629.86,838.199 c 0,0 -1060.05,2604.801 407.22,3012.101 l 1318.62,-6.5 542.9,38.8 c 0,0 549.4,135.7 555.9,109.9 6.5,-25.9 148.7,-213.3 161.6,-200.4"
         style="fill:#02ccc0;fill-opacity:1;fill-rule:nonzero;stroke:none"
         id="path178" /><path
         d="m 10622.8,6470.2 c 0,0 -542.9,-68.9 -680.81,-181 -137.89,-112 -801.5,-1758.1 -801.5,-1758.1 l 551.57,-646.4 1172.14,-8.6 c 0,0 879,-474 1430.6,-25.8 551.6,448.1 267.2,2008 -51.7,2344.1 -318.9,336.1 -887.7,327.5 -887.7,327.5 0,0 -517.1,-361.9 -732.6,-51.7"
         style="fill:#ff5b7e;fill-opacity:1;fill-rule:nonzero;stroke:none"
         id="path180" /><path
         d="m 11674.3,5651.5 c -19.5,-89.7 -31.3,-180.8 -39.8,-272.2 -4.7,-45.6 -6.7,-91.5 -9.3,-137.3 -1.4,-45.9 -2.5,-91.9 -1.8,-137.9 1.8,-91.9 6.8,-184.1 22.6,-275.1 15.4,-90.6 37.8,-181.5 80,-263.4 -28.4,87.3 -42.4,177.1 -52.6,267.2 -10,90.1 -13.4,181 -14.6,271.8 -1.9,90.9 0.3,181.9 3.2,273 3.2,91.1 7.4,182.3 12.3,273.9"
         style="fill:#ffffff;fill-opacity:1;fill-rule:nonzero;stroke:none"
         id="path182" /><path
         d="m 10049.7,5711.8 c -24.8,-133.5 -51.05,-266.5 -77.75,-399.3 -27.27,-132.7 -55.47,-265.1 -87.58,-396.5 -31.75,-131.4 -67.03,-261.9 -109.71,-390 -21.37,-63.9 -45.25,-127.1 -73.23,-188.3 -27.6,-61.5 -60.31,-120.9 -104.17,-172.9 49.89,46.6 86.58,105.6 119.72,165.1 32.13,60.3 59.85,122.9 83.71,186.8 24.4,63.7 45.33,128.6 65.15,193.8 19.13,65.3 36.63,131.1 52.96,197.2 15.56,66.2 30.5,132.6 43.9,199.2 12.94,66.7 25.66,133.5 36.35,200.6 22.15,134.1 39.45,268.9 50.65,404.3"
         style="fill:#ffffff;fill-opacity:1;fill-rule:nonzero;stroke:none"
         id="path184" /><path
         d="m 9776.88,4257.3 c 3.45,27.3 210.59,57.7 286.72,61.7 57.7,2.9 440.1,15.7 570.2,21.6 l -9.6,-33.5 2,-147.7 21.3,-97.8 c -114.1,-7.3 -393,-18.2 -451.1,-29.7 -77.6,-15.3 -212.21,-73.8 -212.21,-73.8 0,0 -55.98,12.7 15.15,43.4 57.06,24.6 97.16,62.8 114.16,81.8 9.8,10.9 -0.8,30.4 -7.9,28.5 -193.69,-50.8 -213.61,-59.2 -213.61,-59.2 0,0 -227.62,1.3 -1.29,52.5 135.7,30.6 184.3,48.5 196.4,63.7 5.1,6.5 -4.1,28.5 -12.3,29 -117.57,7.3 -328.55,-34.4 -270.76,-7 47.13,22.2 195.54,46.7 253.26,55.9 3.5,0.5 9.3,22 -6.5,23.4 -111.95,9.3 -277.12,-38.2 -273.92,-12.8"
         style="fill:#ffc0bb;fill-opacity:1;fill-rule:nonzero;stroke:none"
         id="path186" /><path
         d="m 11806.8,4588.2 c -47.7,-11.6 -94.7,-24.9 -142.6,-34.9 -47.5,-11.3 -95.7,-19.6 -143.4,-29.7 -96.1,-17.5 -192.5,-32.8 -289.2,-46.3 -96.7,-12.7 -193.6,-24.4 -290.8,-33.8 -96.8,-9.6 -195.2,-17.8 -291,-23.2 l -12.9,-0.7 -2.8,-11.2 c -8.3,-32.4 -13.6,-64.1 -17.7,-96.6 -4.1,-32.4 -5.8,-65 -5.7,-97.6 0.2,-32.7 3,-65.4 8.4,-97.8 6,-32.3 15.5,-63.9 28.4,-94.2 l 1.1,-2.6 2.1,-1.4 106.4,-71.5 c 35.5,-23.8 71.1,-47.4 107.1,-70.6 -33.4,26.8 -67.1,53 -101,79.1 l -101.4,78.3 3.2,-4 c -10.7,29.3 -18.2,59.6 -22.3,90.6 -3.8,31.1 -5.5,62.4 -4.6,93.8 1.1,31.4 4.2,62.7 8.6,93.8 4.5,31 10.6,62.4 18.8,91.8 l -15.7,-11.9 c 50.6,1.4 98.6,4.6 147.8,8.2 49,3.6 97.9,7.5 146.7,12.7 97.6,10 195,22.2 292,37.7 96.9,15.6 193.3,34.6 288.8,57.1 47.6,12.2 95.2,23.9 142.1,38.7 47.2,13.3 93.5,29.8 139.6,46.2"
         style="fill:#ffffff;fill-opacity:1;fill-rule:nonzero;stroke:none"
         id="path188" /><path
         d="m 7324.99,5354.2 h 2120.1 l 601.11,-1467.3 h 1021.3 c 28.5,0 51.7,-23.2 51.7,-51.7 0,-28.6 -23.2,-51.7 -51.7,-51.7 H 8029.53 l -704.54,1570.7"
         style="fill:#07085b;fill-opacity:1;fill-rule:nonzero;stroke:none"
         id="path190" /><path
         d="m 8376.25,4516.9 c 12.52,-62.6 67.02,-104.4 121.75,-93.4 54.72,10.9 88.93,70.5 76.42,133 -12.51,62.6 -67.01,104.4 -121.73,93.4 -54.73,-10.9 -88.95,-70.5 -76.44,-133"
         style="fill:#daeef7;fill-opacity:1;fill-rule:nonzero;stroke:none"
         id="path192" /><path
         d="m 10184,8035.1 c 0,0 -181,-5.8 9,147.2 189.9,153.1 699.9,332.6 1026.8,159.9 0,0 65.4,139 159.9,105.8 94.5,-33.2 -61.5,-128.8 -61.5,-128.8 0,0 120.7,3.9 157.5,-55.3 27.2,-43.7 -46.6,-45.6 -87,-43.7 68.6,-11.7 332,-178 199.8,-709 -47,10.3 -314.7,398.5 -314.7,398.5 0,0 -612.2,-340.1 -551.6,-69.6 0,0 -634.3,-395.9 -544.3,-68.9 0,0 -245.27,-18 6.1,263.9"
         style="fill:#07085b;fill-opacity:1;fill-rule:nonzero;stroke:none"
         id="path194" /><path
         d="m 11589,7508 c 0,0 -50.7,17.8 -105.2,-25.4 -54.5,-43.3 -48.5,-195.3 -48.5,-195.3 0,0 -260.2,-167.8 -232.8,542.3 29.2,755.4 217.1,-60.6 217.1,-60.6 l 169.4,-261"
         style="fill:#07085b;fill-opacity:1;fill-rule:nonzero;stroke:none"
         id="path196" /><path
         d="m 19758.3,757.5 h 5381.8 V 1056 H 19758.3 V 757.5"
         style="fill:#daeef7;fill-opacity:1;fill-rule:nonzero;stroke:none"
         id="path198" /><path
         d="m 24990,3365.2 81.6,-375.4 c 31.3,-143.9 -60.5,-285.9 -204.7,-316.3 L 20060.6,1659.2 c -147.5,-31.1 -291.3,66.5 -316.7,215.1 l -42.3,246.5 c -19.1,112 35.1,223.9 135,278.2 l 1439.4,782.9 c 30.5,16.6 63.9,27 98.4,30.7 l 3297.2,356.3 23.7,3.1 c 137.1,18.3 265.3,-71.7 294.7,-206.8"
         style="fill:#daeef7;fill-opacity:1;fill-rule:nonzero;stroke:none"
         id="path200" /><path
         d="m 20128.9,2249.7 c 0,0 -686.4,-499.9 -186.6,-1324.298 l -29.8,-212.601 -880.4,-59.699 -805.8,164.097 -149.2,1343.001 1932.4,574.5 119.4,-485"
         style="fill:#e03268;fill-opacity:1;fill-rule:nonzero;stroke:none"
         id="path202" /><path
         d="M 18115.6,270.102 H 25589 c 70.8,0 128.1,57.3 128.1,128 v 399.199 c 0,70.699 -57.3,128.101 -128.1,128.101 h -7473.4 c -70.7,0 -128,-57.402 -128,-128.101 V 398.102 c 0,-70.7 57.3,-128 128,-128"
         style="fill:#ff5b7e;fill-opacity:1;fill-rule:nonzero;stroke:none"
         id="path204" /><path
         d="M 25544.5,3451.4 20051.3,2156.1 c -44,-10.4 -89.8,-9 -133.2,3.4 -216.2,62.1 -949,216.9 -1565.6,-309.4 -145.6,-124.3 -370.5,-58.2 -422.8,125.8 l -98.3,345.6 c -31.9,111.9 14.1,231.4 112.8,293.1 797.5,499.1 4289.1,2589.3 6587.7,2430.2 216.8,-15 412.2,-135.8 522.6,-322.9 L 25653.4,3707 c 59.1,-100.2 4.2,-228.9 -108.9,-255.6"
         style="fill:#ff5b7e;fill-opacity:1;fill-rule:nonzero;stroke:none"
         id="path206" /><path
         d="m 18743.6,1450.4 c 0,-181.3 147,-328.3 328.3,-328.3 181.3,0 328.3,147 328.3,328.3 0,181.3 -147,328.3 -328.3,328.3 -181.3,0 -328.3,-147 -328.3,-328.3"
         style="fill:#ff5b7e;fill-opacity:1;fill-rule:nonzero;stroke:none"
         id="path208" /><path
         d="m 19736.7,16133.8 c 0,0 618,104.3 825.4,-586.2 l -256,-383.1 c 0,0 -536.8,206.2 -538.9,226.4 -2.1,20.2 -30.5,742.9 -30.5,742.9"
         style="fill:#ff5b7e;fill-opacity:1;fill-rule:nonzero;stroke:none"
         id="path210" /><path
         d="m 18742,15822.8 c 0,0 -180.3,-271.1 -272.2,-378.6 -231.3,-270.4 -261.1,-185.6 -404.9,-418.1 -155.2,-251.1 1.8,-408.2 91.1,-480.6 89.2,-72.4 -60.1,-340 106.2,-490 122.7,-110.7 240.2,-100.1 346.2,-89.6 82.1,8.2 157.2,16.4 222.5,-31.6 149.7,-110 182.5,-273.1 537.4,-242.3 354.9,30.8 351.5,1191.3 351.5,1191.3 0,0 -290.6,615.2 -302.1,620.3 -11.5,5.1 -675.7,319.2 -675.7,319.2"
         style="fill:#ff5b7e;fill-opacity:1;fill-rule:nonzero;stroke:none"
         id="path212" /><path
         d="m 20562.1,15547.6 c 0,0 21.1,-212.9 91.6,-335.6 177.1,-308.6 272.6,-207.5 370.7,-462.7 106,-275.5 -77.5,-400.8 -178.6,-455.4 -101.1,-54.5 -4,-345.2 -195.2,-461.8 -138.6,-84.5 -250.6,-54.9 -351.4,-25.4 -81.2,23.8 -155.2,47.6 -229.9,11.8 -167.5,-80.4 -230,-234.5 -573,-138.4 -343.1,96.1 -124.5,1235.7 -124.5,1235.7 0,0 399.6,550.7 411.8,553.6 12.3,2.8 778.5,78.2 778.5,78.2"
         style="fill:#ff5b7e;fill-opacity:1;fill-rule:nonzero;stroke:none"
         id="path214" /><path
         d="m 19665.4,14173.4 c 0,0 -592.4,108.9 -864.8,99.7 -272.3,-9.2 165.1,-717.4 165.1,-717.4 l 444.9,-9.9 c 0,0 272.7,304.6 254.8,340 -18,35.5 0.8,267.9 0.8,267.9 l -0.8,19.7"
         style="fill:#ffc0bb;fill-opacity:1;fill-rule:nonzero;stroke:none"
         id="path216" /><path
         d="m 19137.2,14738.6 -156.2,-474.3 c 0,0 136,-281.2 552.6,-159.9 0,0 -47.6,98.2 16.2,300.5 65.1,206.7 -412.6,333.7 -412.6,333.7"
         style="fill:#ffc0bb;fill-opacity:1;fill-rule:nonzero;stroke:none"
         id="path218" /><path
         d="m 19516.7,14210.6 c -0.1,0.1 -0.1,0.1 -0.2,0.1 0,34.9 4,78.6 16.1,131.2 v 0 c -12.1,-52.6 -16,-96.2 -15.9,-131.3"
         style="fill:#fd7982;fill-opacity:1;fill-rule:nonzero;stroke:none"
         id="path220" /><path
         d="m 19064,14516.5 c 0,0.2 -0.1,0.4 -0.1,0.5 l 19.1,57.8 c 0.1,-0.1 0.1,-0.1 0.2,-0.2 l -19.2,-58.1"
         style="fill:#fd7982;fill-opacity:1;fill-rule:nonzero;stroke:none"
         id="path222" /><path
         d="m 19516.5,14210.7 c -266.9,34.2 -408.6,144.2 -452.5,305.8 l 19.2,58.1 c 106.3,-137.6 267.5,-227.3 449.4,-232.7 -12.1,-52.6 -16.1,-96.3 -16.1,-131.2"
         style="fill:#fda19a;fill-opacity:1;fill-rule:nonzero;stroke:none"
         id="path224" /><path
         d="m 20090.2,15085.8 c -33.8,-77 -11.2,-161.4 50.4,-188.4 61.6,-27.1 138.9,13.4 172.7,90.4 33.9,77 11.3,161.4 -50.3,188.4 -61.6,27.1 -138.9,-13.4 -172.8,-90.4"
         style="fill:#f99893;fill-opacity:1;fill-rule:nonzero;stroke:none"
         id="path226" /><path
         d="m 20107.5,14736.1 c 40,99.2 61.6,205 73.1,297.5 2.4,19.8 6.1,39.5 10,59.1 16.1,79.2 18,163.5 1.7,250.7 -52.7,280.6 -287.9,497.2 -572,525.9 -382.6,38.6 -707.7,-255.6 -717.6,-629.8 -40.1,23.7 -85.7,30.1 -126.4,13.2 -78.1,-32.4 -108.5,-137.8 -68,-235.4 40.5,-97.6 136.7,-150.5 214.8,-118.1 10.8,4.5 20.6,10.5 29.6,17.6 24,-319.2 278.3,-572 591.4,-575.1 235,-2.4 466.3,140.1 563.4,394.4"
         style="fill:#ffc0bb;fill-opacity:1;fill-rule:nonzero;stroke:none"
         id="path228" /><path
         d="m 19699,15224.7 c -12.4,-35.3 -18.8,-72.1 -20.9,-109.7 -1,-18.8 -0.5,-37.8 2,-57.2 3,-19.2 7.5,-39.1 19.7,-58.4 14.3,-18.2 21.7,-24.3 23.8,-38.9 2.6,-12.6 -3.3,-26.3 -12.4,-38.5 -19.8,-24.6 -54.4,-38.1 -90.5,-45.4 36,-7.1 78.7,-2.6 110.5,26.4 15.6,14 27.6,36.3 25.8,60.6 -1.7,25.2 -13.1,36.4 -27.7,55.6 -7.8,11.6 -12.5,27.9 -16.2,44.4 -4,16.6 -5.2,34.3 -7.4,52 -3.1,35.6 -4.5,71.9 -6.7,109.1"
         style="fill:#f99893;fill-opacity:1;fill-rule:nonzero;stroke:none"
         id="path230" /><path
         d="m 19485.1,15167.5 c -0.3,-31.3 -26,-56.5 -57.4,-56.2 -31.3,0.3 -56.5,26 -56.2,57.4 0.4,31.3 26,56.5 57.4,56.2 31.4,-0.3 56.5,-26 56.2,-57.4"
         style="fill:#333333;fill-opacity:1;fill-rule:nonzero;stroke:none"
         id="path232" /><path
         d="m 19972.5,15130.6 c -0.4,-31.3 -26.1,-56.5 -57.4,-56.2 -31.4,0.3 -56.5,26 -56.2,57.4 0.3,31.3 26,56.5 57.3,56.2 31.4,-0.3 56.6,-26 56.3,-57.4"
         style="fill:#333333;fill-opacity:1;fill-rule:nonzero;stroke:none"
         id="path234" /><path
         d="m 19627.5,14601.9 c -4.2,0 -8.5,0.1 -12.9,0.4 -135.8,8.3 -139.5,133.4 -139.5,133.4 0,0 23.5,8.4 57.1,8.4 28.9,0 65.2,-6.2 100.6,-29.4 0,0 37.8,23.7 82.5,23.7 21.3,0 44.2,-5.4 65.2,-21.4 0,0 -28.3,-115.1 -153,-115.1"
         style="fill:#fda8a3;fill-opacity:1;fill-rule:nonzero;stroke:none"
         id="path236" /><path
         d="m 19404,14779.8 c 15.4,-12.5 31.4,-23.9 48.2,-33.9 16.6,-10.4 33.8,-19.6 51.6,-27.4 35.6,-15.6 73.1,-26.6 111.4,-29.8 38.3,-3.4 77,1.3 114,12.6 36.9,11.8 71.8,30.3 104.6,52.2 -14.6,-13.2 -30.4,-25.4 -47.2,-36.2 -16.8,-10.8 -35,-19.2 -53.6,-26.8 -18.8,-7.1 -38.5,-12.2 -58.5,-15.1 -20,-2.6 -40.4,-3.1 -60.6,-1.6 -40.3,3.8 -79.5,15.8 -115,34.4 -35.4,18.5 -68.2,42.2 -94.9,71.6"
         style="fill:#f99893;fill-opacity:1;fill-rule:nonzero;stroke:none"
         id="path238" /><path
         d="m 19551.6,15298.3 c -29.2,7.9 -56.6,13.7 -83.7,16.9 -27,3.1 -53.3,2.9 -78.9,-1.2 -25.3,-4.4 -50.8,-10.8 -75,-22.9 -18.7,-6.5 -63.6,-35.2 -75.3,-40.9 13,26.2 32.4,54.7 57,71 24.2,19.9 55.2,31.9 86.7,37 31.7,5 64.4,1.6 93.7,-9 29.2,-10.7 56.1,-27.3 75.5,-50.9"
         style="fill:#ff5b7e;fill-opacity:1;fill-rule:nonzero;stroke:none"
         id="path240" /><path
         d="m 19802.7,15279.3 c 22.2,21.1 50.9,34.3 81.2,41.4 30.3,6.9 63.2,6.3 94.1,-2.5 30.6,-8.9 59.9,-24.6 81.5,-47.3 22.5,-19.2 38.2,-49.7 48,-77.4 -11.1,7.1 -52.1,41 -69.8,49.8 -22.6,14.9 -47.1,24.4 -71.7,31.8 -24.9,7.2 -51,10.6 -78.2,10.8 -27.2,0.1 -55.2,-2.3 -85.1,-6.6"
         style="fill:#ff5b7e;fill-opacity:1;fill-rule:nonzero;stroke:none"
         id="path242" /><path
         d="m 18635,11275.9 c 0,0 -174.6,-822.1 618,-1017.3 792.6,-195.2 1792.9,-215 1792.9,-215 l 18.5,-1914.9 417.2,-47.7 c 0,0 1245,2580.3 -220.7,3088.5 l -1341,78.1 -549.6,74.3 c 0,0 -549.9,173.2 -558.1,147.4 -8.2,-25.9 -164.8,-207.4 -177.2,-193.4"
         style="fill:#f4a640;fill-opacity:1;fill-rule:nonzero;stroke:none"
         id="path244" /><path
         d="m 17898,11318 c 0,0 -174.7,-822 617.9,-1017.2 792.6,-195.2 1792.9,-215.1 1792.9,-215.1 l 18.5,-1914.8 417.2,-47.8 c 0,0 1245,2580.4 -220.7,3088.6 l -1341,78 -549.6,74.3 c 0,0 -549.9,173.3 -558.1,147.4 -8.2,-25.9 -164.8,-207.3 -177.1,-193.4"
         style="fill:#feb546;fill-opacity:1;fill-rule:nonzero;stroke:none"
         id="path246" /><path
         d="m 20548.5,10030.8 c -22.8,4.2 -45.7,8.1 -68.2,13.4 -22.6,5.2 -44.9,11.3 -66.9,17.9 -11,3.5 -22.2,7.2 -33.1,11.2 11.5,2.4 22.6,5.7 33.6,9.6 21.8,7.7 42.1,18.8 61.2,31.4 18.5,13.6 36,28.3 51.2,45.1 15.4,16.7 28.6,35.1 40.2,54.3 l -22.7,-24.7 c -8.2,-7.6 -15.7,-15.7 -24.2,-22.8 -16.2,-15 -34.2,-27.6 -52.7,-39.1 -18.7,-11.3 -38.5,-20.4 -58.8,-27.6 -20.3,-6.8 -42.2,-11.8 -62.3,-12.5 l -37.1,-1.4 32.9,-15.3 c 22.3,-10.3 44.5,-17.1 67.3,-23.5 22.8,-6.4 45.9,-10.9 69,-14.8 23.1,-3.8 46.3,-7.1 69.7,-8.8 23.3,-1.7 46.7,-2.8 70,-2.7 -23.1,3.3 -46.2,6.2 -69.1,10.3"
         style="fill:#daeef7;fill-opacity:1;fill-rule:nonzero;stroke:none"
         id="path248" /><path
         d="m 20338.5,13019.3 c 0,0 54,-1343.2 205,-1553.5 l -830.7,188.8 v 1461.8 l 625.7,-97.1"
         style="fill:#ffc0bb;fill-opacity:1;fill-rule:nonzero;stroke:none"
         id="path250" /><path
         d="m 19984.6,12835.9 c 0,0 -115.6,-338.1 -136.6,-517.6 -52.2,-446 4.5,-760.5 96.8,-1014.4 129.4,-356 -927.8,-226.5 -949.4,-215.7 -21.6,10.8 -927.8,361.4 -927.8,361.4 l -172.6,501.7 v 884.6 l 48.5,404.6 2041.1,-404.6"
         style="fill:#02ccc0;fill-opacity:1;fill-rule:nonzero;stroke:none"
         id="path252" /><path
         d="m 17452.6,13240.5 665.3,-226.6 c 0,0 -115,-1064.5 -79.1,-1215.5 30.8,-129.1 513.2,-385.8 819,-529.5 49.2,-23.1 103.4,-33 157.6,-28.5 174.2,14.3 482.9,41.2 531.3,44.6 76.1,5.2 285.4,-0.2 292.1,-26.8 6.2,-24.8 -163.5,2.5 -273.5,-20.3 -15.5,-3.1 -7.2,-23.8 -3.6,-23.9 58.4,-2.2 208.6,-8.7 258.1,-25.1 60.6,-20.2 -153.8,-4.2 -269.6,-25.5 -8.1,-1.5 -14.6,-24.5 -8.7,-30.3 13.8,-13.7 64.2,-25.5 202.6,-39.7 230.8,-23.6 5,-52.2 5,-52.2 0,0 -20.8,5.9 -219.2,33.1 -7.2,1 -15.4,-19.6 -4.4,-29.3 19.1,-16.8 63.5,-49.9 123.2,-67.5 74.2,-21.9 20.2,-41.3 20.2,-41.3 0,0 -140.6,42 -219.5,47.9 -59.1,4.4 -337.3,-18.3 -451.5,-24.8 l -8.7,19.6 c -154.7,4.5 -1389,36.5 -1507.8,801.5 -122.3,787.6 -28.8,1460.1 -28.8,1460.1"
         style="fill:#ffc0bb;fill-opacity:1;fill-rule:nonzero;stroke:none"
         id="path254" /><path
         d="m 22288.4,12478.2 h -2120.1 l -601.1,-1467.3 H 18546 c -28.6,0 -51.8,-23.2 -51.8,-51.7 0,-28.6 23.2,-51.7 51.8,-51.7 h 3037.9 l 704.5,1570.7"
         style="fill:#07085b;fill-opacity:1;fill-rule:nonzero;stroke:none"
         id="path256" /><path
         d="m 21237.2,11640.9 c -12.5,-62.6 -67.1,-104.4 -121.8,-93.4 -54.7,10.9 -88.9,70.5 -76.4,133 12.5,62.6 67,104.4 121.7,93.4 54.8,-10.9 89,-70.5 76.5,-133"
         style="fill:#daeef7;fill-opacity:1;fill-rule:nonzero;stroke:none"
         id="path258" /><path
         d="m 19665.4,14173.4 c 0,0 -402.7,-470.1 -864.8,99.7 0,0 -504.8,41.2 -877,-223.2 -372.2,-264.3 -595,-858 -595,-858 0,0 674.3,-339.8 841.5,-356 h 1871.8 c 0,0 285.9,21.6 561,161.8 0,0 -47.5,943.7 -937.5,1175.7"
         style="fill:#02ccc0;fill-opacity:1;fill-rule:nonzero;stroke:none"
         id="path260" /><path
         d="m 18416.2,13371.5 c -17.4,-58.3 -33,-117 -48.5,-175.9 -29.1,-115.4 -55.7,-225.4 -75.3,-343.6 -36.5,-1.7 -77.6,3.7 -113.7,8.8 -194.4,34.6 -322.1,89.1 -495.2,159.9 -259.3,118.2 -224.3,106.7 -354.9,171.2 151.8,-96 233.6,-139.3 344.1,-194.6 151.7,-70.3 296.6,-135.3 500.6,-171.2 89.1,-12.2 114.8,-9.5 148.7,-5.7 13.1,86.6 28.2,175.3 69.6,369.6 l 38.5,177.9 39.7,177.9 c -19.3,-57.7 -36.3,-116 -53.6,-174.3"
         style="fill:#07085b;fill-opacity:1;fill-rule:nonzero;stroke:none"
         id="path262" /><path
         d="m 19892.9,13682.3 c 26.4,-69 50.4,-138.3 71.8,-208.2 21,-69.9 39.6,-140.5 52,-211.9 11.8,-60.7 19.9,-140.8 17.1,-215.6 -2.7,-72.1 -109.4,-411.1 -140.9,-478.2 44.4,59.5 160.6,401.4 168.5,476 9,74.9 2.8,150.5 -9.8,224 -14.1,74.1 -32.7,143.1 -60.8,214.7 -26.7,69.2 -58.3,136.6 -97.9,199.2"
         style="fill:#07085b;fill-opacity:1;fill-rule:nonzero;stroke:none"
         id="path264" /><path
         d="m 18902.7,15239.5 c 0,0 691.6,166.8 1021.9,636.7 0,0 5.8,428 -629.1,330.9 -616.9,-94.3 -761.3,-694.6 -392.8,-967.6"
         style="fill:#ff5b7e;fill-opacity:1;fill-rule:nonzero;stroke:none"
         id="path266" /><path
         d="M 25760.3,4.20313 H 4216.32 c -63.66,0 -115.28,51.59767 -115.28,115.29687 v 53 c 0,63.699 51.62,115.301 115.28,115.301 H 25760.3 c 63.6,0 115.2,-51.602 115.2,-115.301 v -53 c 0,-63.6992 -51.6,-115.29687 -115.2,-115.29687"
         style="fill:#c4dfe8;fill-opacity:1;fill-rule:nonzero;stroke:none"
         id="path268" /><path
         d="m 3968.99,9628.2 4159.17,2378.9 562.15,-1113.5 -4255.78,-2251.5 -465.54,986.1"
         style="fill:#f4a640;fill-opacity:1;fill-rule:nonzero;stroke:none"
         id="path270" /><path
         d="m 11806.8,16404.4 c 0,0 -32.8,-323.4 -288.1,-345.8 255.3,-22.4 288.1,-345.9 288.1,-345.9 0,0 32.8,323.5 288.1,345.9 -255.3,22.4 -288.1,345.8 -288.1,345.8"
         style="fill:#02ccc0;fill-opacity:1;fill-rule:nonzero;stroke:none"
         id="path272" /><path
         d="m 7396.42,18889.4 c 0,0 -43.7,-430.8 -383.71,-460.7 340.01,-29.8 383.71,-460.6 383.71,-460.6 0,0 43.7,430.8 383.71,460.6 -340.01,29.9 -383.71,460.7 -383.71,460.7"
         style="fill:#feb546;fill-opacity:1;fill-rule:nonzero;stroke:none"
         id="path274" /><path
         d="m 5615.09,15035.7 c 0,0 -29.35,-289.3 -257.66,-309.3 228.31,-20 257.66,-309.4 257.66,-309.4 0,0 29.34,289.4 257.65,309.4 -228.31,20 -257.65,309.3 -257.65,309.3"
         style="fill:#ff5b7e;fill-opacity:1;fill-rule:nonzero;stroke:none"
         id="path276" /><path
         d="m 25077.7,9102.7 c 0,0 -43.6,-430.8 -383.7,-460.6 340.1,-29.8 383.7,-460.7 383.7,-460.7 0,0 43.7,430.9 383.7,460.7 -340,29.8 -383.7,460.6 -383.7,460.6"
         style="fill:#ff5b7e;fill-opacity:1;fill-rule:nonzero;stroke:none"
         id="path278" /><path
         d="m 1470.73,11926.4 c 0,0 -43.7,-430.8 -383.71,-460.6 340.01,-29.8 383.71,-460.7 383.71,-460.7 0,0 43.7,430.9 383.71,460.7 -340.01,29.8 -383.71,460.6 -383.71,460.6"
         style="fill:#02ccc0;fill-opacity:1;fill-rule:nonzero;stroke:none"
         id="path280" /><path
         d="m 26369.7,12467.8 c 0,0 -43.7,-430.9 -383.7,-460.7 340,-29.8 383.7,-460.7 383.7,-460.7 0,0 43.7,430.9 383.7,460.7 -340,29.8 -383.7,460.7 -383.7,460.7"
         style="fill:#02ccc0;fill-opacity:1;fill-rule:nonzero;stroke:none"
         id="path282" /><path
         d="m 16145.8,19154.4 c 0,0 -43.7,-430.8 -383.7,-460.6 340,-29.8 383.7,-460.7 383.7,-460.7 0,0 43.7,430.9 383.8,460.7 -340.1,29.8 -383.8,460.6 -383.8,460.6"
         style="fill:#ff5b7e;fill-opacity:1;fill-rule:nonzero;stroke:none"
         id="path284" /><path
         d="m 23430,15847 c 0,0 -23.8,-272 -208.6,-290.9 184.8,-18.8 208.6,-290.8 208.6,-290.8 0,0 23.7,272 208.5,290.8 -184.8,18.9 -208.5,290.9 -208.5,290.9"
         style="fill:#feb546;fill-opacity:1;fill-rule:nonzero;stroke:none"
         id="path286" /></g></g></svg>
