<svg width="194" height="237" viewBox="0 0 194 237" fill="none" xmlns="http://www.w3.org/2000/svg">
<path d="M39.24 126.812H153.747C156.805 126.812 159.225 129.419 159.005 132.468C156.211 171.172 124.168 171.172 96.4813 171.172C68.8733 171.172 36.9293 169.021 33.9827 132.485C33.736 129.431 36.1733 126.812 39.24 126.812Z" fill="#F6C114"/>
<path d="M39.2387 129.479C38.5027 129.479 37.82 129.779 37.3173 130.323C36.8227 130.859 36.5827 131.552 36.64 132.271C39.3387 165.708 67.6827 168.507 96.4814 168.507C124.627 168.507 153.731 168.507 156.345 132.277C156.397 131.547 156.151 130.849 155.649 130.311C155.151 129.775 154.475 129.479 153.747 129.479H39.2387ZM96.4814 173.84C73.3547 173.84 34.6427 173.84 31.324 132.7C31.1467 130.512 31.904 128.327 33.3973 126.707C34.9 125.08 37.028 124.145 39.2387 124.145H153.747C155.94 124.145 158.057 125.069 159.555 126.679C161.055 128.289 161.823 130.469 161.665 132.66C158.693 173.84 124.197 173.84 96.4814 173.84Z" fill="#232323"/>
<path d="M155.713 76.408H37.2707C35.5627 76.408 34.3907 74.668 35.044 73.0893C45.0347 48.9973 68.7746 32.048 96.492 32.048C124.209 32.048 147.949 48.9973 157.94 73.0893C158.593 74.668 157.421 76.408 155.713 76.408Z" fill="#F6C114"/>
<path d="M37.6627 73.7413H155.321C145.312 50.02 122.265 34.7147 96.492 34.7147C70.7187 34.7147 47.672 50.02 37.6627 73.7413ZM155.476 74.1107H155.489H155.476ZM155.713 79.0747H37.2707C35.5733 79.0747 33.9947 78.2307 33.0493 76.8147C32.108 75.4067 31.932 73.6307 32.5813 72.0694C43.3347 46.136 68.42 29.3813 96.492 29.3813C124.563 29.3813 149.649 46.136 160.404 72.068C161.051 73.6307 160.876 75.4067 159.933 76.8147C158.989 78.2307 157.412 79.0747 155.713 79.0747Z" fill="#232323"/>
<path d="M53.2973 59.548C52.796 59.548 52.296 59.3627 51.908 58.9867C51.1133 58.22 51.0907 56.9534 51.8587 56.1587C62.06 45.5947 75.0653 38.7054 89.4653 36.2361C90.5427 36.0481 91.5867 36.7801 91.7733 37.8681C91.9613 38.9574 91.2293 39.9907 90.14 40.1787C76.5853 42.5027 64.3427 48.9907 54.736 58.9374C54.3427 59.344 53.82 59.548 53.2973 59.548Z" fill="white"/>
<path d="M80.9866 51.5173C79.928 52.636 78.164 52.684 77.0453 51.6253C75.9267 50.5666 75.8786 48.8026 76.9373 47.684C77.9946 46.5653 82.6853 43.4253 83.804 44.484C84.9213 45.5426 82.0453 50.3986 80.9866 51.5173Z" fill="#232323"/>
<path d="M53.34 68.0627C52.0774 68.9427 50.3387 68.6307 49.46 67.3667C48.58 66.1027 48.892 64.3653 50.156 63.4853C51.4187 62.6067 56.6507 60.488 57.5293 61.752C58.4093 63.016 54.604 67.184 53.34 68.0627Z" fill="#232323"/>
<path d="M93.5893 64.824C93.3893 66.3507 91.9893 67.4267 90.4626 67.2253C88.936 67.0253 87.8613 65.6253 88.0613 64.0987C88.2613 62.572 90.216 57.2773 91.7426 57.4773C93.2693 57.6786 93.7906 63.2973 93.5893 64.824Z" fill="#232323"/>
<path d="M116.215 46.2426C117.271 47.364 117.217 49.128 116.096 50.184C114.976 51.24 113.211 51.188 112.155 50.0667C111.1 48.9467 108.235 44.084 109.356 43.028C110.476 41.972 115.159 45.1226 116.215 46.2426Z" fill="#232323"/>
<path d="M124.348 65.392C125.491 66.4227 125.58 68.1867 124.548 69.3293C123.516 70.472 121.752 70.5613 120.609 69.5293C119.468 68.4973 116.22 63.8813 117.252 62.7386C118.284 61.596 123.205 64.3587 124.348 65.392Z" fill="#232323"/>
<path d="M138.752 54.7133C139.664 55.9533 139.397 57.6987 138.156 58.6107C136.916 59.5227 135.171 59.2547 134.259 58.0147C133.347 56.7733 131.095 51.5987 132.336 50.6867C133.577 49.7747 137.841 53.472 138.752 54.7133Z" fill="#232323"/>
<path d="M49.8373 64.9533C49.8373 66.1867 48.8387 67.1867 47.604 67.1867C46.3707 67.1867 45.3707 66.1867 45.3707 64.9533C45.3707 63.72 46.3707 62.72 47.604 62.72C48.8387 62.72 49.8373 63.72 49.8373 64.9533Z" fill="white"/>
<path d="M141.087 122.425C134.441 122.425 131.068 119.199 128.092 116.353C125.409 113.787 123.289 111.759 118.784 111.759C114.279 111.759 112.16 113.787 109.476 116.353C106.501 119.199 103.128 122.425 96.4826 122.425C89.8373 122.425 86.4653 119.199 83.488 116.353C80.8053 113.787 78.688 111.759 74.1826 111.759C69.68 111.759 67.5626 113.787 64.88 116.353C61.9066 119.199 58.5333 122.425 51.8906 122.425C45.2466 122.425 41.8733 119.199 38.8986 116.353C36.548 114.104 34.52 112.164 30.848 111.816C29.3813 111.677 28.3053 110.376 28.444 108.911C28.584 107.444 29.8706 106.363 31.3506 106.507C36.8666 107.029 39.9053 109.935 42.5839 112.499C45.2679 115.064 47.3866 117.092 51.8906 117.092C56.3933 117.092 58.512 115.064 61.1933 112.499C64.168 109.652 67.5386 106.425 74.1826 106.425C80.828 106.425 84.2 109.652 87.176 112.499C89.8586 115.064 91.9773 117.092 96.4826 117.092C100.988 117.092 103.107 115.064 105.791 112.499C108.765 109.652 112.139 106.425 118.784 106.425C125.429 106.425 128.803 109.652 131.779 112.499C134.463 115.064 136.583 117.092 141.087 117.092C145.593 117.092 147.713 115.064 150.396 112.499C153.077 109.935 156.116 107.029 161.635 106.507C163.093 106.357 164.401 107.444 164.54 108.911C164.679 110.376 163.603 111.677 162.136 111.816C158.463 112.164 156.433 114.105 154.083 116.353C151.107 119.199 147.733 122.425 141.087 122.425Z" fill="#232323"/>
<path d="M97.7414 37.7307L97.4947 37.72C96.028 37.5866 94.948 36.288 95.0827 34.8213L98.0293 2.51197C98.1653 1.0453 99.472 -0.0120163 100.928 0.0973167C102.395 0.230648 103.476 1.52928 103.341 2.99595L100.393 35.3053C100.267 36.6906 99.104 37.7307 97.7414 37.7307Z" fill="#232323"/>
<path d="M100.516 4.51072C110.065 9.98938 120.631 1.13472 130.181 6.61338C129.747 12.7401 129.311 18.8653 128.877 24.9907C119.328 19.512 108.761 28.368 99.212 22.8867C99.6453 16.7614 100.081 10.636 100.516 4.51072Z" fill="white"/>
<path d="M102 21.2733C105.568 22.6573 109.485 21.9987 113.603 21.3107C117.621 20.636 122.06 19.8893 126.477 21.1187L127.393 8.22799C123.824 6.84399 119.907 7.50132 115.789 8.19199C111.771 8.86799 107.332 9.61201 102.915 8.38268L102 21.2733ZM128.876 27.6573C128.417 27.6573 127.96 27.5387 127.549 27.3027C123.601 25.0373 119.173 25.7827 114.485 26.5693C109.332 27.4347 103.488 28.4173 97.8853 25.2013C96.9986 24.692 96.4786 23.72 96.552 22.6986L97.856 4.32129C97.92 3.40662 98.452 2.58929 99.2613 2.15729C100.071 1.72262 101.045 1.73999 101.843 2.19733C105.789 4.46133 110.219 3.71596 114.907 2.93196C120.061 2.06796 125.905 1.08663 131.507 4.3013C132.395 4.81063 132.913 5.78 132.84 6.80267L131.537 25.18C131.472 26.0947 130.94 26.9133 130.131 27.344C129.739 27.5533 129.307 27.6573 128.876 27.6573Z" fill="#232323"/>
<path d="M158.124 87.792H33.9653C32.4933 87.792 31.2986 86.5987 31.2986 85.1254C31.2986 83.6534 32.4933 82.4587 33.9653 82.4587H158.124C159.596 82.4587 160.791 83.6534 160.791 85.1254C160.791 86.5987 159.596 87.792 158.124 87.792Z" fill="#232323"/>
<path d="M158.124 104.125H33.9653C32.4933 104.125 31.2986 102.932 31.2986 101.459C31.2986 99.9867 32.4933 98.792 33.9653 98.792H158.124C159.596 98.792 160.791 99.9867 160.791 101.459C160.791 102.932 159.596 104.125 158.124 104.125Z" fill="#232323"/>
<path d="M44.596 95.7373H37.2107C36.1413 95.7373 35.2667 94.8627 35.2667 93.792C35.2667 92.724 36.1413 91.848 37.2107 91.848H44.596C45.6667 91.848 46.5413 92.724 46.5413 93.792C46.5413 94.8627 45.6667 95.7373 44.596 95.7373Z" fill="#232323"/>
<path d="M66.2627 95.7373H58.8774C57.808 95.7373 56.9333 94.8627 56.9333 93.792C56.9333 92.724 57.808 91.848 58.8774 91.848H66.2627C67.3333 91.848 68.208 92.724 68.208 93.792C68.208 94.8627 67.3333 95.7373 66.2627 95.7373Z" fill="#232323"/>
<path d="M87.9293 95.7373H80.544C79.4747 95.7373 78.6 94.8627 78.6 93.792C78.6 92.724 79.4747 91.848 80.544 91.848H87.9293C89 91.848 89.8747 92.724 89.8747 93.792C89.8747 94.8627 89 95.7373 87.9293 95.7373Z" fill="#232323"/>
<path d="M109.596 95.7373H102.211C101.141 95.7373 100.267 94.8627 100.267 93.792C100.267 92.724 101.141 91.848 102.211 91.848H109.596C110.667 91.848 111.541 92.724 111.541 93.792C111.541 94.8627 110.667 95.7373 109.596 95.7373Z" fill="#232323"/>
<path d="M131.263 95.7373H123.877C122.808 95.7373 121.933 94.8627 121.933 93.792C121.933 92.724 122.808 91.848 123.877 91.848H131.263C132.333 91.848 133.208 92.724 133.208 93.792C133.208 94.8627 132.333 95.7373 131.263 95.7373Z" fill="#232323"/>
<path d="M152.929 95.7373H145.544C144.475 95.7373 143.6 94.8627 143.6 93.792C143.6 92.724 144.475 91.848 145.544 91.848H152.929C154 91.848 154.875 92.724 154.875 93.792C154.875 94.8627 154 95.7373 152.929 95.7373Z" fill="#232323"/>
<path d="M9.97979 209.654C15.9255 212.5 20.2114 210.366 23.4449 203.612C25.0755 200.206 25.5989 197.334 25.0726 195.025C24.7969 193.97 24.353 193.119 23.7383 192.328C24.8253 192.281 25.709 192.065 26.7032 191.619C28.8324 190.581 30.7411 188.372 32.344 185.024C35.5776 178.27 34.5528 173.593 28.6071 170.747L22.1996 167.679L3.57229 206.586L9.97979 209.654ZM27.7504 172.536C32.5993 174.858 33.3711 178.136 30.4968 184.14C27.6502 190.086 24.5268 191.57 19.7356 189.277L15.1753 187.093L23.1901 170.353L27.7504 172.536ZM18.8789 191.066C23.6701 193.36 24.472 196.724 21.5977 202.727C18.7235 208.731 15.6855 210.186 10.8365 207.864L6.27624 205.681L14.3186 188.883L18.8789 191.066Z" fill="black"/>
<path d="M31.8472 207.947C30.0451 213.821 31.1361 218.774 37.5606 220.745C43.7403 222.641 47.5115 219.514 49.4074 213.334L58.962 182.191L57.0652 181.609L47.5106 212.752C46.0652 217.464 43.588 220.519 38.1425 218.849C32.9418 217.253 32.1484 213.729 33.7439 208.529L43.2985 177.385L41.4018 176.803L31.8472 207.947Z" fill="black"/>
<path d="M77.2221 217.08C77.6974 213.851 77.1111 211.241 75.4818 209.126C74.9418 208.399 74.3199 207.79 73.5526 207.289C74.6403 206.932 76.1898 206.513 77.0074 205.792C78.8606 204.189 80.0398 201.451 80.599 197.652C81.7452 189.864 79.861 185.964 73.0227 184.958L64.0949 183.644L57.8137 226.32L59.7766 226.609L62.7121 206.664L68.4107 207.503C73.4762 208.248 75.9508 211.653 75.1959 216.782L73.4532 228.622L75.4794 228.92L77.2221 217.08ZM65.7595 185.959L72.7245 186.984C78.3598 187.813 79.6146 190.715 78.6361 197.363C77.6669 203.949 74.3442 206.306 68.709 205.476L63.0104 204.638L65.7595 185.959Z" fill="black"/>
<path d="M87.0989 218.704C87.1387 226.064 90.2325 230.079 96.3764 230.046C102.52 230.013 105.571 226.028 105.531 218.604L105.489 210.924L94.0972 210.986L94.1083 213.034L103.452 212.983L103.483 218.615C103.517 225.015 101.166 228.036 96.3657 228.062C91.5018 228.088 89.1175 225.093 89.0829 218.693L88.9724 198.277C88.9499 194.118 90.025 191.744 91.4261 190.456C92.8271 189.168 94.6177 188.903 96.1537 188.894C97.6897 188.886 99.483 189.132 100.898 190.405C102.313 191.677 103.35 194.04 103.372 198.2L103.378 199.224L105.426 199.212L105.42 198.188C105.38 190.765 102.287 186.877 96.143 186.911C89.9991 186.944 86.9482 190.864 86.9884 198.288L87.0989 218.704Z" fill="black"/>
<path d="M114.638 218.92C115.599 224.989 118.754 228.96 125.392 227.91C131.776 226.899 133.791 222.433 132.781 216.049L127.688 183.873L125.729 184.183L130.821 216.359C131.591 221.226 130.708 225.06 125.082 225.95C119.708 226.8 117.448 223.983 116.598 218.61L111.506 186.434L109.546 186.745L114.638 218.92Z" fill="black"/>
<path d="M133.122 182.848L145.886 224.053L160.68 219.47L160.093 217.575L147.194 221.57L141.683 203.78L152.749 200.353L152.162 198.458L141.096 201.885L135.605 184.156L148.504 180.161L147.917 178.265L133.122 182.848Z" fill="black"/>
<path d="M182.144 197.196C180.742 194.248 178.803 192.406 176.272 191.555C175.42 191.251 174.564 191.091 173.648 191.102C174.353 190.2 175.407 188.99 175.686 187.936C176.334 185.573 175.791 182.642 174.142 179.174C170.762 172.065 167.026 169.872 160.784 172.84L152.634 176.715L171.156 215.672L172.948 214.82L164.292 196.613L169.494 194.14C174.118 191.941 178.068 193.394 180.294 198.076L185.433 208.884L187.282 208.005L182.144 197.196ZM155.305 177.712L161.663 174.69C166.808 172.244 169.465 173.957 172.35 180.026C175.208 186.037 173.758 189.844 168.614 192.29L163.412 194.763L155.305 177.712Z" fill="black"/>
</svg>
