<svg width="667" height="492" viewBox="0 0 667 492" fill="none" xmlns="http://www.w3.org/2000/svg">
<g clip-path="url(#clip0)">
<path d="M555.705 458.053H599.868V458.387H555.705V458.053Z" fill="#EEEEEE"/>
<path d="M430.036 461.671H441.627V462.004H430.036V461.671Z" fill="#EEEEEE"/>
<path d="M528.781 445.671H554.371V446.004H528.781V445.671" fill="#EEEEEE"/>
<path d="M69.9459 447.912H127.536V448.245H69.9459V447.912Z" fill="#EEEEEE"/>
<path d="M139.408 447.912H147.852V448.245H139.408V447.912Z" fill="#EEEEEE"/>
<path d="M175.295 453.875H300.196V453.541H175.295V453.875Z" fill="#EEEEEE"/>
<path d="M0.000549316 436.925H666.667V436.592H0.000549316V436.925Z" fill="#EEEEEE"/>
<path d="M503.776 213.611L581.489 213.601C592.236 213.6 599.425 202.571 595.136 192.717C589.976 180.861 578.995 174.44 569.085 183.335C554.163 196.728 554.861 170.761 537.013 174.405C521.395 177.595 523.548 192.965 513.981 196.121C504.413 199.279 491.229 210.075 503.776 213.611" fill="#FCFDFD"/>
<path d="M380.647 73.924L437.367 73.9174C445.211 73.916 450.457 65.8667 447.327 58.6747C443.561 50.0214 435.547 45.3347 428.313 51.8267C417.421 61.6027 417.932 42.6494 404.905 45.3094C393.505 47.6374 395.077 58.856 388.095 61.16C381.112 63.464 371.488 71.3427 380.647 73.924" fill="#FCFDFD"/>
<path d="M492.9 436.759H483.567V138.287C483.567 121.577 497.16 107.984 513.869 107.984H522.115V117.317H513.869C502.307 117.317 492.9 126.724 492.9 138.287V436.759Z" fill="#F4F4F4"/>
<path d="M557.505 160.029H522.115V60.0614H557.505V160.029Z" fill="#EEEEEE"/>
<path d="M557.505 160.029H522.115V160.215C522.115 164.021 525.2 167.107 529.007 167.107H550.612C554.419 167.107 557.505 164.021 557.505 160.215V160.029Z" fill="#E9E9E8"/>
<path d="M550.788 80.728C550.788 86.7907 545.873 91.7067 539.809 91.7067C533.747 91.7067 528.831 86.7907 528.831 80.728C528.831 74.6627 533.747 69.748 539.809 69.748C545.873 69.748 550.788 74.6627 550.788 80.728Z" fill="#F4F4F4"/>
<path d="M550.788 78.0614C550.788 84.124 545.873 89.04 539.809 89.04C533.747 89.04 528.831 84.124 528.831 78.0614C528.831 71.996 533.747 67.0814 539.809 67.0814C545.873 67.0814 550.788 71.996 550.788 78.0614Z" fill="#FCFDFD"/>
<path d="M550.788 110.728C550.788 116.791 545.873 121.707 539.809 121.707C533.747 121.707 528.831 116.791 528.831 110.728C528.831 104.663 533.747 99.748 539.809 99.748C545.873 99.748 550.788 104.663 550.788 110.728Z" fill="#F4F4F4"/>
<path d="M550.788 108.061C550.788 114.124 545.873 119.04 539.809 119.04C533.747 119.04 528.831 114.124 528.831 108.061C528.831 101.996 533.747 97.0814 539.809 97.0814C545.873 97.0814 550.788 101.996 550.788 108.061Z" fill="#FCFDFD"/>
<path d="M550.788 140.727C550.788 146.791 545.873 151.707 539.809 151.707C533.747 151.707 528.831 146.791 528.831 140.727C528.831 134.664 533.747 129.748 539.809 129.748C545.873 129.748 550.788 134.664 550.788 140.727Z" fill="#F4F4F4"/>
<path d="M550.788 138.06C550.788 144.124 545.873 149.04 539.809 149.04C533.747 149.04 528.831 144.124 528.831 138.06C528.831 131.996 533.747 127.081 539.809 127.081C545.873 127.081 550.788 131.996 550.788 138.06Z" fill="#FCFDFD"/>
<path d="M582.545 376.347H520.956V349.465H582.545V376.347Z" fill="#EEEEEE"/>
<path d="M525.245 380.065H516.667V345.747H525.245V380.065Z" fill="#F8F8F9"/>
<path d="M586.836 380.065H578.256V345.747H586.836V380.065Z" fill="#F8F8F9"/>
<path d="M520.956 367.196H515.145C513.616 367.196 512.376 365.956 512.376 364.427V361.385C512.376 359.856 513.616 358.616 515.145 358.616H520.956V367.196Z" fill="#F8F8F9"/>
<path d="M582.545 358.616H588.356C589.885 358.616 591.125 359.856 591.125 361.385V364.427C591.125 365.956 589.885 367.196 588.357 367.196H582.545V358.616Z" fill="#F8F8F9"/>
<path d="M568.297 425.335H535.205V332.459C535.205 323.321 542.613 315.912 551.751 315.912C560.889 315.912 568.297 323.321 568.297 332.459V425.335Z" fill="#F8F8F9"/>
<path d="M574.272 436.759H529.229V427.999C529.229 423.471 532.899 419.801 537.427 419.801H566.076C570.603 419.801 574.272 423.471 574.272 427.999V436.759Z" fill="#EEEEEE"/>
<path d="M565.911 362.853C565.911 370.673 559.571 377.012 551.751 377.012C543.931 377.012 537.592 370.673 537.592 362.853C537.592 355.033 543.931 348.693 551.751 348.693C559.571 348.693 565.911 355.033 565.911 362.853" fill="#FCFDFD"/>
<path d="M555.121 362.853C555.121 364.715 553.612 366.223 551.751 366.223C549.889 366.223 548.38 364.715 548.38 362.853C548.38 360.992 549.889 359.483 551.751 359.483C553.612 359.483 555.121 360.992 555.121 362.853Z" fill="#EEEEEE"/>
<path d="M529.229 337.167C529.229 334.797 531.149 332.877 533.519 332.877H569.983C572.352 332.877 574.272 334.797 574.272 337.167C574.272 339.536 572.352 341.456 569.983 341.456H533.519C531.149 341.456 529.229 339.536 529.229 337.167Z" fill="#F4F4F4"/>
<path d="M544.551 384.709C546.92 384.709 548.84 386.629 548.84 388.999V411.166C548.84 413.536 546.92 415.456 544.551 415.456C542.181 415.456 540.26 413.536 540.26 411.166V388.999C540.26 386.629 542.181 384.709 544.551 384.709Z" fill="#EEEEEE"/>
<path d="M558.952 384.709C561.321 384.709 563.241 386.629 563.241 388.999V411.166C563.241 413.536 561.321 415.456 558.952 415.456C556.583 415.456 554.661 413.536 554.661 411.166V388.999C554.661 386.629 556.583 384.709 558.952 384.709Z" fill="#EEEEEE"/>
<path d="M96.064 436.953H92.7812C91.8203 436.953 91.0536 436.152 91.0954 435.192L94.6323 354.617H103.065L97.7474 435.377C97.6896 436.264 96.9531 436.953 96.064 436.953" fill="#F4F4F4"/>
<path d="M109.843 436.953H106.56C105.599 436.953 104.832 436.152 104.874 435.192L108.411 354.617H116.844L111.526 435.377C111.468 436.264 110.731 436.953 109.843 436.953" fill="#F4F4F4"/>
<path d="M148.105 436.953H151.388C152.349 436.953 153.116 436.152 153.073 435.192L149.537 354.617H141.104L146.421 435.377C146.48 436.264 147.216 436.953 148.105 436.953" fill="#F4F4F4"/>
<path d="M161.681 436.953H164.964C165.927 436.953 166.693 436.152 166.651 435.192L163.113 354.617H154.68L159.999 435.377C160.056 436.264 160.793 436.953 161.681 436.953" fill="#F4F4F4"/>
<path d="M117.2 344.977H110.053V307.22H117.2V344.977Z" fill="#F4F4F4"/>
<path d="M148.797 344.977H141.651V307.22H148.797V344.977Z" fill="#F4F4F4"/>
<path d="M173.004 353.029C173.004 361.382 153.695 360.599 129.876 360.599C106.057 360.599 86.7474 361.382 86.7474 353.029C86.7474 344.679 106.057 337.909 129.876 337.909C153.695 337.909 173.004 344.679 173.004 353.029Z" fill="#F8F8F9"/>
<path d="M150.391 311.331H109.361C102.878 311.331 97.486 306.343 96.9798 299.881L95.697 283.497C95.1318 276.277 100.838 270.109 108.079 270.109H151.673C158.915 270.109 164.62 276.277 164.055 283.497L162.772 299.881C162.265 306.343 156.873 311.331 150.391 311.331Z" fill="#F8F8F9"/>
<path d="M91.374 194.416L91.3746 156.224H139.809V194.416H91.374Z" fill="#F4F4F4"/>
<path d="M91.374 194.416L91.3746 156.224H88.7656V194.416H91.374Z" fill="#E3E3E2"/>
<path d="M96.312 190.523V160.117H134.871V190.523H96.312Z" fill="#FCFDFD"/>
<path d="M99.4865 188.02V162.621H131.697V188.02H99.4865Z" fill="#EEEEEE"/>
<path d="M149.801 161.869H203.12V94.252H149.801V161.869" fill="#EEEEEE"/>
<path d="M149.801 161.869H147.256V94.252H149.801V161.869Z" fill="#E3E3E2"/>
<path d="M155.237 154.976H197.684V101.145H155.237V154.976" fill="#F8F8F9"/>
<path d="M158.732 150.544H194.189L194.191 105.577H158.732V150.544Z" fill="#FCFDFD"/>
<path d="M169.445 121.447C169.445 121.447 175.712 130.311 178.932 130.171C181.881 130.041 186.892 121.447 186.892 121.447C186.892 121.447 180.624 112.583 177.405 112.724C174.456 112.853 169.445 121.447 169.445 121.447Z" fill="#EEEEEE"/>
<path d="M185.844 141.073C187.696 137.497 178.011 129.993 173.987 130.171C170.3 130.332 162.604 137.672 164.037 141.073C166.152 146.099 183.339 145.916 185.844 141.073" fill="#F4F4F4"/>
<path d="M82.1312 102.511C82.1312 121.043 92.9058 136.065 106.197 136.065C119.489 136.065 130.265 121.043 130.265 102.511C130.265 83.9787 119.489 68.9547 106.197 68.9547C92.9058 68.9547 82.1312 83.9787 82.1312 102.511Z" fill="#E3E3E2"/>
<path d="M84.9954 102.511C84.9954 121.043 95.7703 136.065 109.062 136.065C122.354 136.065 133.129 121.043 133.129 102.511C133.129 83.9787 122.354 68.9547 109.062 68.9547C95.7703 68.9547 84.9954 83.9787 84.9954 102.511Z" fill="#EEEEEE"/>
<path d="M88.5588 102.511C88.5588 118.299 97.7386 131.097 109.062 131.097C120.386 131.097 129.565 118.299 129.565 102.511C129.565 86.7227 120.386 73.924 109.062 73.924C97.7386 73.924 88.5588 86.7227 88.5588 102.511Z" fill="#E9E9E8"/>
<path d="M90.7369 102.511C90.7369 116.621 98.9417 128.061 109.062 128.061C119.183 128.061 127.387 116.621 127.387 102.511C127.387 88.4 119.183 76.96 109.062 76.96C98.9417 76.96 90.7369 88.4 90.7369 102.511Z" fill="#FCFDFD"/>
<path d="M114.815 116.396C114.815 116.396 121.13 110.841 120.463 102.175C120.463 102.175 112.908 101.285 113.13 113.952C113.13 113.952 104.611 105.113 107.13 99.508C111.06 90.76 111.06 90.76 108.286 85.2853C108.286 85.2853 100.852 88.2854 104.241 98.396C104.241 98.396 104.378 103.285 105.421 106.175C105.421 106.175 97.9413 99.0107 95.5355 103.704C95.5355 103.704 99.5189 111.285 105.421 108.135C105.421 108.135 112.055 119.755 114.815 116.396Z" fill="#EEEEEE"/>
<path d="M585.423 476.582C585.423 484.92 469.68 491.678 326.904 491.678C184.128 491.678 68.3849 484.92 68.3849 476.582C68.3849 468.244 184.128 461.484 326.904 461.484C469.68 461.484 585.423 468.244 585.423 476.582Z" fill="#F8F8F9"/>
<path d="M429.039 187.537C425.459 183.809 422.904 176.832 421.665 172.412L416.055 185.931C417.896 188.109 418.755 191.203 418.129 193.687C418.099 193.807 417.929 196.072 414.199 198.395C414.199 198.395 414.88 212.08 423.024 210.135C431.168 208.191 435.6 191.971 435.6 191.971L436.183 187.368C436.183 187.368 432.359 190.484 429.039 187.537Z" fill="#F9B1BD"/>
<path d="M358.281 248.415C358.281 248.415 380.263 249.317 390.032 246.641C399.801 243.964 408.085 226.9 408.085 226.9L396.953 220.748L385.88 237.22L358.3 241.635L350.38 235.996C350.38 235.996 334.367 232.584 334.367 234.655C334.367 236.724 342.616 238.424 342.616 238.424C342.616 238.424 343.101 248.265 346.499 248.561C349.896 248.857 358.281 248.415 358.281 248.415Z" fill="#F9B1BD"/>
<path d="M412.093 201.372C412.093 201.372 402.575 202.704 396.349 214.24C390.124 225.776 395.433 226.229 400.705 229.495C405.979 232.759 408.619 233.451 411.04 226.373C413.461 219.295 418.251 200.664 412.093 201.372" fill="#4870C0"/>
<path d="M393.108 155.445C393.108 155.445 386.176 157.9 390.753 164.96C395.331 172.021 386.097 176.804 401.627 178.755C417.156 180.705 402.175 152.612 402.175 152.612L393.108 155.445" fill="#1D2A30"/>
<path d="M452.828 199.713C450.509 184.616 441.716 184.881 433.155 188.255C433.755 193.944 433.772 201.2 425.552 205.713C418.151 209.777 415.264 203.107 415.103 197.413C407.351 201.829 400.861 207.493 402.987 218.696C404.203 225.107 409.849 232.132 415.639 241.051C422.557 251.709 429.677 263.828 429.677 263.828L469.229 243.687C469.229 243.687 455.344 216.08 452.828 199.713" fill="#4870C0"/>
<path d="M452.755 216.928H457.661V199.248H452.755V216.928Z" fill="#CECDCC"/>
<path d="M457.66 216.927C448.891 209.577 442.291 197.959 442.291 197.959L445.409 192.991L451.399 194.004C451.957 195.489 452.417 197.223 452.755 199.248C452.78 199.401 452.804 199.556 452.828 199.713C453.604 204.761 455.461 210.879 457.66 216.927" fill="#395EB4"/>
<path d="M463.404 194.916C463.404 194.916 476.975 204.201 481.119 207.776C487.288 213.101 503.927 231.071 503.927 231.071L514.117 236.651V243.096L509.299 246.429C507.812 247.456 505.773 247.068 504.768 245.567L498.588 236.331C498.588 236.331 483.332 222.389 477.721 218.416C472.979 215.056 457.581 206.805 457.581 206.805L463.404 194.916" fill="#F9B1BD"/>
<path d="M438.352 186.856C438.352 186.856 447.087 182.921 454.548 186.856C462.009 190.791 465.288 192.957 464.557 197.707C463.829 202.439 461.1 212.265 456.187 210.627C451.272 208.989 435.621 193.476 438.352 186.856" fill="#4870C0"/>
<path d="M423.737 161.156C424.747 171.375 425.397 175.676 421.127 181.691C414.703 190.743 401.937 189.753 397.888 180.044C394.247 171.305 393.203 156.075 402.449 150.449C409.036 146.396 417.66 148.449 421.713 155.036C422.855 156.891 423.548 158.985 423.737 161.156Z" fill="#F9B1BD"/>
<path d="M402.252 168.972C401.824 170.969 401.123 172.9 400.168 174.707C401.112 175.181 402.219 175.213 403.188 174.795L402.252 168.972Z" fill="#F5782F"/>
<path d="M409.076 162.147L409.225 161.997C409.337 161.803 409.269 161.555 409.075 161.443L409.067 161.439C407.74 160.637 406.105 160.533 404.688 161.16C404.493 161.268 404.419 161.509 404.516 161.709C404.619 161.905 404.857 161.984 405.056 161.887C406.235 161.388 407.581 161.487 408.676 162.151C408.801 162.219 408.952 162.217 409.076 162.147" fill="#1D2A30"/>
<path d="M393.811 164.72L393.981 164.597C394.783 163.607 396.009 163.059 397.281 163.124C397.504 163.156 397.709 163 397.74 162.779L397.741 162.773C397.764 162.548 397.604 162.345 397.379 162.316C395.833 162.217 394.333 162.871 393.353 164.071C393.201 164.236 393.212 164.493 393.377 164.645C393.495 164.753 393.664 164.783 393.811 164.72" fill="#1D2A30"/>
<path d="M407.848 166.672C407.981 167.491 407.652 168.227 407.108 168.32C406.564 168.412 406.029 167.815 405.901 166.983C405.775 166.149 406.097 165.428 406.632 165.339C407.165 165.249 407.709 165.844 407.848 166.672" fill="#1D2A30"/>
<path d="M398.535 168.177C398.669 168.995 398.34 169.732 397.805 169.82C397.272 169.909 396.728 169.316 396.589 168.487C396.452 167.659 396.785 166.932 397.319 166.843C397.852 166.755 398.408 167.344 398.535 168.177" fill="#1D2A30"/>
<path d="M397.563 166.849L395.495 166.603C395.495 166.603 396.763 167.977 397.563 166.849Z" fill="#1D2A30"/>
<path d="M406.875 165.345L404.807 165.097C404.807 165.097 406.075 166.472 406.875 165.345Z" fill="#1D2A30"/>
<path d="M409.836 178.587C410.344 178.335 410.827 178.037 411.281 177.699C411.413 177.603 411.443 177.417 411.347 177.287L411.341 177.279C411.245 177.149 411.064 177.12 410.933 177.213C408.919 178.767 406.288 179.277 403.839 178.588C403.685 178.528 403.512 178.605 403.452 178.759C403.393 178.913 403.469 179.085 403.623 179.145C405.688 179.769 407.916 179.569 409.836 178.587" fill="#1D2A30"/>
<path d="M401.677 155.557C397.709 156.029 387.008 159.076 388.707 149.127C390.404 139.179 409.452 134.204 418.309 140.635C427.165 147.064 433.96 146.58 440.996 141.363C448.033 136.145 451.429 138.208 460.408 143.061C460.408 143.061 455.555 151.432 457.86 156.528C457.86 156.528 452.521 151.189 442.573 156.892C442.573 156.892 454.099 153.831 458.467 161.792C458.467 161.792 457.253 170.581 461.5 175.808C465.745 181.035 461.379 187.223 445.121 180.913C435.608 177.221 431.068 177.672 428.188 178.123C426.147 178.443 424.94 178.763 423.387 177.607C419.643 174.82 416.821 167.276 416.247 161.792C415.833 157.852 414.072 154.083 401.677 155.557" fill="#1D2A30"/>
<path d="M425.132 168.185C424.875 170.155 423.845 171.94 422.269 173.148C420.168 174.733 418.161 173.089 417.941 170.604C417.744 168.376 418.599 164.855 421.096 164.244C422.927 163.855 424.728 165.024 425.117 166.856C425.209 167.293 425.215 167.745 425.132 168.185Z" fill="#F9B1BD"/>
<path d="M478.688 450.725C479.045 459.251 479.293 466.003 479.293 466.003L469.831 467.084C469.831 467.084 468.923 461.321 467.557 452.485L478.688 450.725Z" fill="#F9B1BD"/>
<path d="M464.02 463.295C463.875 463.301 463.732 463.331 463.595 463.378C463.411 463.421 463.256 463.548 463.176 463.72C463.027 464.008 463.093 464.14 463.163 464.212C463.641 464.8 466.028 464.663 467.773 464.332C466.599 463.752 465.325 463.4 464.02 463.295V463.295ZM465.643 465.04C464.467 465.113 463.237 464.977 462.815 464.497C462.595 464.213 462.576 463.823 462.769 463.52C462.912 463.251 463.152 463.047 463.443 462.951C464.993 462.416 468.415 464.091 468.565 464.165L468.688 464.391L468.519 464.587C467.575 464.821 466.612 464.973 465.643 465.04Z" fill="#4870C0"/>
<path d="M465.927 460.901L465.796 460.899C465.396 460.959 465.38 461.123 465.367 461.182C465.349 461.827 466.943 463.335 468.159 463.953C467.979 462.888 467.476 461.904 466.717 461.135C466.491 460.964 466.209 460.882 465.927 460.902V460.901ZM468.483 464.585L468.389 464.583C467.227 464.153 464.823 462.247 464.956 461.171C464.963 460.912 465.136 460.588 465.749 460.487C466.196 460.411 466.656 460.52 467.02 460.789C468.288 461.704 468.704 464.239 468.724 464.356L468.636 464.565L468.483 464.585" fill="#4870C0"/>
<path d="M469.4 463.2L479.725 462.541C480.115 462.516 480.469 462.764 480.579 463.139L482.981 471.419C483.2 472.152 482.783 472.924 482.049 473.143L481.761 473.196C478.035 473.37 474.712 473.376 470.079 473.678C464.611 474.029 466.039 474.595 459.616 475.097C455.745 475.395 454.756 471.037 456.384 470.716C463.841 469.289 464.477 466.97 467.205 464.095C467.803 463.537 468.584 463.22 469.4 463.2" fill="#1D2A30"/>
<path d="M472.935 249.632L471.132 243.167C470.912 242.377 470.024 241.985 469.291 242.353L428.948 262.7C428.243 263.056 428.013 263.951 428.461 264.601L432.552 270.544C432.552 270.544 442.563 338.764 446.719 361.441C450.955 384.556 466.137 453.699 466.137 453.699C466.237 454.211 466.725 454.551 467.24 454.466L478.992 452.56C479.452 452.487 479.792 452.099 479.803 451.633C479.939 445.739 479.845 408.484 476.091 382.129C474.749 372.716 471.585 365.172 470.509 359.985C469.321 354.261 471.159 350.423 471.884 336.643C473.249 310.695 474.88 269.792 472.935 249.632" fill="#1D2A30"/>
<path d="M471.785 338.359C471.82 337.804 471.852 337.232 471.884 336.643C472.128 332.004 472.38 326.889 472.62 321.499C472.38 326.889 472.128 332.005 471.884 336.643C471.853 337.233 471.82 337.805 471.785 338.359Z" fill="#7A7B7C"/>
<path d="M471.513 341.981C460.064 318.936 451.345 282.255 451.345 282.255L456.279 275.545L461.5 287.192L473.199 306.929C473.025 311.903 472.828 316.805 472.62 321.499C472.38 326.889 472.128 332.004 471.884 336.643C471.852 337.232 471.82 337.804 471.785 338.359C471.703 339.657 471.611 340.856 471.513 341.981" fill="#151717"/>
<path d="M560.66 418.113C565.575 425.088 568.764 429.671 568.764 429.671L561.392 435.701C561.392 435.701 557.509 431.347 551.58 424.656L560.66 418.113Z" fill="#F9B1BD"/>
<path d="M553.905 435.578L553.593 435.878C553.46 436.015 553.399 436.205 553.424 436.392C553.456 436.717 553.584 436.79 553.68 436.815C554.4 437.051 556.333 435.643 557.623 434.42C556.321 434.568 555.06 434.961 553.905 435.578V435.578ZM556.212 436.168C555.264 436.868 554.156 437.417 553.541 437.241C553.203 437.123 552.976 436.804 552.976 436.445C552.949 436.141 553.04 435.839 553.232 435.603C554.248 434.313 558.029 433.87 558.197 433.851L558.423 433.975L558.387 434.229C557.72 434.939 556.992 435.587 556.212 436.168" fill="#4870C0"/>
<path d="M554.212 432.536L554.101 432.603C553.797 432.871 553.872 433.016 553.893 433.073C554.228 433.624 556.384 434.032 557.743 433.894C557.013 433.096 556.059 432.54 555.004 432.303C554.721 432.282 554.439 432.364 554.212 432.536ZM558.356 434.248L558.276 434.297C557.065 434.565 554.012 434.264 553.541 433.285C553.408 433.065 553.377 432.699 553.839 432.282C554.173 431.976 554.619 431.82 555.072 431.848C556.632 431.931 558.353 433.837 558.435 433.925L558.475 434.149L558.356 434.248" fill="#4870C0"/>
<path d="M558.377 432.588L566.704 426.444C567.016 426.215 567.449 426.229 567.744 426.487L574.245 432.149C574.827 432.647 574.893 433.521 574.395 434.103L574.181 434.303C571.141 436.465 568.351 438.271 564.619 441.032C560.209 444.285 561.719 443.988 556.588 447.888C553.495 450.232 550.304 447.104 551.5 445.952C556.999 440.717 556.277 438.423 557.015 434.528C557.216 433.735 557.701 433.045 558.377 432.588Z" fill="#1D2A30"/>
<path d="M443.387 266.081C443.387 266.081 474.284 337.307 488.883 358.529C501.847 377.376 551.103 425.617 551.103 425.617C551.859 426.433 553.124 426.508 553.972 425.787L560.809 419.976C561.589 419.313 561.772 418.182 561.236 417.309C557.044 410.471 539.355 382.035 523.845 363.531C517.66 356.149 511.705 350.745 508.78 346.672C504.921 341.301 505.825 336.989 502.771 322.071C497.092 294.332 486.033 253.532 469.229 247.003L443.387 266.081Z" fill="#1D2A30"/>
<path d="M383.749 467.305C388.104 467.305 392.2 465.54 395.304 462.687C392.201 465.54 388.104 467.305 383.749 467.305" fill="#C0D2EF"/>
<path d="M384.361 460.305H258.508C254.481 460.305 251.319 457.578 250.617 453.875H300.196V453.541H250.561C250.503 453.144 250.472 452.736 250.472 452.32C250.471 452.061 250.483 451.8 250.505 451.536L251.784 436.925H395.176L393.899 451.536C393.475 456.372 389.197 460.305 384.361 460.305V460.305ZM395.205 436.592H251.813L257.016 377.127H289.227C290.269 379.053 292.303 380.332 294.745 380.332H322.044C325.825 380.332 329.159 377.268 329.489 373.487L331.877 346.188C332.208 342.407 329.411 339.341 325.629 339.341H323.628V325.965C324.855 326.755 326.336 327.209 327.964 327.209H339.34V369.516C339.34 373.713 342.755 377.127 346.949 377.127H400.408L395.205 436.592V436.592ZM400.437 376.794H346.949C342.937 376.794 339.673 373.529 339.673 369.516V327.209H362.087C366.813 327.209 370.98 323.377 371.393 318.651L374.379 284.528C374.792 279.801 371.296 275.969 366.569 275.969H339.673V266.669C344.419 266.264 348.459 262.313 348.88 257.499L349.653 248.664C349.695 248.664 349.735 248.664 349.776 248.664C353.568 248.664 358.281 248.415 358.281 248.415C358.281 248.415 361.848 248.561 366.747 248.561C374.008 248.561 384.197 248.24 390.032 246.641C396.411 244.893 402.155 237.013 405.375 231.753C405.709 231.828 406.029 231.867 406.336 231.867C407.24 231.867 408.033 231.529 408.763 230.759C409.979 232.627 411.312 234.577 412.7 236.629L400.437 376.794V376.794ZM404.567 310.808C404.565 311.305 404.975 311.573 405.377 311.573C405.749 311.573 406.116 311.347 406.157 310.867C406.333 308.864 406.508 306.861 406.683 304.859C406.685 304.831 406.687 304.804 406.687 304.777C406.688 304.279 406.28 304.012 405.876 304.012C405.505 304.012 405.137 304.237 405.096 304.719C404.921 306.72 404.745 308.723 404.569 310.725C404.568 310.753 404.567 310.781 404.567 310.808V310.808ZM405.763 297.141C405.761 297.639 406.169 297.907 406.573 297.907C406.944 297.907 407.312 297.68 407.353 297.2C407.963 290.229 408.573 283.261 409.183 276.291C409.185 276.263 409.187 276.236 409.187 276.209C409.187 275.712 408.779 275.445 408.376 275.445C408.004 275.445 407.637 275.671 407.595 276.152C406.985 283.12 406.376 290.091 405.765 297.059C405.764 297.087 405.763 297.115 405.763 297.141ZM289.059 376.794H257.044L278.156 135.481C278.58 130.647 282.857 126.713 287.693 126.713H323.295V159.043C320.853 160.368 319.065 162.869 318.815 165.739L316.128 196.449C315.756 200.703 318.901 204.152 323.156 204.152H323.295V211.592H306.991C301.907 211.592 297.425 215.713 296.981 220.797L293.769 257.499C293.325 262.583 297.085 266.704 302.169 266.704H323.295V283.481C323.223 283.824 323.171 284.173 323.14 284.528L320.155 318.651C319.896 321.599 321.16 324.2 323.295 325.739V339.341H298.332C294.551 339.341 291.217 342.407 290.887 346.188L288.499 373.487C288.393 374.685 288.603 375.813 289.059 376.794V376.794ZM323.628 282.299V266.704H338.871C339.028 266.704 339.184 266.7 339.34 266.692V275.969H332.447C328.491 275.969 324.928 278.653 323.628 282.299V282.299ZM358.3 241.635L350.739 236.252L352.091 220.797C352.536 215.713 348.776 211.592 343.692 211.592H339.673V204.152H353.867C358.121 204.152 361.871 200.703 362.243 196.449L364.929 165.739C365.301 161.484 362.155 158.036 357.901 158.036H339.673V126.713H413.547C418.119 126.713 421.576 130.228 421.583 134.697C421.584 134.956 421.572 135.217 421.549 135.481L420.945 142.381C420.087 141.869 419.208 141.288 418.309 140.635C415.573 138.649 411.868 137.751 408 137.751C399.343 137.751 389.88 142.251 388.707 149.127C387.967 153.461 389.581 155.329 391.967 156.019C390.809 156.731 389.189 158.151 389.191 160.524C389.191 161.741 389.619 163.209 390.753 164.96C391.947 166.801 392.201 168.488 392.201 170.009C392.201 171.148 392.057 172.196 392.057 173.147C392.059 175.221 392.748 176.836 397.107 177.948C397.351 178.68 397.612 179.381 397.888 180.044C400.055 185.24 404.716 187.937 409.567 187.937C411.828 187.937 414.131 187.351 416.24 186.157C416.525 186.519 416.785 186.904 417.015 187.304L416.176 196.896C415.873 197.181 415.521 197.476 415.116 197.775C415.111 197.653 415.105 197.533 415.103 197.413C412.244 199.043 409.557 200.841 407.411 203.024C404.132 204.683 399.749 207.939 396.349 214.24C393.277 219.932 393.015 222.925 394.169 224.891L385.88 237.22L358.3 241.635ZM339.34 211.592H323.628V204.152H339.34V211.592ZM323.628 158.871V126.713H339.34V158.036H327.191C325.935 158.036 324.723 158.337 323.628 158.871" fill="#C7D9F2"/>
<path d="M300.196 453.875H250.617C250.596 453.764 250.577 453.653 250.561 453.541H300.196V453.875Z" fill="#B7CAEC"/>
<path d="M289.227 377.127H257.016L257.044 376.794H289.059C289.112 376.907 289.168 377.017 289.227 377.127V377.127ZM323.628 339.341H323.295V325.739C323.404 325.817 323.515 325.893 323.628 325.965V339.341ZM323.295 283.481V266.704H323.628V282.299C323.491 282.683 323.379 283.077 323.295 283.481ZM323.628 211.592H323.295V204.152H323.628V211.592ZM323.295 159.043V126.713H323.628V158.871C323.516 158.925 323.404 158.983 323.295 159.043Z" fill="#B7CAEC"/>
<path d="M400.408 377.127H346.949C342.755 377.127 339.34 373.713 339.34 369.516V327.209H339.673V369.516C339.673 373.529 342.937 376.794 346.949 376.794H400.437L400.408 377.127ZM339.673 275.969H339.34V266.692C339.452 266.687 339.563 266.679 339.673 266.669V275.969ZM339.673 211.592H339.34V204.152H339.673V211.592ZM339.673 158.036H339.34V126.713H339.673V158.036Z" fill="#B7CAEC"/>
<path d="M395.176 436.925H251.784L251.813 436.592H395.205L395.176 436.925Z" fill="#B7CAEC"/>
<path d="M415.759 201.671C415.387 200.427 415.18 199.081 415.116 197.775C415.521 197.476 415.873 197.181 416.176 196.896L415.759 201.671" fill="#D2A5D8"/>
<path d="M417.015 187.304C416.785 186.904 416.525 186.519 416.24 186.157C416.525 186.517 416.784 186.9 417.016 187.299L417.015 187.304Z" fill="#B3C6EA"/>
<path d="M417.016 187.299C416.784 186.9 416.525 186.517 416.24 186.157C416.552 185.981 416.861 185.791 417.165 185.587L417.016 187.299Z" fill="#BD97CC"/>
<path d="M349.776 248.664C349.735 248.664 349.695 248.664 349.653 248.664L350.739 236.252L358.3 241.635L385.88 237.22L394.169 224.891C395.355 226.908 398.035 227.84 400.705 229.495C402.549 230.636 404.072 231.463 405.375 231.753C402.155 237.013 396.411 244.893 390.032 246.641C384.197 248.24 374.008 248.561 366.747 248.561C361.848 248.561 358.281 248.415 358.281 248.415C358.281 248.415 353.568 248.664 349.776 248.664" fill="#D2A5D8"/>
<path d="M406.336 231.867C406.029 231.867 405.709 231.828 405.375 231.753C404.072 231.463 402.549 230.636 400.705 229.495C398.035 227.84 395.355 226.908 394.169 224.891C393.015 222.925 393.277 219.932 396.349 214.24C399.749 207.939 404.132 204.683 407.411 203.024C404.316 206.172 402.344 210.117 402.601 215.509C402.575 215.94 402.097 223.951 402.908 230.765C404.221 231.452 405.345 231.859 406.337 231.86C407.239 231.86 408.032 231.523 408.76 230.756C408.761 230.756 408.761 230.757 408.763 230.759C408.033 231.529 407.24 231.867 406.336 231.867" fill="#4870C0"/>
<path d="M406.337 231.86C405.345 231.859 404.221 231.452 402.908 230.765C402.097 223.951 402.575 215.94 402.601 215.509C402.649 216.519 402.775 217.58 402.987 218.696C403.693 222.424 405.9 226.36 408.76 230.756C408.032 231.523 407.239 231.86 406.337 231.86Z" fill="#436ABC"/>
<path d="M397.107 177.948C392.748 176.836 392.059 175.221 392.057 173.147C392.057 172.196 392.201 171.148 392.201 170.009C392.201 168.488 391.947 166.801 390.753 164.96C389.619 163.209 389.191 161.741 389.191 160.524C389.189 158.151 390.809 156.731 391.967 156.019C392.836 156.269 393.808 156.363 394.805 156.363C395.645 156.363 396.503 156.296 397.332 156.2C396.389 158.135 395.799 160.307 395.495 162.573C394.668 162.861 393.923 163.373 393.353 164.071C393.201 164.236 393.212 164.493 393.377 164.645C393.455 164.716 393.552 164.753 393.652 164.753C393.705 164.753 393.76 164.743 393.811 164.72L393.981 164.597C394.367 164.121 394.849 163.748 395.388 163.495C394.899 168.416 395.693 173.696 397.107 177.948Z" fill="#203A69"/>
<path d="M412.7 236.629C411.312 234.577 409.979 232.627 408.763 230.759C408.761 230.757 408.761 230.756 408.76 230.756C405.9 226.36 403.693 222.424 402.987 218.696C402.775 217.58 402.649 216.519 402.601 215.509C402.344 210.117 404.316 206.172 407.411 203.024C409.557 200.841 412.244 199.043 415.103 197.413C415.105 197.533 415.111 197.653 415.116 197.775C415.18 199.081 415.387 200.427 415.759 201.671L412.7 236.629Z" fill="#4870C0"/>
<path d="M409.567 187.937C404.716 187.937 400.055 185.24 397.888 180.044C397.612 179.381 397.351 178.68 397.107 177.948C395.693 173.696 394.899 168.416 395.388 163.495C395.911 163.249 396.487 163.119 397.077 163.119C397.145 163.119 397.213 163.12 397.281 163.124C397.3 163.127 397.32 163.128 397.339 163.128C397.539 163.128 397.712 162.981 397.74 162.779L397.741 162.773C397.764 162.548 397.604 162.345 397.379 162.316C397.276 162.309 397.173 162.307 397.072 162.307C396.529 162.307 395.997 162.399 395.495 162.573C395.799 160.307 396.389 158.135 397.332 156.2C399.023 156.004 400.599 155.685 401.677 155.557C403.559 155.333 405.196 155.231 406.619 155.231C414.576 155.231 415.896 158.449 416.247 161.792C416.48 164.016 417.083 166.58 417.967 169.027C417.905 169.584 417.899 170.124 417.941 170.604C417.991 171.164 418.132 171.681 418.343 172.128L417.165 185.587C416.861 185.791 416.552 185.981 416.24 186.157C414.131 187.351 411.828 187.937 409.567 187.937V187.937ZM403.731 178.568C403.611 178.568 403.499 178.64 403.452 178.759C403.393 178.913 403.469 179.085 403.623 179.145C404.412 179.384 405.225 179.501 406.036 179.501C407.347 179.503 408.649 179.193 409.836 178.587C410.344 178.335 410.827 178.037 411.281 177.699C411.413 177.603 411.443 177.417 411.347 177.287L411.341 177.279C411.283 177.2 411.195 177.159 411.104 177.159C411.044 177.159 410.985 177.176 410.933 177.213C409.509 178.312 407.776 178.888 406.017 178.888C405.289 178.888 404.556 178.789 403.839 178.588C403.803 178.575 403.767 178.568 403.731 178.568V178.568ZM402.252 168.972C401.824 170.969 401.123 172.9 400.168 174.707C400.672 174.96 401.221 175.087 401.772 175.087C402.253 175.087 402.736 174.989 403.188 174.795L402.252 168.972ZM396.749 167.293C396.581 167.599 396.513 168.027 396.589 168.487C396.719 169.26 397.201 169.829 397.699 169.829C397.735 169.829 397.769 169.827 397.805 169.82C398.34 169.732 398.669 168.995 398.535 168.177C398.417 167.404 397.931 166.841 397.435 166.835L395.495 166.603C395.495 166.603 396.107 167.267 396.749 167.293V167.293ZM406.065 165.788C405.9 166.093 405.832 166.52 405.901 166.983C406.02 167.757 406.492 168.329 406.996 168.329C407.033 168.329 407.071 168.327 407.108 168.32C407.652 168.227 407.981 167.491 407.848 166.672C407.72 165.903 407.241 165.336 406.747 165.329L404.807 165.097C404.807 165.097 405.421 165.764 406.065 165.788V165.788ZM406.608 161.572C407.328 161.572 408.044 161.767 408.676 162.151C408.737 162.184 408.805 162.201 408.873 162.201C408.943 162.201 409.013 162.183 409.076 162.147L409.225 161.997C409.337 161.803 409.269 161.555 409.075 161.443L409.067 161.439C408.316 160.984 407.464 160.755 406.611 160.755C405.957 160.755 405.303 160.889 404.688 161.16C404.493 161.268 404.419 161.509 404.516 161.709C404.589 161.848 404.731 161.928 404.877 161.928C404.937 161.928 404.999 161.915 405.056 161.887C405.555 161.676 406.083 161.572 406.608 161.572Z" fill="#D2A5D8"/>
<path d="M401.772 175.087C401.221 175.087 400.672 174.96 400.168 174.707C401.123 172.9 401.824 170.969 402.252 168.972L403.188 174.795C402.736 174.989 402.253 175.087 401.772 175.087Z" fill="#CA776F"/>
<path d="M408.873 162.201C408.805 162.201 408.737 162.184 408.676 162.151C408.044 161.767 407.328 161.572 406.608 161.572C406.083 161.572 405.555 161.676 405.056 161.887C404.999 161.915 404.937 161.928 404.877 161.928C404.731 161.928 404.589 161.848 404.516 161.709C404.419 161.509 404.493 161.268 404.688 161.16C405.303 160.889 405.957 160.755 406.611 160.755C407.464 160.755 408.316 160.984 409.067 161.439L409.075 161.443C409.269 161.555 409.337 161.803 409.225 161.997L409.076 162.147C409.013 162.183 408.943 162.201 408.873 162.201Z" fill="#234377"/>
<path d="M393.652 164.753C393.552 164.753 393.455 164.716 393.377 164.645C393.212 164.493 393.201 164.236 393.353 164.071C393.923 163.373 394.668 162.861 395.495 162.573C395.997 162.399 396.529 162.307 397.072 162.307C397.173 162.307 397.276 162.309 397.379 162.316C397.604 162.345 397.764 162.548 397.741 162.773L397.74 162.779C397.712 162.981 397.539 163.128 397.339 163.128C397.32 163.128 397.3 163.127 397.281 163.124C397.213 163.12 397.145 163.119 397.077 163.119C396.487 163.119 395.911 163.249 395.388 163.495C394.849 163.748 394.367 164.121 393.981 164.597L393.811 164.72C393.76 164.743 393.705 164.753 393.652 164.753" fill="#234377"/>
<path d="M406.996 168.329C406.492 168.329 406.02 167.757 405.901 166.983C405.832 166.52 405.9 166.093 406.065 165.788C406.077 165.789 406.089 165.789 406.101 165.789C406.371 165.789 406.643 165.673 406.875 165.345L406.747 165.329C407.241 165.336 407.72 165.903 407.848 166.672C407.981 167.491 407.652 168.227 407.108 168.32C407.071 168.327 407.033 168.329 406.996 168.329" fill="#234377"/>
<path d="M397.699 169.829C397.201 169.829 396.719 169.26 396.589 168.487C396.513 168.027 396.581 167.599 396.749 167.293C396.763 167.293 396.776 167.293 396.788 167.293C397.057 167.293 397.329 167.177 397.563 166.849L397.435 166.835C397.931 166.841 398.417 167.404 398.535 168.177C398.669 168.995 398.34 169.732 397.805 169.82C397.769 169.827 397.735 169.829 397.699 169.829" fill="#234377"/>
<path d="M396.788 167.293C396.776 167.293 396.763 167.293 396.749 167.293C396.107 167.267 395.495 166.603 395.495 166.603L397.435 166.835L397.563 166.849C397.329 167.177 397.057 167.293 396.788 167.293" fill="#234377"/>
<path d="M406.101 165.789C406.089 165.789 406.077 165.789 406.065 165.788C405.421 165.764 404.807 165.097 404.807 165.097L406.747 165.329L406.875 165.345C406.643 165.673 406.371 165.789 406.101 165.789" fill="#234377"/>
<path d="M406.036 179.501C405.225 179.501 404.412 179.384 403.623 179.145C403.469 179.085 403.393 178.913 403.452 178.759C403.499 178.64 403.611 178.568 403.731 178.568C403.767 178.568 403.803 178.575 403.839 178.588C404.556 178.789 405.289 178.888 406.017 178.888C407.776 178.888 409.509 178.312 410.933 177.213C410.985 177.176 411.044 177.159 411.104 177.159C411.195 177.159 411.283 177.2 411.341 177.279L411.347 177.287C411.443 177.417 411.413 177.603 411.281 177.699C410.827 178.037 410.344 178.335 409.836 178.587C408.649 179.193 407.347 179.503 406.036 179.501" fill="#234377"/>
<path d="M417.967 169.027C417.083 166.58 416.48 164.016 416.247 161.792C415.896 158.449 414.576 155.231 406.619 155.231C405.196 155.231 403.559 155.333 401.677 155.557C400.599 155.685 399.023 156.004 397.332 156.2C396.503 156.296 395.645 156.363 394.805 156.363C393.808 156.363 392.836 156.269 391.967 156.019C389.581 155.329 387.967 153.461 388.707 149.127C389.88 142.251 399.343 137.751 408 137.751C411.868 137.751 415.573 138.649 418.309 140.635C419.208 141.288 420.087 141.869 420.945 142.381L418.873 166.063C418.368 166.943 418.076 168.015 417.967 169.027" fill="#234377"/>
<path d="M418.343 172.128C418.132 171.681 417.991 171.164 417.941 170.604C417.899 170.124 417.905 169.584 417.967 169.027C418.076 168.015 418.368 166.943 418.873 166.063L418.343 172.128Z" fill="#D2A5D8"/>
<path d="M428.549 135.481C428.592 135.005 428.612 134.535 428.611 134.068C428.612 134.535 428.592 135.005 428.549 135.481Z" fill="#C7D9F2"/>
<path d="M393.899 451.536C393.475 456.372 389.197 460.305 384.361 460.305H258.508C253.672 460.305 250.083 456.372 250.505 451.536L278.156 135.481C278.58 130.647 282.857 126.713 287.693 126.713H413.547C418.383 126.713 421.972 130.647 421.549 135.481L393.899 451.536ZM414.16 119.712H288.305C279.596 119.712 271.919 126.772 271.156 135.481L243.505 451.536C242.744 460.244 249.187 467.305 257.896 467.305H383.749C392.459 467.305 400.136 460.244 400.899 451.536L428.549 135.481C429.312 126.772 422.869 119.712 414.16 119.712" fill="#4870C0"/>
<path d="M383.749 467.305C388.104 467.305 392.2 465.54 395.304 462.687C392.2 465.54 388.104 467.305 383.749 467.305" fill="#E8EFFA"/>
<path d="M383.749 467.305H257.896C249.663 467.305 243.455 460.995 243.444 452.949C243.444 452.483 243.464 452.012 243.505 451.536L271.156 135.481C271.919 126.772 279.596 119.712 288.305 119.712H414.16C422.392 119.712 428.6 126.021 428.611 134.068C428.612 134.535 428.592 135.005 428.549 135.481L427.708 145.103L424.803 178.309L422.303 206.893L418.872 246.105L407.437 376.794L407.408 377.127L402.207 436.592L402.177 436.925L400.899 451.536C400.517 455.889 398.408 459.832 395.304 462.687C392.2 465.54 388.104 467.305 383.749 467.305V467.305ZM250.472 452.32C250.479 456.79 253.936 460.305 258.508 460.305H384.361C389.197 460.305 393.475 456.372 393.899 451.536L421.549 135.481C421.572 135.217 421.584 134.956 421.583 134.697C421.576 130.228 418.119 126.713 413.547 126.713H339.673H339.34H323.628H323.295H287.693C282.857 126.713 278.58 130.647 278.156 135.481L257.044 376.794L257.016 377.127L251.813 436.592L251.784 436.925L250.505 451.536C250.483 451.8 250.471 452.061 250.472 452.32" fill="#B4CAEC"/>
<path d="M339.716 447.778C338.967 447.778 305.849 447.778 305.1 447.778C304.028 447.778 303.083 448.648 302.988 449.721C302.895 450.794 303.688 451.663 304.76 451.663C305.523 451.663 338.613 451.663 339.376 451.663C340.449 451.663 341.395 450.794 341.488 449.721C341.583 448.648 340.788 447.778 339.716 447.778Z" fill="white"/>
<path d="M338.871 266.704H323.628V211.592H339.34V234.16C338.308 234.053 337.355 233.988 336.565 233.988C335.233 233.988 334.367 234.173 334.367 234.655C334.367 235.832 337.037 236.891 339.34 237.584V266.692C339.184 266.7 339.028 266.704 338.871 266.704V266.704ZM323.295 266.704H302.169C297.085 266.704 293.325 262.583 293.769 257.499L296.981 220.797C297.425 215.713 301.907 211.592 306.991 211.592H323.295V266.704V266.704ZM339.673 266.669V237.683C341.275 238.148 342.616 238.424 342.616 238.424C342.616 238.424 343.101 248.265 346.499 248.561C347.321 248.633 348.436 248.661 349.653 248.664L348.88 257.499C348.459 262.313 344.419 266.264 339.673 266.669V266.669ZM350.739 236.252L350.38 235.996C350.38 235.996 344.336 234.709 339.673 234.196V211.592H343.692C348.776 211.592 352.536 215.713 352.091 220.797L350.739 236.252" fill="#B1C3E8"/>
<path d="M323.295 266.704H323.628V211.592H323.295V266.704Z" fill="#A2B6DF"/>
<path d="M339.34 266.692V237.584C339.452 237.617 339.564 237.651 339.673 237.683V266.669C339.563 266.679 339.452 266.687 339.34 266.692V266.692ZM339.673 234.196C339.561 234.183 339.451 234.171 339.34 234.16V211.592H339.673V234.196Z" fill="#A2B6DF"/>
<path d="M349.653 248.664C348.436 248.661 347.321 248.633 346.499 248.561C343.101 248.265 342.616 238.424 342.616 238.424C342.616 238.424 341.275 238.148 339.673 237.683C339.564 237.651 339.452 237.617 339.34 237.584C337.037 236.891 334.367 235.832 334.367 234.655C334.367 234.173 335.233 233.988 336.565 233.988C337.355 233.988 338.308 234.053 339.34 234.16C339.451 234.171 339.561 234.183 339.673 234.196C344.336 234.709 350.38 235.996 350.38 235.996L350.739 236.252L349.653 248.664Z" fill="#BA91C2"/>
<path d="M334.871 262.704H298.169C293.085 262.704 289.325 258.583 289.769 253.499L292.981 216.797C293.425 211.713 297.907 207.592 302.991 207.592H339.692C344.776 207.592 348.536 211.713 348.092 216.797L344.88 253.499C344.435 258.583 339.955 262.704 334.871 262.704Z" fill="#4870C0"/>
<path d="M325.095 231.816C325.717 224.705 319.689 218.941 311.631 218.941C303.572 218.941 296.536 224.705 295.913 231.816C295.421 237.437 299.093 242.203 304.629 243.959C303.719 245.597 302.439 246.831 301.133 247.413C301.403 247.564 301.675 247.716 301.979 247.827C304.919 248.889 308.316 247.475 309.951 244.665C317.765 244.399 324.488 238.757 325.095 231.816Z" fill="white"/>
<path d="M341.991 237.985C342.504 232.116 337.528 227.359 330.877 227.359C329.685 227.359 328.524 227.516 327.413 227.8C327.685 229.083 327.792 230.425 327.671 231.816C327.225 236.904 324.12 241.4 319.661 244.212C321.479 246.676 324.532 248.347 328.171 248.573C328.981 250.777 331.401 251.905 333.804 251.088C334.047 251.005 334.271 250.891 334.493 250.777C333.597 250.343 332.82 249.413 332.349 248.199C337.508 246.932 341.565 242.843 341.991 237.985Z" fill="white"/>
<path d="M322.044 380.332H294.745C292.303 380.332 290.269 379.053 289.227 377.127H316.019C320.213 377.127 323.628 373.713 323.628 369.516V339.341H325.629C329.411 339.341 332.208 342.407 331.877 346.188L329.489 373.487C329.159 377.268 325.825 380.332 322.044 380.332V380.332ZM316.019 376.794H289.059C288.603 375.813 288.393 374.685 288.499 373.487L290.887 346.188C291.217 342.407 294.551 339.341 298.332 339.341H323.295V369.516C323.295 373.529 320.031 376.794 316.019 376.794Z" fill="#B1C3E8"/>
<path d="M316.019 377.127H289.227C289.168 377.017 289.112 376.907 289.059 376.794H316.019C320.031 376.794 323.295 373.529 323.295 369.516V339.341H323.628V369.516C323.628 373.713 320.213 377.127 316.019 377.127" fill="#A2B6DF"/>
<path d="M362.087 327.209H339.673V275.969H366.569C371.296 275.969 374.792 279.801 374.379 284.528L371.393 318.651C370.98 323.377 366.813 327.209 362.087 327.209V327.209ZM339.34 327.209H327.964C326.336 327.209 324.855 326.755 323.628 325.965V282.299C324.928 278.653 328.491 275.969 332.447 275.969H339.34V327.209V327.209ZM323.295 325.739C321.16 324.2 319.896 321.599 320.155 318.651L323.14 284.528C323.171 284.173 323.223 283.824 323.295 283.481V325.739" fill="#B1C3E8"/>
<path d="M323.628 325.965C323.515 325.893 323.404 325.817 323.295 325.739V283.481C323.379 283.077 323.491 282.683 323.628 282.299V325.965Z" fill="#A2B6DF"/>
<path d="M339.34 327.209H339.673V275.97H339.34V327.209Z" fill="#A2B6DF"/>
<path d="M358.087 323.209H323.964C319.237 323.209 315.74 319.377 316.155 314.651L319.14 280.528C319.553 275.801 323.72 271.969 328.447 271.969H362.569C367.296 271.969 370.792 275.801 370.379 280.528L367.393 314.651C366.98 319.377 362.813 323.209 358.087 323.209Z" fill="#4870C0"/>
<path d="M318.044 376.332H290.745C286.964 376.332 284.167 373.268 284.499 369.487L286.887 342.188C287.217 338.407 290.551 335.341 294.332 335.341H321.629C325.411 335.341 328.208 338.407 327.877 342.188L325.489 369.487C325.159 373.268 321.825 376.332 318.044 376.332" fill="#4870C0"/>
<path d="M350.457 297.569L361.059 287.821L359.353 307.319L350.457 297.569ZM337.705 299.351L340.044 301.913C340.76 302.699 341.756 303.091 342.785 303.091C343.816 303.091 344.88 302.697 345.732 301.913L348.52 299.351L357.452 309.139H327.061L337.705 299.351ZM329.121 286.04H359.433L344.107 300.132C343.469 300.72 342.516 300.719 341.981 300.132L329.121 286.04ZM336.079 297.568L325.477 307.319L327.183 287.821L336.079 297.568ZM360.327 283.52H328.668C326.668 283.52 324.897 285.148 324.723 287.148L322.896 308.029C322.72 310.031 324.205 311.66 326.207 311.66H357.865C359.865 311.66 361.636 310.031 361.811 308.029L363.637 287.148C363.813 285.148 362.327 283.52 360.327 283.52Z" fill="white"/>
<path d="M293.673 348.483L301.66 351.745L310.461 345.709L303.851 353.541L308.712 360.394L316.403 341.303L293.673 348.483" fill="white"/>
<path d="M301.115 353.553L304.717 357.957H300.884L301.115 353.553Z" fill="white"/>
<path d="M297.929 359.305L297.088 358.764C297.523 358.087 297.893 357.653 297.908 357.635L298.669 358.283C298.665 358.287 298.325 358.689 297.929 359.305Z" fill="white"/>
<path d="M296.693 362.44L295.697 362.359C295.76 361.596 296.016 360.758 296.459 359.865L297.355 360.311C296.968 361.089 296.745 361.805 296.693 362.44V362.44ZM297.539 365.873C296.643 365.336 296.063 364.619 295.816 363.74L296.779 363.47C296.956 364.104 297.372 364.609 298.051 365.013L297.539 365.873" fill="white"/>
<path d="M309.824 366.621L309.729 365.627C310.588 365.545 311.411 365.476 312.179 365.439L312.227 366.439C311.473 366.473 310.665 366.543 309.824 366.621V366.621ZM315.629 366.744C315.097 366.536 314.372 366.428 313.412 366.415L313.427 365.415C314.508 365.431 315.348 365.559 315.993 365.812L315.629 366.744ZM301.231 366.941C301.092 366.925 300.953 366.908 300.816 366.888C300.044 366.783 299.347 366.625 298.745 366.42L299.068 365.475C299.609 365.659 300.243 365.801 300.952 365.899L301.337 365.945L301.231 366.941ZM306.177 366.951L306.107 365.953C306.92 365.895 307.728 365.819 308.517 365.743L308.615 366.737C307.816 366.816 306.999 366.892 306.177 366.951V366.951ZM303.52 367.056C303.168 367.055 302.819 367.049 302.475 367.035L302.517 366.035C303.299 366.068 304.097 366.06 304.905 366.024L304.951 367.024C304.471 367.045 303.993 367.056 303.52 367.056ZM317.696 369.361L316.709 369.189C316.756 368.928 316.779 368.687 316.779 368.465C316.779 367.959 316.66 367.568 316.417 367.275L317.188 366.639C317.58 367.112 317.779 367.727 317.779 368.465C317.779 368.739 317.752 369.037 317.696 369.361" fill="white"/>
<path d="M316.861 371.928L315.945 371.527C316.133 371.096 316.289 370.694 316.415 370.323L317.363 370.64C317.231 371.037 317.064 371.465 316.861 371.928Z" fill="white"/>
<path d="M353.867 204.152H339.673V158.036H357.901C362.155 158.036 365.301 161.484 364.929 165.739L362.243 196.449C361.871 200.703 358.121 204.152 353.867 204.152ZM339.34 204.152H323.628V158.871C324.723 158.337 325.935 158.036 327.191 158.036H339.34V204.152V204.152ZM323.295 204.152H323.156C318.901 204.152 315.756 200.703 316.128 196.449L318.815 165.739C319.065 162.869 320.853 160.368 323.295 159.043V204.152" fill="#B1C3E8"/>
<path d="M323.628 204.152H323.295V159.043C323.404 158.983 323.516 158.925 323.628 158.871V204.152Z" fill="#A2B6DF"/>
<path d="M339.34 204.152H339.673V158.036H339.34V204.152Z" fill="#A2B6DF"/>
<path d="M349.867 200.152H319.156C314.901 200.152 311.756 196.703 312.128 192.449L314.815 161.739C315.187 157.484 318.937 154.036 323.191 154.036H353.901C358.155 154.036 361.301 157.484 360.929 161.739L358.243 192.449C357.871 196.703 354.121 200.152 349.867 200.152Z" fill="#4870C0"/>
<path d="M351.512 183.349C350.955 172.055 342.792 163.111 331.632 161.564C328.649 159.956 324.671 160.795 322.285 163.725C319.651 166.961 321.981 169.023 325.011 171.375C328.041 173.725 330.625 175.475 333.26 172.239C334.289 170.973 334.852 169.512 334.993 168.059C339.995 170.111 343.761 174.239 345.36 179.419C343.905 179.433 342.405 179.869 341.06 180.788C337.619 183.139 339.129 185.876 341.197 189.112C343.265 192.348 345.108 194.859 348.549 192.507C351.665 190.379 352.845 186.472 351.512 183.349Z" fill="white"/>
<path d="M338.697 114.407C345.667 114.407 352.636 114.407 359.605 114.407C360.635 114.407 360.776 112.807 359.745 112.807C352.776 112.807 345.807 112.807 338.837 112.807C337.808 112.807 337.665 114.407 338.697 114.407Z" fill="#4870C0"/>
<path d="M367.264 114.407C369.267 114.407 371.269 114.407 373.272 114.407C374.301 114.407 374.443 112.807 373.412 112.807C371.409 112.807 369.407 112.807 367.404 112.807C366.375 112.807 366.232 114.407 367.264 114.407Z" fill="#4870C0"/>
<path d="M359.605 114.407C352.961 114.407 346.317 114.407 339.673 114.407C339.563 114.407 339.451 114.407 339.34 114.407C339.125 114.407 338.911 114.407 338.697 114.407C338.217 114.407 337.992 114.06 337.991 113.691C337.989 113.264 338.285 112.807 338.837 112.807C345.807 112.807 352.776 112.807 359.745 112.807C360.224 112.807 360.451 113.152 360.452 113.521C360.452 113.948 360.156 114.407 359.605 114.407Z" fill="#799BD7"/>
<path d="M373.272 114.407C371.269 114.407 369.267 114.407 367.264 114.407C366.785 114.407 366.559 114.06 366.557 113.691C366.556 113.264 366.853 112.807 367.404 112.807C369.407 112.807 371.409 112.807 373.412 112.807C373.891 112.807 374.117 113.152 374.119 113.521C374.119 113.948 373.823 114.407 373.272 114.407Z" fill="#799BD7"/>
<path d="M407.595 276.152C406.985 283.12 406.376 290.091 405.765 297.059C405.676 298.089 407.263 298.231 407.353 297.2C407.963 290.229 408.573 283.261 409.183 276.291C409.273 275.263 407.685 275.12 407.595 276.152Z" fill="#4870C0"/>
<path d="M405.096 304.719C404.921 306.72 404.745 308.723 404.569 310.725C404.48 311.756 406.068 311.897 406.157 310.867C406.333 308.864 406.508 306.861 406.683 304.859C406.773 303.829 405.185 303.687 405.096 304.719Z" fill="#4870C0"/>
<path d="M406.573 297.907C406.169 297.907 405.761 297.639 405.763 297.141C405.763 297.115 405.764 297.087 405.765 297.059C406.376 290.091 406.985 283.12 407.595 276.152C407.637 275.671 408.004 275.445 408.376 275.445C408.779 275.445 409.187 275.712 409.187 276.209C409.187 276.236 409.185 276.263 409.183 276.291C408.573 283.261 407.963 290.229 407.353 297.2C407.312 297.68 406.944 297.907 406.573 297.907Z" fill="#799BD7"/>
<path d="M405.377 311.573C404.975 311.573 404.565 311.305 404.567 310.808C404.567 310.781 404.568 310.753 404.569 310.725C404.745 308.723 404.921 306.72 405.096 304.719C405.137 304.237 405.505 304.012 405.876 304.012C406.28 304.012 406.688 304.279 406.687 304.777C406.687 304.804 406.685 304.831 406.683 304.859C406.508 306.861 406.333 308.864 406.157 310.867C406.116 311.347 405.749 311.573 405.377 311.573" fill="#799BD7"/>
<path d="M222.471 183.119C222.471 183.119 214.735 182.057 215.668 186.083C216.351 189.025 218.949 183.248 222.471 183.119Z" fill="#1D2A30"/>
<path d="M215.751 192.257C215.751 192.257 222.121 192.199 223.107 180.577C223.107 180.577 229.183 178.46 232.639 182.244C236.093 186.027 228.163 193.372 232.537 197.181C232.537 197.181 228.16 199.568 215.751 192.257" fill="#F46E75"/>
<path d="M239.333 151.235C239.333 151.235 247.545 149.472 249.677 155.513C251.811 161.553 237.519 158.899 237.519 158.899L239.333 151.235" fill="#1D2A30"/>
<path d="M245.736 159.387C244.568 155.945 242.54 153.004 239.372 151.227C239.583 151.185 240.615 150.995 241.964 150.995C244.56 150.995 248.331 151.697 249.677 155.513C249.827 155.933 249.895 156.312 249.895 156.652C249.893 158.419 248.023 159.151 245.736 159.387" fill="#161C1E"/>
<path d="M246.051 166.288C246.181 165.516 246.697 164.96 247.201 165.045C247.705 165.131 248.009 165.825 247.877 166.597C247.748 167.369 247.232 167.925 246.728 167.84C246.224 167.755 245.92 167.06 246.051 166.288" fill="#1D2A30"/>
<path d="M246.451 167.745L250.047 173.551C250.047 173.551 248.119 174.939 245.456 173.945L246.451 167.745Z" fill="#F03C51"/>
<path d="M219.292 162.559C218.844 172.436 218.441 176.615 222.859 182.183C229.884 188.121 241.751 188.953 245.14 179.4C248.193 170.805 248.411 156.132 239.219 151.141C232.665 147.587 224.471 150.02 220.917 156.573C219.919 158.415 219.363 160.464 219.292 162.559" fill="#F46E75"/>
<path d="M244.811 163.852C244.955 163.904 245.115 163.885 245.241 163.8C246.168 163.089 247.38 162.869 248.497 163.211C248.731 163.297 248.991 163.181 249.083 162.949C249.171 162.713 249.057 162.451 248.824 162.353C247.421 161.903 245.885 162.161 244.707 163.047C244.499 163.179 244.437 163.455 244.569 163.663L244.583 163.681L244.811 163.852Z" fill="#1D2A30"/>
<path d="M211.26 194.264C211.26 194.264 214.012 186.68 225.383 191.513C236.755 196.345 237.828 203.015 237.828 203.015L211.26 194.264Z" fill="#1D2A30"/>
<path d="M237.044 200.94C231.053 196.176 220.401 193.264 212.312 192.573C213.351 191.347 215.273 189.903 218.567 189.903C220.391 189.903 222.635 190.345 225.383 191.513C232.787 194.66 235.825 198.584 237.044 200.94" fill="#16191B"/>
<path d="M216.375 338.051C216.375 338.051 214.753 351.873 213.981 356.445C213.297 360.499 191.336 465.384 191.336 465.384L181.316 463.727C181.316 463.727 180.208 410.566 187.912 375.385C189.489 368.182 192.679 362.151 193.837 356.648C194.767 352.227 193.364 338.585 193.364 338.585L216.375 338.051" fill="#F46E75"/>
<path d="M174.667 335.8C174.667 335.8 170.011 348.461 167.843 352.387C165.484 356.653 156.523 368.266 156.523 368.266L108.787 435.231L99.6558 429.453C99.6558 429.453 113.429 392.582 134.173 362.555C139.117 355.396 146.24 349.941 150.103 342.839C152.329 338.748 154.232 324.669 154.232 324.669L174.667 335.8Z" fill="#F46E75"/>
<path d="M187.468 207.58C187.468 207.58 176.043 222.152 177.009 228.279C177.977 234.404 195.892 241.853 195.892 241.853L200.439 235.387L188.675 226.796L199.873 213.959L187.468 207.58" fill="#F46E75"/>
<path d="M206.363 192.991C204.927 192.32 198.607 189.779 184.931 207.545C184.931 207.545 189.909 213.743 200.565 217.433C200.565 217.433 212.561 195.887 206.363 192.991" fill="#1D2A30"/>
<path d="M196.735 215.903C194.259 214.773 192.191 213.544 190.508 212.384C192.113 209.352 197.008 200.301 200.548 195.783C198.524 199.576 197.872 206.833 196.735 215.903Z" fill="#16191B"/>
<path d="M189.805 252.003C189.805 252.003 208.159 262.861 232.332 264.243L216.923 350.121C216.923 350.121 172.468 349.985 149.224 327.9C149.224 327.9 158.489 281.105 189.805 252.003" fill="#4870C0"/>
<path d="M187.913 252.247C187.913 252.247 205.715 265.368 234.067 264.468C234.067 264.468 250.347 219.429 240.145 204.199C233.84 194.785 209.629 190.521 203.104 193.203C195.252 196.428 199.796 224.675 187.913 252.247" fill="#1D2A30"/>
<path d="M178.359 343.88C176.399 343.276 174.401 342.593 172.429 341.819C174.4 342.572 176.383 343.257 178.359 343.88Z" fill="#E8E8E7"/>
<path d="M193.72 347.663C190.124 346.871 184.412 345.747 178.359 343.88C176.383 343.257 174.4 342.572 172.429 341.819C172.416 341.813 172.401 341.808 172.388 341.803L192.184 298.516C194.384 307.22 193.72 347.663 193.72 347.663Z" fill="#4168BB"/>
<path d="M241.265 238.408C232.248 225.267 229.529 213.883 229.529 213.883L232.677 211.561L236.483 213.351L243.495 219.296C243.483 225.335 242.549 232.039 241.265 238.408" fill="#16191B"/>
<path d="M250.521 218.079L261.192 232.943L287.993 234.711L292.915 230.617C293.245 230.341 293.653 230.176 294.084 230.141L308.393 229.007C308.833 228.972 309.201 229.336 309.172 229.776L309.091 230.995C309.067 231.353 308.784 231.639 308.427 231.667L301.647 232.205L300.265 239.16C300.108 239.953 299.509 240.588 298.725 240.788L293.411 242.153C293.069 242.241 292.711 242.241 292.369 242.155L288.615 241.201C288.615 241.201 267.725 245.421 258.133 243.728C248.541 242.036 239.089 226.436 239.089 226.436L250.521 218.079" fill="#F46E75"/>
<path d="M238.173 229.363C238.173 229.363 220.996 206.399 231.595 201.061C242.195 195.725 253.339 219.332 253.339 219.332C253.339 219.332 248.981 225.993 238.173 229.363" fill="#1D2A30"/>
<path d="M194.369 464.464C196.415 464.796 199.2 464.883 199.739 464.183C199.816 464.096 199.891 463.943 199.708 463.609C199.609 463.411 199.425 463.27 199.208 463.223C199.048 463.172 198.88 463.144 198.711 463.14C197.193 463.304 195.72 463.753 194.369 464.464ZM193.509 464.784L193.305 464.561L193.443 464.294C193.616 464.203 197.549 462.147 199.373 462.723C199.715 462.824 200.001 463.056 200.175 463.365C200.409 463.711 200.4 464.168 200.152 464.503C199.676 465.076 198.248 465.275 196.875 465.223C195.741 465.175 194.616 465.028 193.509 464.784Z" fill="#4870C0"/>
<path d="M196.416 460.411C196.085 460.395 195.76 460.501 195.501 460.707C194.641 461.627 194.085 462.789 193.908 464.037C195.307 463.278 197.116 461.471 197.076 460.72C197.06 460.652 197.036 460.46 196.567 460.402L196.416 460.411ZM193.371 464.764L193.261 464.523C193.283 464.385 193.688 461.417 195.137 460.315C195.555 459.988 196.087 459.845 196.611 459.921C197.328 460.02 197.539 460.392 197.555 460.694C197.744 461.945 195.001 464.24 193.659 464.776L193.549 464.782L193.371 464.764Z" fill="#4870C0"/>
<path d="M192.439 463.196L180.387 462.747C179.932 462.728 179.527 463.029 179.411 463.47L176.865 473.194C176.633 474.055 177.144 474.94 178.005 475.172L178.343 475.225C182.691 475.312 186.563 475.219 191.972 475.428C198.355 475.668 196.707 476.371 204.208 476.759C208.728 476.987 209.747 471.877 207.839 471.553C199.105 470.12 198.292 467.437 195.025 464.17C194.312 463.54 193.391 463.192 192.439 463.196" fill="#1D2A30"/>
<path d="M111.197 435.992C112.873 437.209 115.32 438.543 116.117 438.161C116.225 438.117 116.361 438.013 116.348 437.635C116.349 437.413 116.249 437.204 116.076 437.065C115.955 436.947 115.819 436.845 115.669 436.768C114.241 436.228 112.724 435.965 111.197 435.992ZM110.285 435.889L110.203 435.599L110.446 435.421C110.642 435.417 115.081 435.356 116.45 436.692C116.707 436.937 116.86 437.273 116.875 437.627C116.929 438.043 116.715 438.445 116.342 438.633C115.658 438.931 114.293 438.463 113.091 437.799C112.102 437.245 111.163 436.607 110.285 435.889" fill="#4870C0"/>
<path d="M114.852 433.296C114.564 433.133 114.226 433.08 113.902 433.147C112.72 433.582 111.699 434.368 110.978 435.401C112.569 435.355 114.999 434.558 115.302 433.87C115.318 433.8 115.382 433.62 114.99 433.357L114.852 433.296ZM110.171 435.808L110.182 435.544C110.263 435.431 111.963 432.964 113.754 432.633C114.273 432.531 114.812 432.644 115.246 432.947C115.841 433.359 115.863 433.787 115.741 434.061C115.345 435.264 111.863 436.075 110.423 435.948L110.322 435.904L110.171 435.808Z" fill="#4870C0"/>
<path d="M110.046 433.989L99.4907 428.153C99.0927 427.933 98.5954 428.017 98.2938 428.357L91.638 435.889C91.0427 436.555 91.0984 437.575 91.7626 438.17L92.0402 438.371C95.8818 440.408 99.3803 442.069 104.114 444.696C109.703 447.788 107.916 447.672 114.436 451.4C118.367 453.641 121.58 449.541 120.025 448.391C112.874 443.175 113.359 440.413 111.915 436.024C111.562 435.139 110.897 434.415 110.046 433.989" fill="#1D2A30"/>
<path d="M235.937 171.048C235.937 171.048 239.993 169.779 238.463 163.908C238.463 163.908 240.824 159.955 240.447 157.788C240.447 157.788 252.42 150.875 245.6 143.281C238.781 135.688 226.304 140.771 220.803 150.467C220.803 150.467 191.532 159.98 211.903 177.875C231.795 195.348 235.937 171.048 235.937 171.048" fill="#1D2A30"/>
<path d="M223.913 154.528C223.913 154.528 219.351 144.483 226.207 136.903C233.063 129.323 221.656 147.588 223.913 154.528Z" fill="#1D2A30"/>
<path d="M235.937 171.048C235.937 171.048 236.065 171.005 236.261 170.911C236.208 163.399 233.369 154.38 222.281 148.223C221.752 148.943 221.248 149.683 220.803 150.467C220.803 150.467 219.959 150.744 218.673 151.28C222.508 155.36 233.047 168.864 221.196 183.627C233.149 187.352 235.937 171.048 235.937 171.048" fill="#4870C0"/>
<path d="M236.467 167.531C237.832 169.02 238.547 170.992 238.455 173.009C238.312 175.687 235.7 176.191 233.616 174.751C231.728 173.448 229.552 170.492 230.72 168.133C231.888 165.776 234.777 165.728 236.467 167.531Z" fill="#F46E75"/>
<path d="M247.009 165.064L249.18 164.952C249.18 164.952 247.763 166.295 247.009 165.064Z" fill="#1D2A30"/>
<path d="M232.053 190.245C232.052 190.244 232.051 190.244 232.051 190.243C232.219 189.764 232.396 189.284 232.567 188.807C232.397 189.284 232.221 189.765 232.053 190.245Z" fill="#CECDCC"/>
<path d="M232.051 190.243C229.217 188.477 227.799 186.095 227.247 184.956C229.181 185.841 231.243 186.401 233.264 186.571C233.088 187.296 232.836 188.047 232.567 188.807C232.396 189.284 232.219 189.764 232.051 190.243" fill="#E75656"/>
<path d="M233.264 186.571C231.243 186.401 229.181 185.841 227.247 184.956C227.245 184.955 227.245 184.955 227.245 184.955C229.184 185.841 231.245 186.385 233.268 186.553C233.267 186.559 233.265 186.564 233.264 186.571" fill="#E75656"/>
</g>
<defs>
<clipPath id="clip0">
<rect width="666.667" height="491.68" fill="white"/>
</clipPath>
</defs>
</svg>
