<svg width="389" height="174" viewBox="0 0 389 174" fill="none" xmlns="http://www.w3.org/2000/svg">
<path d="M11.24 126.812H125.747C128.805 126.812 131.225 129.419 131.005 132.468C128.211 171.172 96.168 171.172 68.4813 171.172C40.8733 171.172 8.92933 169.021 5.98266 132.485C5.73599 129.431 8.17332 126.812 11.24 126.812" fill="#F6C114"/>
<path d="M11.2387 129.479C10.5027 129.479 9.81998 129.779 9.31732 130.323C8.82265 130.859 8.58267 131.552 8.64001 132.271C11.3387 165.708 39.6827 168.507 68.4814 168.507C96.6267 168.507 125.731 168.507 128.345 132.277C128.397 131.547 128.151 130.849 127.649 130.311C127.151 129.775 126.475 129.479 125.747 129.479H11.2387ZM68.4814 173.84C45.3547 173.84 6.64266 173.84 3.32399 132.7C3.14666 130.512 3.904 128.327 5.39733 126.707C6.9 125.08 9.028 124.145 11.2387 124.145H125.747C127.94 124.145 130.057 125.069 131.555 126.679C133.055 128.289 133.823 130.469 133.665 132.66C130.693 173.84 96.1974 173.84 68.4814 173.84Z" fill="#232323"/>
<path d="M127.713 76.408H9.27065C7.56265 76.408 6.39066 74.668 7.04399 73.0893C17.0347 48.9973 40.7746 32.048 68.492 32.048C96.2093 32.048 119.949 48.9973 129.94 73.0893C130.593 74.668 129.421 76.408 127.713 76.408Z" fill="#F6C114"/>
<path d="M9.66265 73.7413H127.321C117.312 50.02 94.2653 34.7147 68.492 34.7147C42.7187 34.7147 19.672 50.02 9.66265 73.7413V73.7413ZM127.476 74.1107H127.489H127.476ZM127.713 79.0747H9.27066C7.57333 79.0747 5.99467 78.2307 5.04934 76.8147C4.10801 75.4067 3.93201 73.6307 4.58134 72.0694C15.3347 46.136 40.42 29.3813 68.492 29.3813C96.5627 29.3813 121.649 46.136 132.404 72.068C133.051 73.6307 132.876 75.4067 131.933 76.8147C130.989 78.2307 129.412 79.0747 127.713 79.0747Z" fill="#232323"/>
<path d="M25.2973 59.548C24.796 59.548 24.296 59.3627 23.908 58.9867C23.1133 58.22 23.0907 56.9534 23.8587 56.1587C34.06 45.5947 47.0653 38.7054 61.4653 36.2361C62.5427 36.0481 63.5867 36.7801 63.7733 37.8681C63.9613 38.9574 63.2293 39.9907 62.14 40.1787C48.5853 42.5027 36.3427 48.9907 26.736 58.9374C26.3427 59.344 25.82 59.548 25.2973 59.548" fill="white"/>
<path d="M52.9866 51.5173C51.928 52.636 50.164 52.684 49.0453 51.6253C47.9267 50.5666 47.8786 48.8026 48.9373 47.684C49.9946 46.5653 54.6853 43.4253 55.804 44.484C56.9213 45.5426 54.0453 50.3986 52.9866 51.5173Z" fill="#232323"/>
<path d="M25.34 68.0627C24.0774 68.9427 22.3387 68.6307 21.46 67.3667C20.58 66.1027 20.892 64.3653 22.156 63.4853C23.4187 62.6067 28.6507 60.488 29.5293 61.752C30.4093 63.016 26.604 67.184 25.34 68.0627Z" fill="#232323"/>
<path d="M65.5893 64.824C65.3893 66.3507 63.9893 67.4267 62.4626 67.2253C60.936 67.0253 59.8613 65.6253 60.0613 64.0987C60.2613 62.572 62.216 57.2773 63.7426 57.4773C65.2693 57.6786 65.7906 63.2973 65.5893 64.824" fill="#232323"/>
<path d="M88.2147 46.2426C89.2707 47.364 89.2173 49.128 88.096 50.184C86.976 51.24 85.2106 51.188 84.1546 50.0667C83.1 48.9467 80.2346 44.084 81.356 43.028C82.476 41.972 87.1587 45.1226 88.2147 46.2426" fill="#232323"/>
<path d="M96.348 65.392C97.4907 66.4227 97.58 68.1867 96.548 69.3293C95.516 70.472 93.752 70.5613 92.6093 69.5293C91.468 68.4973 88.22 63.8813 89.252 62.7386C90.284 61.596 95.2053 64.3587 96.348 65.392" fill="#232323"/>
<path d="M110.752 54.7133C111.664 55.9533 111.397 57.6987 110.156 58.6107C108.916 59.5227 107.171 59.2547 106.259 58.0147C105.347 56.7733 103.095 51.5987 104.336 50.6867C105.577 49.7747 109.841 53.472 110.752 54.7133Z" fill="#232323"/>
<path d="M21.8373 64.9533C21.8373 66.1867 20.8387 67.1867 19.604 67.1867C18.3707 67.1867 17.3707 66.1867 17.3707 64.9533C17.3707 63.72 18.3707 62.72 19.604 62.72C20.8387 62.72 21.8373 63.72 21.8373 64.9533Z" fill="white"/>
<path d="M113.087 122.425C106.441 122.425 103.068 119.199 100.092 116.353C97.4093 113.787 95.2893 111.759 90.7839 111.759C86.2786 111.759 84.16 113.787 81.476 116.353C78.5013 119.199 75.128 122.425 68.4826 122.425C61.8373 122.425 58.4653 119.199 55.488 116.353C52.8053 113.787 50.688 111.759 46.1826 111.759C41.68 111.759 39.5626 113.787 36.88 116.353C33.9066 119.199 30.5333 122.425 23.8906 122.425C17.2466 122.425 13.8733 119.199 10.8986 116.353C8.54796 114.104 6.51998 112.164 2.84798 111.816C1.38131 111.677 0.30531 110.376 0.443976 108.911C0.583976 107.444 1.87062 106.363 3.35062 106.507C8.86662 107.029 11.9053 109.935 14.5839 112.499C17.2679 115.064 19.3866 117.092 23.8906 117.092C28.3933 117.092 30.512 115.064 33.1933 112.499C36.168 109.652 39.5386 106.425 46.1826 106.425C52.828 106.425 56.2 109.652 59.176 112.499C61.8586 115.064 63.9773 117.092 68.4826 117.092C72.988 117.092 75.1066 115.064 77.7906 112.499C80.7653 109.652 84.1386 106.425 90.7839 106.425C97.4293 106.425 100.803 109.652 103.779 112.499C106.463 115.064 108.583 117.092 113.087 117.092C117.593 117.092 119.713 115.064 122.396 112.499C125.077 109.935 128.116 107.029 133.635 106.507C135.093 106.357 136.401 107.444 136.54 108.911C136.679 110.376 135.603 111.677 134.136 111.816C130.463 112.164 128.433 114.105 126.083 116.353C123.107 119.199 119.733 122.425 113.087 122.425" fill="#232323"/>
<path d="M69.7414 37.7307L69.4947 37.72C68.028 37.5866 66.948 36.288 67.0827 34.8213L70.0293 2.51197C70.1653 1.0453 71.472 -0.0120168 72.928 0.0973166C74.3947 0.23065 75.476 1.52928 75.3414 2.99595L72.3933 35.3053C72.2667 36.6906 71.104 37.7307 69.7414 37.7307" fill="#232323"/>
<path d="M72.516 4.51071C82.0653 9.98938 92.6306 1.13472 102.181 6.61338C101.747 12.7401 101.311 18.8653 100.877 24.9907C91.328 19.512 80.7613 28.368 71.212 22.8867C71.6453 16.7614 72.0813 10.636 72.516 4.51071" fill="white"/>
<path d="M74 21.2733C77.568 22.6573 81.4853 21.9987 85.6026 21.3107C89.6213 20.636 94.06 19.8893 98.4773 21.1187L99.3933 8.22799C95.824 6.84399 91.9066 7.50132 87.7893 8.19199C83.7706 8.86799 79.332 9.61201 74.9147 8.38268L74 21.2733ZM100.876 27.6573C100.417 27.6573 99.96 27.5387 99.5493 27.3027C95.6013 25.0373 91.1733 25.7827 86.4853 26.5693C81.332 27.4347 75.488 28.4173 69.8853 25.2013C68.9986 24.692 68.4786 23.72 68.552 22.6986L69.856 4.32129C69.92 3.40662 70.452 2.58929 71.2613 2.15729C72.0706 1.72262 73.0453 1.73999 73.8426 2.19733C77.7893 4.46133 82.2186 3.71596 86.9066 2.93196C92.0613 2.06796 97.9053 1.08663 103.507 4.3013C104.395 4.81063 104.913 5.78 104.84 6.80267L103.537 25.18C103.472 26.0947 102.94 26.9133 102.131 27.344C101.739 27.5533 101.307 27.6573 100.876 27.6573" fill="#232323"/>
<path d="M130.124 87.792H5.96531C4.49331 87.792 3.29865 86.5987 3.29865 85.1254C3.29865 83.6534 4.49331 82.4587 5.96531 82.4587H130.124C131.596 82.4587 132.791 83.6534 132.791 85.1254C132.791 86.5987 131.596 87.792 130.124 87.792Z" fill="#232323"/>
<path d="M130.124 104.125H5.96531C4.49331 104.125 3.29865 102.932 3.29865 101.459C3.29865 99.9867 4.49331 98.792 5.96531 98.792H130.124C131.596 98.792 132.791 99.9867 132.791 101.459C132.791 102.932 131.596 104.125 130.124 104.125Z" fill="#232323"/>
<path d="M16.596 95.7373H9.21067C8.14134 95.7373 7.26666 94.8627 7.26666 93.792C7.26666 92.724 8.14134 91.848 9.21067 91.848H16.596C17.6667 91.848 18.5413 92.724 18.5413 93.792C18.5413 94.8627 17.6667 95.7373 16.596 95.7373Z" fill="#232323"/>
<path d="M38.2627 95.7373H30.8774C29.808 95.7373 28.9333 94.8627 28.9333 93.792C28.9333 92.724 29.808 91.848 30.8774 91.848H38.2627C39.3333 91.848 40.208 92.724 40.208 93.792C40.208 94.8627 39.3333 95.7373 38.2627 95.7373Z" fill="#232323"/>
<path d="M59.9293 95.7373H52.544C51.4747 95.7373 50.6 94.8627 50.6 93.792C50.6 92.724 51.4747 91.848 52.544 91.848H59.9293C61 91.848 61.8747 92.724 61.8747 93.792C61.8747 94.8627 61 95.7373 59.9293 95.7373Z" fill="#232323"/>
<path d="M81.596 95.7373H74.2107C73.1413 95.7373 72.2667 94.8627 72.2667 93.792C72.2667 92.724 73.1413 91.848 74.2107 91.848H81.596C82.6667 91.848 83.5413 92.724 83.5413 93.792C83.5413 94.8627 82.6667 95.7373 81.596 95.7373Z" fill="#232323"/>
<path d="M103.263 95.7373H95.8774C94.808 95.7373 93.9333 94.8627 93.9333 93.792C93.9333 92.724 94.808 91.848 95.8774 91.848H103.263C104.333 91.848 105.208 92.724 105.208 93.792C105.208 94.8627 104.333 95.7373 103.263 95.7373Z" fill="#232323"/>
<path d="M124.929 95.7373H117.544C116.475 95.7373 115.6 94.8627 115.6 93.792C115.6 92.724 116.475 91.848 117.544 91.848H124.929C126 91.848 126.875 92.724 126.875 93.792C126.875 94.8627 126 95.7373 124.929 95.7373Z" fill="#232323"/>
<path d="M170.288 131C180.176 131 184.592 125.336 184.592 114.104C184.592 108.44 183.44 104.216 181.232 101.432C180.176 100.184 179.024 99.32 177.68 98.648C179.12 97.88 180.176 97.016 181.232 95.768C183.44 92.984 184.592 88.76 184.592 83.192C184.592 71.96 180.176 66.296 170.288 66.296H159.632V131H170.288ZM170.288 69.272C178.352 69.272 181.52 73.208 181.52 83.192C181.52 93.08 178.256 97.112 170.288 97.112H162.704V69.272H170.288ZM170.288 100.088C178.256 100.088 181.52 104.12 181.52 114.104C181.52 124.088 178.352 128.024 170.288 128.024H162.704V100.088H170.288ZM190.442 115.064C190.442 124.28 194.186 130.904 204.266 130.904C213.962 130.904 217.994 124.76 217.994 115.064V66.2H215.018V115.064C215.018 122.456 212.81 127.928 204.266 127.928C196.106 127.928 193.418 123.224 193.418 115.064V66.2H190.442V115.064ZM252.59 112.952C252.59 108.056 251.15 104.312 248.27 101.528C247.31 100.568 246.254 99.8 245.006 99.224C246.542 98.456 248.75 97.496 249.806 96.248C252.206 93.464 253.358 89.144 253.358 83.384C253.358 71.576 249.71 66.2 239.342 66.2H225.806V130.904H228.782V100.664H237.422C245.102 100.664 249.518 105.176 249.518 112.952V130.904H252.59V112.952ZM228.782 69.272H239.342C247.886 69.272 250.382 73.304 250.382 83.384C250.382 93.368 245.966 97.592 237.422 97.592H228.782V69.272ZM259.085 113.912C259.085 124.952 263.693 131 272.909 131C282.125 131 286.733 125.048 286.733 113.912V102.392H269.645V105.464H283.661V113.912C283.661 123.512 280.109 128.024 272.909 128.024C265.613 128.024 262.061 123.512 262.061 113.912V83.288C262.061 77.048 263.693 73.496 265.805 71.576C267.917 69.656 270.605 69.272 272.909 69.272C275.213 69.272 277.901 69.656 280.013 71.576C282.125 73.496 283.661 77.048 283.661 83.288V84.824H286.733V83.288C286.733 72.152 282.125 66.296 272.909 66.296C263.693 66.296 259.085 72.152 259.085 83.288V113.912ZM292.067 115.064C292.067 124.28 295.811 130.904 305.891 130.904C315.587 130.904 319.619 124.76 319.619 115.064V66.2H316.643V115.064C316.643 122.456 314.435 127.928 305.891 127.928C297.731 127.928 295.043 123.224 295.043 115.064V66.2H292.067V115.064ZM327.335 66.296V131H350.567V128.024H330.311V100.088H347.687V97.112H330.311V69.272H350.567V66.296H327.335ZM383.278 112.952C383.278 108.056 381.838 104.312 378.958 101.528C377.998 100.568 376.942 99.8 375.694 99.224C377.23 98.456 379.438 97.496 380.494 96.248C382.894 93.464 384.046 89.144 384.046 83.384C384.046 71.576 380.398 66.2 370.03 66.2H356.494V130.904H359.47V100.664H368.109C375.79 100.664 380.206 105.176 380.206 112.952V130.904H383.278V112.952ZM359.47 69.272H370.03C378.574 69.272 381.07 73.304 381.07 83.384C381.07 93.368 376.654 97.592 368.109 97.592H359.47V69.272Z" fill="black"/>
</svg>
